<?xml version="1.0" encoding="UTF-8" standalone="no"?>
<!-- Created with Inkscape (http://www.inkscape.org/) -->

<svg
   xmlns:dc="http://purl.org/dc/elements/1.1/"
   xmlns:cc="http://creativecommons.org/ns#"
   xmlns:rdf="http://www.w3.org/1999/02/22-rdf-syntax-ns#"
   xmlns:svg="http://www.w3.org/2000/svg"
   xmlns="http://www.w3.org/2000/svg"
   xmlns:sodipodi="http://sodipodi.sourceforge.net/DTD/sodipodi-0.dtd"
   xmlns:inkscape="http://www.inkscape.org/namespaces/inkscape"
   id="svg1923"
   sodipodi:version="0.32"
   inkscape:version="0.48.4 r9939"
   width="500"
   height="765"
   version="1.0"
   sodipodi:docname="encryption.svg">
  <metadata
     id="metadata1928">
    <rdf:RDF>
      <cc:Work
         rdf:about="">
        <dc:format>image/svg+xml</dc:format>
        <dc:type
           rdf:resource="http://purl.org/dc/dcmitype/StillImage" />
        <dc:title></dc:title>
      </cc:Work>
    </rdf:RDF>
  </metadata>
  <defs
     id="defs1926" />
  <sodipodi:namedview
     inkscape:window-height="705"
     inkscape:window-width="1366"
     inkscape:pageshadow="2"
     inkscape:pageopacity="0.0"
     guidetolerance="10.0"
     gridtolerance="10.0"
     objecttolerance="10.0"
     borderopacity="1.0"
     bordercolor="#666666"
     pagecolor="#ffffff"
     id="base"
     inkscape:zoom="0.98562091"
     inkscape:cx="235.91899"
     inkscape:cy="538.39305"
     inkscape:window-x="-8"
     inkscape:window-y="-8"
     inkscape:current-layer="svg1923"
     showgrid="false"
     inkscape:window-maximized="1" />
  <path
     id="path1934"
     style="fill:none;stroke:#000000;stroke-width:3;stroke-linecap:butt;stroke-linejoin:round;stroke-miterlimit:4;stroke-opacity:1;stroke-dasharray:none;stroke-dashoffset:0"
     d="m 367.89981,197.53508 c 12.51973,0 22.90623,34.18792 22.90623,75.75648 0,41.56856 -10.16094,76.43316 -22.68066,76.43316 -12.51974,0 -22.68068,-34.8646 -22.68068,-76.43316 0,-41.56856 9.93538,-75.75648 22.45511,-75.75648 z m -0.0444,-0.005 197.02746,-0.29341 c 11.01276,0 24.34773,34.01045 24.34773,75.91617 0,41.90573 -12.96854,76.73372 -23.98131,76.73372 l -197.16832,-0.10427"
     sodipodi:nodetypes="cssscccscc"
     inkscape:connector-curvature="0" />
  <path
     id="path1934-1"
     style="fill:none;stroke:#000000;stroke-width:3;stroke-linecap:butt;stroke-linejoin:round;stroke-miterlimit:4;stroke-opacity:1;stroke-dasharray:none;stroke-dashoffset:0"
     d="m 315.0527,216.4671 c 9.29716,0 17.01017,25.38795 17.01017,56.25675 0,30.86882 -7.54551,56.75926 -16.84266,56.75926 -9.29716,0 -16.84267,-25.89044 -16.84267,-56.75926 0,-30.8688 7.37801,-56.25675 16.67516,-56.25675 z m -0.033,-0.004 146.31257,-0.21789 c 8.17807,0 18.08062,25.25616 18.08062,56.37534 0,31.1192 -9.63044,56.98246 -17.80852,56.98246 l -146.41717,-0.0774"
     sodipodi:nodetypes="cssscccscc"
     inkscape:connector-curvature="0" />
  <path
     id="path1934-1-7"
     style="fill:none;stroke:#000000;stroke-width:3;stroke-linecap:butt;stroke-linejoin:round;stroke-miterlimit:4;stroke-opacity:1;stroke-dasharray:none;stroke-dashoffset:0"
     d="m 273.73128,242.99413 c 5.43006,0 9.93489,14.82798 9.93489,32.85708 0,18.02911 -4.407,33.15057 -9.83705,33.15057 -5.43006,0 -9.83706,-15.12146 -9.83706,-33.15057 0,-18.0291 4.30917,-32.85708 9.73922,-32.85708 z m -0.0193,-0.002 85.45468,-0.12726 c 4.77645,0 10.56009,14.75101 10.56009,32.92634 0,18.17535 -5.62471,33.28094 -10.40117,33.28094 l -85.51577,-0.0452"
     sodipodi:nodetypes="cssscccscc"
     inkscape:connector-curvature="0" />
  <path
     id="path1934-1-4"
     style="fill:none;stroke:#000000;stroke-width:3;stroke-linecap:butt;stroke-linejoin:round;stroke-miterlimit:4;stroke-opacity:1;stroke-dasharray:none;stroke-dashoffset:0"
     d="m 244.71177,257.74323 c 3.33539,0 6.10245,9.10799 6.10245,20.18226 0,11.07426 -2.70697,20.36253 -6.04234,20.36253 -3.33539,0 -6.04236,-9.28827 -6.04236,-20.36253 0,-11.07427 2.64688,-20.18226 5.98225,-20.18226 z m -0.0121,-10e-4 52.49001,-0.0781 c 2.9339,0 6.48647,9.06072 6.48647,20.22479 0,11.16411 -3.45495,20.44261 -6.38885,20.44261 l -52.52753,-0.0278"
     sodipodi:nodetypes="cssscccscc"
     inkscape:connector-curvature="0" />
  <path
     style="fill:none;stroke:#000000;stroke-width:3;stroke-linecap:butt;stroke-linejoin:miter;stroke-miterlimit:4;stroke-opacity:1;stroke-dasharray:none"
     d="m 385.59865,197.51867 c -169.31174,0 -170.02917,0 -170.02917,0 l -46.01369,-26.56602"
     id="path3816"
     inkscape:connector-curvature="0" />
  <path
     style="fill:none;stroke:#000000;stroke-width:3;stroke-linecap:butt;stroke-linejoin:miter;stroke-miterlimit:4;stroke-opacity:1;stroke-dasharray:none"
     d="m 383.13699,215.82364 c -169.31174,0 -170.02916,0 -170.02916,0 l -46.0137,-26.56602"
     id="path3816-0"
     inkscape:connector-curvature="0" />
  <path
     style="fill:none;stroke:#000000;stroke-width:3;stroke-linecap:butt;stroke-linejoin:miter;stroke-miterlimit:4;stroke-opacity:1;stroke-dasharray:none"
     d="m 290.89886,242.7163 c -76.76422,0 -76.76422,0 -76.76422,0 l -47.60559,-27.4851"
     id="path3854"
     inkscape:connector-curvature="0" />
  <flowRoot
     xml:space="preserve"
     id="flowRoot3871"
     style="font-size:11.92584133px;font-style:normal;font-weight:normal;line-height:125%;letter-spacing:0px;word-spacing:0px;fill:#000000;fill-opacity:1;stroke:none;font-family:Sans"
     transform="matrix(1.1739214,0,0,1.1739214,-53.98135,-19.304277)"><flowRegion
       id="flowRegion3873"><rect
         id="rect3875"
         width="154.21751"
         height="18.262598"
         x="56.816975"
         y="151.17374"
         style="font-size:11.92584133px" /></flowRegion><flowPara
       id="flowPara3877">Guard Relay Encryption</flowPara></flowRoot>  <flowRoot
     xml:space="preserve"
     id="flowRoot3871-4"
     style="font-size:11.92584133px;font-style:normal;font-weight:normal;line-height:125%;letter-spacing:0px;word-spacing:0px;fill:#000000;fill-opacity:1;stroke:none;font-family:Sans"
     transform="matrix(1.1739214,0,0,1.1739214,-53.0737,2.6349531)"><flowRegion
       id="flowRegion3873-8"><rect
         id="rect3875-8"
         width="154.21751"
         height="18.262598"
         x="56.816975"
         y="151.17374"
         style="font-size:11.92584133px" /></flowRegion><flowPara
       id="flowPara3877-2">Middle Relay Encryption</flowPara></flowRoot>  <flowRoot
     xml:space="preserve"
     id="flowRoot3871-45"
     style="font-size:11.92584133px;font-style:normal;font-weight:normal;line-height:125%;letter-spacing:0px;word-spacing:0px;fill:#000000;fill-opacity:1;stroke:none;font-family:Sans"
     transform="matrix(1.1739214,0,0,1.1739214,-52.35628,29.179592)"><flowRegion
       id="flowRegion3873-5"><rect
         id="rect3875-1"
         width="154.21751"
         height="18.262598"
         x="56.816975"
         y="151.17374"
         style="font-size:11.92584133px" /></flowRegion><flowPara
       id="flowPara3877-7">Exit Relay Encryption</flowPara></flowRoot></svg>
