<?xml version="1.0" encoding="UTF-8"?>
<svg width="1000px" height="300px" viewBox="0 0 1000 300" version="1.1" xmlns="http://www.w3.org/2000/svg" xmlns:xlink="http://www.w3.org/1999/xlink">
    <!-- Generator: Sketch 57.1 (83088) - https://sketch.com -->
    <title>blackhat_python</title>
    <desc>Created with Sketch.</desc>
    <g id="Page-1" stroke="none" stroke-width="1" fill="none" fill-rule="evenodd">
        <g id="blackhat_python">
            <rect id="rect3955" fill="#2C5282" fill-rule="nonzero" x="0" y="0" width="1000" height="300" rx="5"></rect>
            <path d="M500,50.00029 L412.5,100.00029 L412.5,200.0003 L500,250.0003 L587.5,200.0003 L587.5,100.00029 L500,50.00029 Z M499.38037,64.6323 L574.60589,107.6376 L574.60589,193.6189 L499.38037,236.6095 L424.15486,193.6189 L424.15486,107.6376 L499.38037,64.6323 L499.38037,64.6323 Z" id="path3075" fill="#FFFFFF" fill-rule="nonzero"></path>
            <g id="g4170" transform="translate(466.000000, 119.000000)" fill="#FFFFFF">
                <g id="g3980">
                    <path d="M45.9074793,31.2947717 C51.0996024,28.92575 51.8734092,10.8937418 48.810257,5.58261312 C44.8089142,-1.35091198 25.7885033,0.0414431791 19.7824798,4.99742037 C19.0928696,7.45926572 19.1650381,11.9269097 19.197113,15.4784243 L38.0491308,15.4784243 L38.0491308,17.1411788 L19.2011224,17.1411788 C19.2011224,17.1653937 10.8095288,17.1936444 10.8095288,17.1936444 C-3.66025681,17.1936444 -3.3595547,48.8263392 15.7330247,48.8263392 C15.7330247,48.8263392 16.434663,41.8201695 17.6615276,38.309013 C21.4503742,27.4728577 37.3675393,35.1933661 45.9074793,31.2947717 Z M26.1693927,12.9116478 C23.9963187,12.9116478 22.236209,11.1399263 22.236209,8.94848037 C22.236209,6.76107024 23.9963187,4.98531294 26.1693927,4.98531294 C28.346476,4.98531294 30.1065925,6.76107024 30.1065925,8.94848037 C30.110595,11.1358905 28.346476,12.9116478 26.1693927,12.9116478 Z" id="path3982"></path>
                    <path d="M52.9715479,17.8263392 C52.9715479,17.8263392 52.4749077,24.8361032 51.2591325,28.343003 C47.5045328,39.1744403 31.7352138,31.4584536 23.268492,35.3568025 C18.1272728,37.725675 17.3525142,55.7565475 20.3919521,61.0673416 C24.3531541,68.0044656 43.2016422,66.6121981 49.1573513,61.6524975 C49.8407282,59.1948428 49.769212,54.7274802 49.737427,51.1761893 L31.0518369,51.1761893 L31.0518369,49.5135395 L49.7294808,49.5135395 C49.7294808,49.4893261 58.9352031,49.4610772 58.9352031,49.4610772 C72.149805,49.4610772 73.3337952,17.8263392 52.9715479,17.8263392 Z M42.1567113,53.0527237 C44.3101431,53.0527237 46.0583166,54.8243336 46.0583166,57.0156415 C46.0583166,59.2029139 44.3101431,60.9745238 42.1567113,60.9745238 C40.0032795,60.9745238 38.2590792,59.2029139 38.2590792,57.0156415 C38.2590792,54.8243336 40.0032795,53.0527237 42.1567113,53.0527237 Z" id="path3984"></path>
                </g>
            </g>
        </g>
    </g>
</svg>