<?xml version="1.0" encoding="UTF-8" standalone="no"?>
<!-- Created with Inkscape (http://www.inkscape.org/) -->

<svg
   xmlns:dc="http://purl.org/dc/elements/1.1/"
   xmlns:cc="http://creativecommons.org/ns#"
   xmlns:rdf="http://www.w3.org/1999/02/22-rdf-syntax-ns#"
   xmlns:svg="http://www.w3.org/2000/svg"
   xmlns="http://www.w3.org/2000/svg"
   xmlns:sodipodi="http://sodipodi.sourceforge.net/DTD/sodipodi-0.dtd"
   xmlns:inkscape="http://www.inkscape.org/namespaces/inkscape"
   width="1000"
   height="300"
   id="svg3063"
   version="1.1"
   inkscape:version="0.48.4 r9939"
   sodipodi:docname="dumpmon_header.svg">
  <defs
     id="defs3065">
    <inkscape:path-effect
       effect="spiro"
       id="path-effect4377"
       is_visible="true" />
  </defs>
  <sodipodi:namedview
     id="base"
     pagecolor="#ffffff"
     bordercolor="#666666"
     borderopacity="1.0"
     inkscape:pageopacity="0.0"
     inkscape:pageshadow="2"
     inkscape:zoom="0.8103569"
     inkscape:cx="447.28927"
     inkscape:cy="159.44292"
     inkscape:current-layer="g3170"
     inkscape:document-units="px"
     showgrid="false"
     inkscape:window-width="1366"
     inkscape:window-height="705"
     inkscape:window-x="-8"
     inkscape:window-y="-8"
     inkscape:window-maximized="1" />
  <metadata
     id="metadata3068">
    <rdf:RDF>
      <cc:Work
         rdf:about="">
        <dc:format>image/svg+xml</dc:format>
        <dc:type
           rdf:resource="http://purl.org/dc/dcmitype/StillImage" />
        <dc:title></dc:title>
      </cc:Work>
    </rdf:RDF>
  </metadata>
  <g
     id="layer1"
     inkscape:label="Layer 1"
     inkscape:groupmode="layer"
     transform="translate(0,-900)">
    <rect
       style="fill:#1b86bc;fill-opacity:1"
       id="rect3955"
       width="1000"
       height="300"
       x="0"
       y="900"
       ry="6" />
    <path
       style="fill:#ffffff"
       d="m 500,950.00029 -87.5,50.00001 0,100 87.5,50 87.5,-50 0,-100 -87.5,-50.00001 z m -0.61963,14.63201 75.22552,43.0053 0,85.9813 -75.22552,42.9906 -75.22551,-42.9906 0,-85.9813 75.22551,-43.0053 z"
       id="path3075"
       inkscape:connector-curvature="0" />
    <path
       sodipodi:type="arc"
       style="fill:#ffffff"
       id="path3012-4"
       sodipodi:cx="157.5838"
       sodipodi:cy="524.05243"
       sodipodi:rx="25.253813"
       sodipodi:ry="25.253813"
       d="m 182.83761,524.05243 a 25.253813,25.253813 0 1 1 -50.50762,0 25.253813,25.253813 0 1 1 50.50762,0 z"
       transform="matrix(0.82940562,0,0,0.82598402,323.1936,632.33985)" />
    <rect
       style="fill:#ffffff"
       id="rect3014-0"
       width="91.323051"
       height="41.301308"
       x="453.47559"
       y="1044.7567"
       ry="1.8171649" />
    <path
       sodipodi:type="arc"
       style="fill:#ffffff"
       id="path3012-1-9"
       sodipodi:cx="157.5838"
       sodipodi:cy="524.05243"
       sodipodi:rx="25.253813"
       sodipodi:ry="25.253813"
       d="m 182.83761,524.05243 a 25.253813,25.253813 0 1 1 -50.50762,0 25.253813,25.253813 0 1 1 50.50762,0 z"
       transform="matrix(0.82940562,0,0,0.82598402,412.42209,632.33982)" />
    <path
       sodipodi:type="arc"
       style="fill:#ffffff"
       id="path3034-4"
       sodipodi:cx="224.25386"
       sodipodi:cy="609.15778"
       sodipodi:rx="48.487324"
       sodipodi:ry="50.255089"
       d="m 272.74118,609.15778 a 48.487324,50.255089 0 1 1 -96.97464,0 48.487324,50.255089 0 1 1 96.97464,0 z"
       transform="matrix(0.82940562,0,0,0.82598402,323.1936,540.14198)" />
    <path
       sodipodi:type="arc"
       style="fill:#ffffff"
       id="path3038-8"
       sodipodi:cx="167.68532"
       sodipodi:cy="599.81384"
       sodipodi:rx="16.162441"
       sodipodi:ry="19.192898"
       d="m 183.84776,599.81384 a 16.162441,19.192898 0 1 1 -32.32488,0 16.162441,19.192898 0 1 1 32.32488,0 z"
       transform="matrix(0.82940562,0,0,0.82598402,330.73404,553.90908)" />
    <g
       id="g3170"
       transform="translate(296.73077,447.3915)">
      <rect
         ry="4.686728"
         transform="matrix(0.70710678,-0.70710678,0.70710678,0.70710678,0,0)"
         y="571.10608"
         x="-287.98557"
         height="41.465374"
         width="7.608325"
         id="rect2985"
         style="fill:#1b86bc;fill-opacity:1" />
      <path
         transform="matrix(2.130331,0,0,2.130331,-287.64616,-518.28172)"
         d="m 237.5,525.57648 c 0,4.93111 -3.99746,8.92857 -8.92857,8.92857 -4.93112,0 -8.92858,-3.99746 -8.92858,-8.92857 0,-4.93112 3.99746,-8.92857 8.92858,-8.92857 4.93111,0 8.92857,3.99745 8.92857,8.92857 z"
         sodipodi:ry="8.9285717"
         sodipodi:rx="8.9285717"
         sodipodi:cy="525.57648"
         sodipodi:cx="228.57143"
         id="path2987"
         style="fill:#1b86bc;fill-opacity:1"
         sodipodi:type="arc" />
      <path
         transform="matrix(2.130331,0,0,2.130331,-313.13405,-531.09121)"
         d="m 247.50001,531.82648 c 0,3.84627 -3.11802,6.96428 -6.96429,6.96428 -3.84627,0 -6.96429,-3.11801 -6.96429,-6.96428 0,-3.84627 3.11802,-6.96429 6.96429,-6.96429 3.84627,0 6.96429,3.11802 6.96429,6.96429 z"
         sodipodi:ry="6.9642859"
         sodipodi:rx="6.9642859"
         sodipodi:cy="531.82648"
         sodipodi:cx="240.53572"
         id="path2991"
         style="fill:#ffffff"
         sodipodi:type="arc" />
    </g>
    <flowRoot
       xml:space="preserve"
       id="flowRoot3097"
       style="font-size:40px;font-style:normal;font-weight:normal;line-height:125%;letter-spacing:0px;word-spacing:0px;fill:#000000;fill-opacity:1;stroke:none;font-family:Sans"
       transform="translate(296.73077,447.3915)"><flowRegion
         id="flowRegion3099"><rect
           id="rect3101"
           width="56.568542"
           height="47.982246"
           x="100.51018"
           y="458.39249" /></flowRegion><flowPara
         id="flowPara3103" /></flowRoot>  </g>
</svg>
