<?xml version="1.0" encoding="UTF-8" standalone="no"?>
<!-- Created with Inkscape (http://www.inkscape.org/) -->

<svg
   xmlns:dc="http://purl.org/dc/elements/1.1/"
   xmlns:cc="http://creativecommons.org/ns#"
   xmlns:rdf="http://www.w3.org/1999/02/22-rdf-syntax-ns#"
   xmlns:svg="http://www.w3.org/2000/svg"
   xmlns="http://www.w3.org/2000/svg"
   xmlns:sodipodi="http://sodipodi.sourceforge.net/DTD/sodipodi-0.dtd"
   xmlns:inkscape="http://www.inkscape.org/namespaces/inkscape"
   width="1000"
   height="300"
   id="svg3063"
   version="1.1"
   inkscape:version="0.48.4 r9939"
   sodipodi:docname="elastichoney.svg"
   inkscape:export-filename="C:\Users\jmwri_000\Documents\jordan-wright.github.com\source\images\headers\tracking_elk.png"
   inkscape:export-xdpi="90"
   inkscape:export-ydpi="90">
  <defs
     id="defs3065">
    <inkscape:path-effect
       effect="spiro"
       id="path-effect4377"
       is_visible="true" />
  </defs>
  <sodipodi:namedview
     id="base"
     pagecolor="#ffffff"
     bordercolor="#666666"
     borderopacity="1.0"
     inkscape:pageopacity="0.0"
     inkscape:pageshadow="2"
     inkscape:zoom="1.1460177"
     inkscape:cx="474.24702"
     inkscape:cy="150.53661"
     inkscape:current-layer="layer1"
     inkscape:document-units="px"
     showgrid="false"
     inkscape:window-width="1366"
     inkscape:window-height="705"
     inkscape:window-x="-8"
     inkscape:window-y="-8"
     inkscape:window-maximized="1" />
  <metadata
     id="metadata3068">
    <rdf:RDF>
      <cc:Work
         rdf:about="">
        <dc:format>image/svg+xml</dc:format>
        <dc:type
           rdf:resource="http://purl.org/dc/dcmitype/StillImage" />
        <dc:title />
      </cc:Work>
    </rdf:RDF>
  </metadata>
  <g
     id="layer1"
     inkscape:label="Layer 1"
     inkscape:groupmode="layer"
     transform="translate(0,-900)">
    <rect
       style="fill:#74b73f;fill-opacity:0.94117647"
       id="rect3955"
       width="1000"
       height="300"
       x="0"
       y="900"
       ry="6" />
    <path
       style="fill:#ffffff"
       d="m 500,950.00029 -87.5,50.00001 0,100 87.5,50 87.5,-50 0,-100 -87.5,-50.00001 z m -0.61963,14.63201 75.22552,43.0053 0,85.9813 -75.22552,42.9906 -75.22551,-42.9906 0,-85.9813 75.22551,-43.0053 z"
       id="path3075"
       inkscape:connector-curvature="0" />
    <g
       id="g3104"
       transform="matrix(0.2632707,0,0,0.2632707,443.1646,992.83395)" />
    <g
       id="g3106"
       transform="matrix(0.2632707,0,0,0.2632707,443.1646,992.83395)" />
    <g
       id="g3108"
       transform="matrix(0.2632707,0,0,0.2632707,443.1646,992.83395)" />
    <g
       id="g3110"
       transform="matrix(0.2632707,0,0,0.2632707,443.1646,992.83395)" />
    <g
       id="g3112"
       transform="matrix(0.2632707,0,0,0.2632707,443.1646,992.83395)" />
    <g
       id="g3114"
       transform="matrix(0.2632707,0,0,0.2632707,443.1646,992.83395)" />
    <g
       id="g3116"
       transform="matrix(0.2632707,0,0,0.2632707,443.1646,992.83395)" />
    <g
       id="g3118"
       transform="matrix(0.2632707,0,0,0.2632707,443.1646,992.83395)" />
    <g
       id="g3120"
       transform="matrix(0.2632707,0,0,0.2632707,443.1646,992.83395)" />
    <g
       id="g3122"
       transform="matrix(0.2632707,0,0,0.2632707,443.1646,992.83395)" />
    <g
       id="g3124"
       transform="matrix(0.2632707,0,0,0.2632707,443.1646,992.83395)" />
    <g
       id="g3126"
       transform="matrix(0.2632707,0,0,0.2632707,443.1646,992.83395)" />
    <g
       id="g3128"
       transform="matrix(0.2632707,0,0,0.2632707,443.1646,992.83395)" />
    <g
       id="g3130"
       transform="matrix(0.2632707,0,0,0.2632707,443.1646,992.83395)" />
    <g
       id="g3132"
       transform="matrix(0.2632707,0,0,0.2632707,443.1646,992.83395)" />
    <g
       id="g3493"
       transform="translate(3.0850604,-1.2340242)">
      <g
         style="fill:#ffffff"
         transform="matrix(0.41458828,0,0,0.41458828,455.26564,1007.4028)"
         id="g3371">
        <g
           style="fill:#ffffff"
           id="g3327">
          <g
             style="fill:#ffffff"
             id="g3329">
            <path
               style="fill:#ffffff"
               inkscape:connector-curvature="0"
               d="m 173.514,48.352 c -0.131,-0.173 -0.275,-0.328 -0.43,-0.468 0.039,-0.35 0.061,-0.703 0.061,-1.059 0,-3.269 -4.041,-9.544 -7.519,-14.34 4.825,-3.429 7.519,-8.48 7.519,-14.32 C 173.145,7.809 164.95,0 154.081,0 H 48.566 C 37.697,0 29.501,7.809 29.501,18.165 c 0,5.715 2.58,10.673 7.21,14.097 -0.892,1.01 -1.915,2.195 -2.945,3.444 -5.6,6.794 -6.372,9.359 -6.372,11.119 0,1.174 0.219,2.315 0.628,3.403 -3.014,4.715 -4.6,10.133 -4.6,15.797 v 107.4 c 0,16.216 13.194,29.409 29.411,29.409 h 97.168 c 16.216,0 29.41,-13.193 29.41,-29.409 v -107.4 c 0.001,-6.435 -2.038,-12.546 -5.897,-17.673 z M 43.44,34.867 h 100.876 c 1.865,0 3.375,-1.511 3.375,-3.375 0,-1.864 -1.51,-3.375 -3.375,-3.375 0,0 -99.439,0 -101.508,0 -2.069,0 -6.558,-4.575 -6.558,-9.952 0,-6.508 5.295,-11.415 12.315,-11.415 H 154.08 c 7.021,0 12.315,4.907 12.315,11.415 0,5.744 -3.914,8.751 -7.197,10.262 -1.44,0.663 -2.225,2.239 -1.885,3.788 0.151,0.694 0.51,1.299 1.004,1.755 4.086,5.376 7.793,11.304 8.076,12.926 -0.009,0.371 -0.084,0.73 -0.228,1.068 l 0,0 c -0.46,1.088 -1.521,1.79 -2.703,1.79 -1.616,0 -2.931,-1.314 -2.931,-2.929 0,-5.338 -4.344,-9.681 -9.682,-9.681 -5.339,0 -9.682,4.343 -9.682,9.681 0,1.615 -1.312,2.929 -2.927,2.929 -1.616,0 -2.933,-1.314 -2.933,-2.929 0,-5.338 -4.343,-9.681 -9.681,-9.681 -5.338,0 -9.683,4.343 -9.683,9.681 0,1.615 -1.314,2.929 -2.93,2.929 -1.617,0 -2.932,-1.314 -2.932,-2.929 0,-5.338 -4.344,-9.681 -9.681,-9.681 -5.339,0 -9.682,4.343 -9.682,9.681 0,1.615 -1.315,2.929 -2.932,2.929 -1.616,0 -2.931,-1.314 -2.931,-2.929 0,-5.338 -4.341,-9.681 -9.677,-9.681 -5.341,0 -9.687,4.343 -9.687,9.681 0,1.615 -1.313,2.929 -2.926,2.929 -1.616,0 -2.931,-1.314 -2.931,-2.929 0,-5.338 -4.344,-9.681 -9.682,-9.681 -5.393,0 -9.95,4.433 -9.95,9.681 0,1.615 -1.315,2.929 -2.931,2.929 -1.182,0 -2.243,-0.703 -2.703,-1.79 l 0,0 C 34.235,47.65 34.16,47.317 34.143,46.973 34.638,45.288 38.734,39.969 43.44,34.867 z m 129.222,138.557 c 0,12.494 -10.165,22.659 -22.66,22.659 H 52.834 c -12.495,0 -22.661,-10.165 -22.661,-22.659 v -107.4 c 0,-3.724 0.889,-7.309 2.59,-10.536 1.313,0.653 2.781,1.015 4.313,1.015 5.338,0 9.681,-4.342 9.681,-9.679 0,-1.534 1.525,-2.931 3.2,-2.931 1.617,0 2.932,1.315 2.932,2.931 0,5.337 4.343,9.679 9.681,9.679 5.335,0 9.676,-4.342 9.676,-9.679 0,-1.616 1.318,-2.931 2.937,-2.931 1.614,0 2.927,1.315 2.927,2.931 0,5.337 4.343,9.679 9.681,9.679 5.339,0 9.682,-4.342 9.682,-9.679 0,-1.616 1.315,-2.931 2.932,-2.931 1.617,0 2.931,1.315 2.931,2.931 0,5.337 4.344,9.679 9.682,9.679 5.338,0 9.68,-4.342 9.68,-9.679 0,-1.616 1.316,-2.931 2.933,-2.931 1.617,0 2.931,1.315 2.931,2.931 0,5.337 4.344,9.679 9.683,9.679 5.336,0 9.677,-4.342 9.677,-9.679 0,-1.616 1.314,-2.931 2.932,-2.931 1.615,0 2.932,1.315 2.932,2.931 0,5.337 4.343,9.679 9.681,9.679 2.231,0 4.329,-0.762 6.003,-2.084 2.094,3.496 3.194,7.462 3.194,11.605 v 107.4 l -0.002,0 z"
               id="path3331" />
            <path
               style="fill:#ffffff"
               inkscape:connector-curvature="0"
               d="M 159.401,79.239 H 43.435 c -1.864,0 -3.375,1.511 -3.375,3.375 v 75.151 c 0,1.863 1.511,3.375 3.375,3.375 h 115.966 c 1.863,0 3.375,-1.512 3.375,-3.375 V 82.614 c 0,-1.864 -1.512,-3.375 -3.375,-3.375 z m -3.375,75.152 H 46.81 V 85.989 h 109.216 v 68.402 z"
               id="path3333" />
          </g>
        </g>
        <g
           style="fill:#ffffff"
           id="g3335" />
        <g
           style="fill:#ffffff"
           id="g3337" />
        <g
           style="fill:#ffffff"
           id="g3339" />
        <g
           style="fill:#ffffff"
           id="g3341" />
        <g
           style="fill:#ffffff"
           id="g3343" />
        <g
           style="fill:#ffffff"
           id="g3345" />
        <g
           style="fill:#ffffff"
           id="g3347" />
        <g
           style="fill:#ffffff"
           id="g3349" />
        <g
           style="fill:#ffffff"
           id="g3351" />
        <g
           style="fill:#ffffff"
           id="g3353" />
        <g
           style="fill:#ffffff"
           id="g3355" />
        <g
           style="fill:#ffffff"
           id="g3357" />
        <g
           style="fill:#ffffff"
           id="g3359" />
        <g
           style="fill:#ffffff"
           id="g3361" />
        <g
           style="fill:#ffffff"
           id="g3363" />
      </g>
      <g
         style="fill:#ffffff"
         transform="matrix(0.16354357,0,0,0.16354357,482.98482,1042.6012)"
         id="g3474">
        <g
           style="fill:#ffffff"
           id="g3434">
          <path
             style="fill:#ffffff"
             inkscape:connector-curvature="0"
             d="M 152.138,94.674 122.521,77.572 V 43.646 c 0,-1.117 -0.597,-2.146 -1.56,-2.7 L 91.636,24.024 V 3.117 C 91.636,1.388 90.238,0 88.519,0 86.798,0 85.4,1.388 85.4,3.117 V 24.024 L 56.075,40.952 c -0.959,0.555 -1.559,1.583 -1.559,2.701 V 77.579 L 24.899,94.686 C 23.94,95.235 23.34,96.27 23.34,97.377 v 35.671 c 0,1.108 0.6,2.144 1.559,2.691 l 29.325,16.928 v 21.251 c 0,1.729 1.397,3.118 3.118,3.118 1.721,0 3.118,-1.389 3.118,-3.118 v -21.251 l 28.059,-16.197 28.059,16.197 v 21.251 c 0,1.729 1.4,3.118 3.117,3.118 1.718,0 3.118,-1.389 3.118,-3.118 v -21.251 l 29.325,-16.928 c 0.962,-0.548 1.559,-1.583 1.559,-2.691 V 97.365 c -0.001,-1.108 -0.597,-2.143 -1.559,-2.691 z M 85.108,131.239 57.342,147.26 29.575,131.239 V 99.168 L 57.342,83.141 85.109,99.168 v 32.071 z M 60.752,77.502 V 45.44 L 88.519,29.41 116.286,45.44 V 77.502 L 88.519,93.535 60.752,77.502 z m 86.709,53.737 -27.767,16.021 -27.766,-16.021 V 99.168 l 27.766,-16.027 27.767,16.027 v 32.071 z"
             id="path3436" />
        </g>
        <g
           style="fill:#ffffff"
           id="g3438" />
        <g
           style="fill:#ffffff"
           id="g3440" />
        <g
           style="fill:#ffffff"
           id="g3442" />
        <g
           style="fill:#ffffff"
           id="g3444" />
        <g
           style="fill:#ffffff"
           id="g3446" />
        <g
           style="fill:#ffffff"
           id="g3448" />
        <g
           style="fill:#ffffff"
           id="g3450" />
        <g
           style="fill:#ffffff"
           id="g3452" />
        <g
           style="fill:#ffffff"
           id="g3454" />
        <g
           style="fill:#ffffff"
           id="g3456" />
        <g
           style="fill:#ffffff"
           id="g3458" />
        <g
           style="fill:#ffffff"
           id="g3460" />
        <g
           style="fill:#ffffff"
           id="g3462" />
        <g
           style="fill:#ffffff"
           id="g3464" />
        <g
           style="fill:#ffffff"
           id="g3466" />
      </g>
    </g>
  </g>
</svg>
