<?xml version="1.0" encoding="UTF-8" standalone="no"?>
<!-- Created with Inkscape (http://www.inkscape.org/) -->

<svg
   xmlns:dc="http://purl.org/dc/elements/1.1/"
   xmlns:cc="http://creativecommons.org/ns#"
   xmlns:rdf="http://www.w3.org/1999/02/22-rdf-syntax-ns#"
   xmlns:svg="http://www.w3.org/2000/svg"
   xmlns="http://www.w3.org/2000/svg"
   xmlns:sodipodi="http://sodipodi.sourceforge.net/DTD/sodipodi-0.dtd"
   xmlns:inkscape="http://www.inkscape.org/namespaces/inkscape"
   width="1000"
   height="300"
   id="svg3063"
   version="1.1"
   inkscape:version="0.48.4 r9939"
   sodipodi:docname="tracking_elk.svg"
   inkscape:export-filename="C:\Users\jmwri_000\Documents\jordan-wright.github.com\source\images\headers\tracking_elk.png"
   inkscape:export-xdpi="90"
   inkscape:export-ydpi="90">
  <defs
     id="defs3065">
    <inkscape:path-effect
       effect="spiro"
       id="path-effect4377"
       is_visible="true" />
  </defs>
  <sodipodi:namedview
     id="base"
     pagecolor="#ffffff"
     bordercolor="#666666"
     borderopacity="1.0"
     inkscape:pageopacity="0.0"
     inkscape:pageshadow="2"
     inkscape:zoom="0.8103569"
     inkscape:cx="470.17976"
     inkscape:cy="169.92737"
     inkscape:current-layer="layer1"
     inkscape:document-units="px"
     showgrid="false"
     inkscape:window-width="1366"
     inkscape:window-height="705"
     inkscape:window-x="-8"
     inkscape:window-y="-8"
     inkscape:window-maximized="1" />
  <metadata
     id="metadata3068">
    <rdf:RDF>
      <cc:Work
         rdf:about="">
        <dc:format>image/svg+xml</dc:format>
        <dc:type
           rdf:resource="http://purl.org/dc/dcmitype/StillImage" />
        <dc:title></dc:title>
      </cc:Work>
    </rdf:RDF>
  </metadata>
  <g
     id="layer1"
     inkscape:label="Layer 1"
     inkscape:groupmode="layer"
     transform="translate(0,-900)">
    <rect
       style="fill:#74b73f;fill-opacity:0.94117647"
       id="rect3955"
       width="1000"
       height="300"
       x="0"
       y="900"
       ry="6" />
    <path
       style="fill:#ffffff"
       d="m 500,950.00029 -87.5,50.00001 0,100 87.5,50 87.5,-50 0,-100 -87.5,-50.00001 z m -0.61963,14.63201 75.22552,43.0053 0,85.9813 -75.22552,42.9906 -75.22551,-42.9906 0,-85.9813 75.22551,-43.0053 z"
       id="path3075"
       inkscape:connector-curvature="0" />
    <g
       id="g3096"
       transform="matrix(0.2632707,0,0,0.2632707,443.1646,992.83395)"
       style="fill:#ffffff">
	<path
   inkscape:connector-curvature="0"
   d="M 269.723,47.545 H 160.368 c -3.844,0 -6.962,3.119 -6.962,6.965 v 321.07 c 0,3.846 3.118,6.965 6.962,6.965 h 109.355 c 3.844,0 6.962,-3.119 6.962,-6.965 V 54.51 c 0,-3.846 -3.118,-6.965 -6.962,-6.965 z m -54.678,273.833 c -13.439,0 -24.333,-10.895 -24.333,-24.333 0,-13.438 10.894,-24.333 24.333,-24.333 13.439,0 24.333,10.895 24.333,24.333 0,13.438 -10.894,24.333 -24.333,24.333 z m 44.753,-124.206 c 0,3.842 -3.119,6.962 -6.968,6.962 h -75.569 c -3.849,0 -6.968,-3.12 -6.968,-6.962 v -6.962 c 0,-3.855 3.119,-6.972 6.968,-6.972 h 75.569 c 3.849,0 6.968,3.117 6.968,6.972 v 6.962 z m 0,-34.823 c 0,3.844 -3.119,6.963 -6.968,6.963 h -75.569 c -3.849,0 -6.968,-3.119 -6.968,-6.963 v -6.972 c 0,-3.844 3.119,-6.963 6.968,-6.963 h 75.569 c 3.849,0 6.968,3.119 6.968,6.963 v 6.972 z m 0,-34.832 c 0,3.851 -3.119,6.969 -6.968,6.969 h -75.569 c -3.849,0 -6.968,-3.117 -6.968,-6.969 v -6.962 c 0,-3.843 3.119,-6.962 6.968,-6.962 h 75.569 c 3.849,0 6.968,3.119 6.968,6.962 v 6.962 z m 0,-34.821 c 0,3.843 -3.119,6.962 -6.968,6.962 h -75.569 c -3.849,0 -6.968,-3.119 -6.968,-6.962 v -6.964 c 0,-3.852 3.119,-6.969 6.968,-6.969 h 75.569 c 3.849,0 6.968,3.117 6.968,6.969 v 6.964 z"
   id="path3098"
   style="fill:#ffffff" />

	<path
   inkscape:connector-curvature="0"
   d="m 430.09,84.614 c 0,-3.284 -2.773,-6.202 -6.196,-6.511 -32.422,-2.948 -64.846,-5.896 -97.269,-8.834 -0.357,-0.034 -1.369,-0.005 -2.45,0.303 l -37.908,9.574 v 297.806 l 39.226,5.548 c 0.477,0.103 1.093,0 1.131,-0.002 32.423,-2.946 64.847,-6.228 97.27,-9.17 3.422,-0.314 6.197,-3.226 6.197,-6.512 -0.003,-75.732 -0.001,-206.463 -0.001,-282.202 z m -94.636,20.404 c 0,-3.519 2.773,-6.179 6.196,-5.939 22.407,1.583 44.813,3.167 67.221,4.75 3.423,0.24 6.195,3.126 6.195,6.455 v 6.012 c 0,3.317 -2.772,5.858 -6.195,5.665 -22.407,-1.282 -44.814,-2.563 -67.221,-3.836 -3.422,-0.197 -6.196,-3.214 -6.196,-6.731 v -6.376 z m 79.612,101.515 c 0,3.316 -2.773,6.046 -6.196,6.076 -22.407,0.243 -44.814,0.489 -67.221,0.729 -3.422,0.034 -6.196,-2.785 -6.196,-6.31 v -6.372 c 0,-3.526 2.773,-6.37 6.196,-6.365 22.406,0.061 44.813,0.132 67.221,0.186 3.423,0.013 6.196,2.71 6.196,6.038 v 6.018 z m -6.196,-24.142 c -22.407,-0.264 -44.814,-0.526 -67.221,-0.793 -3.422,-0.04 -6.196,-2.925 -6.196,-6.452 v -6.371 c 0,-3.525 2.773,-6.307 6.196,-6.217 22.407,0.562 44.813,1.131 67.221,1.705 3.423,0.084 6.195,2.848 6.195,6.177 0,2.406 10e-4,3.608 10e-4,6.014 0,3.317 -2.773,5.982 -6.196,5.937 z m 6.196,-36.015 c 0,3.316 -2.773,5.912 -6.196,5.801 -22.407,-0.773 -44.814,-1.547 -67.221,-2.318 -3.422,-0.115 -6.196,-3.068 -6.196,-6.589 v -6.377 c 0,-3.52 2.773,-6.235 6.196,-6.071 22.407,1.067 44.813,2.147 67.221,3.226 3.423,0.165 6.196,2.983 6.196,6.312 v 6.016 z"
   id="path3100"
   style="fill:#ffffff" />

	<path
   inkscape:connector-curvature="0"
   d="m 103.467,69.269 c -32.424,2.938 -64.848,5.886 -97.271,8.834 -3.422,0.309 -6.195,3.227 -6.195,6.511 0,75.739 0.002,206.471 -0.001,282.202 0,3.286 2.774,6.198 6.196,6.512 32.424,2.941 64.848,6.224 97.271,9.17 0.037,0.002 0.653,0.105 1.131,0.002 l 39.226,-5.548 V 79.146 l -37.908,-9.574 c -1.082,-0.308 -2.094,-0.337 -2.449,-0.303 z m -8.83,137.759 c 0,3.524 -2.773,6.344 -6.195,6.31 -22.407,-0.239 -44.814,-0.485 -67.222,-0.729 -3.422,-0.03 -6.196,-2.76 -6.196,-6.076 v -6.018 c 0,-3.328 2.773,-6.025 6.196,-6.038 22.408,-0.055 44.815,-0.125 67.222,-0.186 3.422,-0.005 6.195,2.839 6.195,6.365 v 6.372 z m 0,-31.882 c 0,3.527 -2.773,6.412 -6.195,6.452 -22.407,0.267 -44.814,0.529 -67.222,0.793 -3.422,0.045 -6.196,-2.62 -6.196,-5.938 0,-2.405 0.001,-3.607 0.001,-6.014 0,-3.329 2.772,-6.093 6.195,-6.177 22.408,-0.574 44.814,-1.144 67.222,-1.705 3.422,-0.09 6.195,2.691 6.195,6.217 v 6.372 z m 0,-31.876 c 0,3.521 -2.773,6.474 -6.195,6.589 -22.407,0.771 -44.814,1.545 -67.222,2.318 -3.422,0.111 -6.196,-2.484 -6.196,-5.801 v -6.017 c 0,-3.328 2.773,-6.146 6.196,-6.312 22.408,-1.078 44.814,-2.158 67.222,-3.226 3.422,-0.164 6.195,2.552 6.195,6.071 v 6.378 z m 0,-31.877 c 0,3.518 -2.773,6.534 -6.195,6.731 -22.407,1.273 -44.814,2.554 -67.222,3.836 -3.422,0.193 -6.195,-2.348 -6.195,-5.665 v -6.012 c 0,-3.329 2.772,-6.215 6.195,-6.455 22.408,-1.583 44.814,-3.167 67.222,-4.75 3.422,-0.239 6.195,2.421 6.195,5.939 v 6.376 z"
   id="path3102"
   style="fill:#ffffff" />

</g>
    <g
       id="g3104"
       transform="matrix(0.2632707,0,0,0.2632707,443.1646,992.83395)">
</g>
    <g
       id="g3106"
       transform="matrix(0.2632707,0,0,0.2632707,443.1646,992.83395)">
</g>
    <g
       id="g3108"
       transform="matrix(0.2632707,0,0,0.2632707,443.1646,992.83395)">
</g>
    <g
       id="g3110"
       transform="matrix(0.2632707,0,0,0.2632707,443.1646,992.83395)">
</g>
    <g
       id="g3112"
       transform="matrix(0.2632707,0,0,0.2632707,443.1646,992.83395)">
</g>
    <g
       id="g3114"
       transform="matrix(0.2632707,0,0,0.2632707,443.1646,992.83395)">
</g>
    <g
       id="g3116"
       transform="matrix(0.2632707,0,0,0.2632707,443.1646,992.83395)">
</g>
    <g
       id="g3118"
       transform="matrix(0.2632707,0,0,0.2632707,443.1646,992.83395)">
</g>
    <g
       id="g3120"
       transform="matrix(0.2632707,0,0,0.2632707,443.1646,992.83395)">
</g>
    <g
       id="g3122"
       transform="matrix(0.2632707,0,0,0.2632707,443.1646,992.83395)">
</g>
    <g
       id="g3124"
       transform="matrix(0.2632707,0,0,0.2632707,443.1646,992.83395)">
</g>
    <g
       id="g3126"
       transform="matrix(0.2632707,0,0,0.2632707,443.1646,992.83395)">
</g>
    <g
       id="g3128"
       transform="matrix(0.2632707,0,0,0.2632707,443.1646,992.83395)">
</g>
    <g
       id="g3130"
       transform="matrix(0.2632707,0,0,0.2632707,443.1646,992.83395)">
</g>
    <g
       id="g3132"
       transform="matrix(0.2632707,0,0,0.2632707,443.1646,992.83395)">
</g>
    <rect
       style="fill:#ffffff;fill-opacity:1;stroke:none"
       id="rect3185"
       width="28.963987"
       height="44.283783"
       x="484.9649"
       y="1009.1216"
       ry="6.5837836" />
    <g
       id="g3318"
       transform="matrix(0.68270133,0,0,0.68270133,484.33281,1018.113)"
       style="fill:#74b73f;fill-opacity:0.94117647">
      <g
         id="g3274"
         style="fill:#74b73f;fill-opacity:0.94117647">
	<g
   id="g3276"
   style="fill:#74b73f;fill-opacity:0.94117647">
		<path
   id="path3278"
   d="m 41.384,34.764 c -1.597,-0.697 -3.457,0.035 -4.152,1.635 -0.091,0.207 -0.157,0.423 -0.2,0.638 l -8.841,-3.847 8.84,-3.846 c 0.043,0.215 0.109,0.43 0.2,0.637 0.695,1.599 2.556,2.33 4.152,1.635 1.598,-0.693 2.33,-2.553 1.635,-4.15 -0.474,-1.09 -1.489,-1.775 -2.593,-1.883 0.674,-0.88 0.865,-2.091 0.391,-3.181 -0.694,-1.598 -2.554,-2.328 -4.151,-1.635 -1.599,0.695 -2.329,2.556 -1.635,4.153 0.092,0.209 0.203,0.403 0.33,0.582 L 22.939,30.904 10.516,25.502 c 0.128,-0.179 0.24,-0.373 0.331,-0.582 0.695,-1.598 -0.037,-3.458 -1.634,-4.153 -1.599,-0.693 -3.458,0.037 -4.152,1.635 -0.474,1.09 -0.284,2.301 0.391,3.181 -1.104,0.107 -2.12,0.793 -2.593,1.883 -0.695,1.598 0.037,3.457 1.634,4.15 1.597,0.695 3.457,-0.036 4.152,-1.635 0.091,-0.207 0.157,-0.422 0.2,-0.637 l 8.84,3.846 -8.842,3.846 C 8.8,36.821 8.734,36.606 8.643,36.397 7.948,34.798 6.088,34.067 4.491,34.762 c -1.597,0.694 -2.33,2.555 -1.634,4.151 0.473,1.09 1.489,1.774 2.593,1.883 -0.675,0.88 -0.865,2.091 -0.391,3.181 0.694,1.599 2.554,2.328 4.152,1.636 1.598,-0.697 2.33,-2.556 1.635,-4.153 -0.091,-0.21 -0.202,-0.402 -0.33,-0.581 l 12.422,-5.403 12.422,5.403 c -0.127,0.179 -0.238,0.371 -0.33,0.581 -0.694,1.598 0.037,3.456 1.635,4.153 1.598,0.692 3.458,-0.037 4.151,-1.636 0.475,-1.09 0.284,-2.301 -0.391,-3.181 1.104,-0.106 2.12,-0.793 2.593,-1.883 0.696,-1.597 -0.037,-3.456 -1.634,-4.149 z"
   inkscape:connector-curvature="0"
   style="fill:#74b73f;fill-opacity:0.94117647" />

		<path
   id="path3280"
   d="m 13.455,18.745 h 0.925 v 3.708 c 0,1.621 1.334,2.947 2.955,2.947 h 5.554 0.1 5.555 c 1.62,0 2.893,-1.326 2.893,-2.947 v -3.708 h 0.985 c 2.623,0 4.743,-2.126 4.743,-4.749 0,-4.084 -1.76,-7.971 -4.821,-10.672 C 31.042,2.176 27.475,0 22.941,0 18.209,0 14.832,2.174 13.53,3.324 10.468,6.025 8.71,9.912 8.71,13.996 c 10e-4,2.623 2.123,4.749 4.745,4.749 z M 26.168,8.107 h 5.396 c 0.328,0.476 0.52,1.094 0.52,1.739 0,1.776 -1.44,3.204 -3.218,3.204 -1.776,0 -3.218,-1.428 -3.218,-3.204 0,-0.645 0.192,-1.263 0.52,-1.739 z m -5.565,7.242 1.743,-2.98 c 0.123,-0.211 0.349,-0.339 0.592,-0.341 0.244,0.002 0.47,0.13 0.592,0.341 l 1.743,2.98 c 0.125,0.214 0.125,0.472 0.002,0.685 -0.123,0.215 -0.351,0.335 -0.598,0.335 h -1.689 -0.1 -1.689 c -0.248,0 -0.476,-0.12 -0.599,-0.335 -0.123,-0.214 -0.121,-0.472 0.003,-0.685 z M 14.312,8.107 h 5.397 c 0.328,0.476 0.519,1.094 0.519,1.739 0,1.776 -1.441,3.204 -3.217,3.204 -1.777,0 -3.217,-1.428 -3.217,-3.204 -0.001,-0.645 0.19,-1.263 0.518,-1.739 z"
   inkscape:connector-curvature="0"
   style="fill:#74b73f;fill-opacity:0.94117647" />

	</g>

</g>
      <g
         id="g3282"
         style="fill:#74b73f;fill-opacity:0.94117647">
</g>
      <g
         id="g3284"
         style="fill:#74b73f;fill-opacity:0.94117647">
</g>
      <g
         id="g3286"
         style="fill:#74b73f;fill-opacity:0.94117647">
</g>
      <g
         id="g3288"
         style="fill:#74b73f;fill-opacity:0.94117647">
</g>
      <g
         id="g3290"
         style="fill:#74b73f;fill-opacity:0.94117647">
</g>
      <g
         id="g3292"
         style="fill:#74b73f;fill-opacity:0.94117647">
</g>
      <g
         id="g3294"
         style="fill:#74b73f;fill-opacity:0.94117647">
</g>
      <g
         id="g3296"
         style="fill:#74b73f;fill-opacity:0.94117647">
</g>
      <g
         id="g3298"
         style="fill:#74b73f;fill-opacity:0.94117647">
</g>
      <g
         id="g3300"
         style="fill:#74b73f;fill-opacity:0.94117647">
</g>
      <g
         id="g3302"
         style="fill:#74b73f;fill-opacity:0.94117647">
</g>
      <g
         id="g3304"
         style="fill:#74b73f;fill-opacity:0.94117647">
</g>
      <g
         id="g3306"
         style="fill:#74b73f;fill-opacity:0.94117647">
</g>
      <g
         id="g3308"
         style="fill:#74b73f;fill-opacity:0.94117647">
</g>
      <g
         id="g3310"
         style="fill:#74b73f;fill-opacity:0.94117647">
</g>
    </g>
  </g>
</svg>
