<?xml version="1.0" encoding="UTF-8" standalone="no"?>
<!-- Created with Inkscape (http://www.inkscape.org/) -->

<svg
   xmlns:dc="http://purl.org/dc/elements/1.1/"
   xmlns:cc="http://creativecommons.org/ns#"
   xmlns:rdf="http://www.w3.org/1999/02/22-rdf-syntax-ns#"
   xmlns:svg="http://www.w3.org/2000/svg"
   xmlns="http://www.w3.org/2000/svg"
   xmlns:sodipodi="http://sodipodi.sourceforge.net/DTD/sodipodi-0.dtd"
   xmlns:inkscape="http://www.inkscape.org/namespaces/inkscape"
   width="1000"
   height="300"
   id="svg3063"
   version="1.1"
   inkscape:version="0.91 r13725"
   sodipodi:docname="gophish_releases.svg"
   inkscape:export-filename="C:\Users\jmwri\Documents\Projects\go\src\github.com\jordan-wright\gophish\static\images\gophish_releases.png"
   inkscape:export-xdpi="89.459999"
   inkscape:export-ydpi="89.459999">
  <defs
     id="defs3065">
    <inkscape:path-effect
       effect="spiro"
       id="path-effect3023"
       is_visible="true" />
    <inkscape:path-effect
       effect="spiro"
       id="path-effect4247"
       is_visible="true" />
    <inkscape:path-effect
       effect="spiro"
       id="path-effect3770"
       is_visible="true" />
    <inkscape:path-effect
       effect="spiro"
       id="path-effect3810"
       is_visible="true" />
    <inkscape:path-effect
       effect="spiro"
       id="path-effect4377"
       is_visible="true" />
    <inkscape:path-effect
       effect="spiro"
       id="path-effect3810-9"
       is_visible="true" />
    <inkscape:path-effect
       effect="spiro"
       id="path-effect3770-1"
       is_visible="true" />
    <clipPath
       id="clipPath5542"
       clipPathUnits="userSpaceOnUse">
      <path
         inkscape:connector-curvature="0"
         id="path5544"
         d="m 0,329.25 361.5,0 L 361.5,0 0,0 0,329.25 Z" />
    </clipPath>
  </defs>
  <sodipodi:namedview
     id="base"
     pagecolor="#ffffff"
     bordercolor="#666666"
     borderopacity="1.0"
     inkscape:pageopacity="0.0"
     inkscape:pageshadow="2"
     inkscape:zoom="1"
     inkscape:cx="242.71132"
     inkscape:cy="168.32921"
     inkscape:current-layer="layer1"
     inkscape:document-units="px"
     showgrid="false"
     inkscape:window-width="1366"
     inkscape:window-height="705"
     inkscape:window-x="-8"
     inkscape:window-y="-8"
     inkscape:window-maximized="1" />
  <metadata
     id="metadata3068">
    <rdf:RDF>
      <cc:Work
         rdf:about="">
        <dc:format>image/svg+xml</dc:format>
        <dc:type
           rdf:resource="http://purl.org/dc/dcmitype/StillImage" />
        <dc:title></dc:title>
      </cc:Work>
    </rdf:RDF>
  </metadata>
  <g
     id="layer1"
     inkscape:label="Layer 1"
     inkscape:groupmode="layer"
     transform="translate(0,-900)">
    <rect
       style="fill:#283f50;fill-opacity:1"
       id="rect3955"
       width="1000"
       height="300"
       x="0"
       y="900"
       ry="6" />
    <path
       style="fill:#ffffff"
       d="m 500,950.00029 -87.5,50.00001 0,100 87.5,50 87.5,-50 0,-100 -87.5,-50.00001 z m -0.61963,14.63201 75.22552,43.0053 0,85.9813 -75.22552,42.9906 -75.22551,-42.9906 0,-85.9813 75.22551,-43.0053 z"
       id="path3075"
       inkscape:connector-curvature="0" />
    <g
       id="g5501"
       transform="matrix(0.18297873,0,0,0.18297873,456,1008)"
       style="fill:#ffffff">
      <path
         id="path5503"
         d="m 202.5,405.883 0,-120.208 c 0,-4.143 -3.357,-7.5 -7.5,-7.5 l -50,0 c -4.143,0 -7.5,3.357 -7.5,7.5 0,4.143 3.357,7.5 7.5,7.5 l 42.5,0 0,112.708 c -14.315,3.396 -25,16.278 -25,31.617 0,17.921 14.579,32.5 32.5,32.5 17.921,0 32.5,-14.579 32.5,-32.5 0,-15.339 -10.685,-28.221 -25,-31.617 z M 195,455 c -9.649,0 -17.5,-7.851 -17.5,-17.5 0,-9.649 7.851,-17.5 17.5,-17.5 9.649,0 17.5,7.851 17.5,17.5 0,9.649 -7.851,17.5 -17.5,17.5 z"
         inkscape:connector-curvature="0"
         style="fill:#ffffff" />
      <path
         id="path5505"
         d="m 282.5,405.883 0,-120.208 c 0,-4.143 -3.357,-7.5 -7.5,-7.5 l -49.999,0 c -4.143,0 -7.5,3.357 -7.5,7.5 0,4.143 3.357,7.5 7.5,7.5 l 42.499,0 0,112.708 c -14.315,3.396 -25,16.278 -25,31.617 0,17.921 14.579,32.5 32.5,32.5 17.921,0 32.5,-14.579 32.5,-32.5 0,-15.339 -10.685,-28.221 -25,-31.617 z M 275,455 c -9.649,0 -17.5,-7.851 -17.5,-17.5 0,-9.649 7.851,-17.5 17.5,-17.5 9.649,0 17.5,7.851 17.5,17.5 0,9.649 -7.851,17.5 -17.5,17.5 z"
         inkscape:connector-curvature="0"
         style="fill:#ffffff" />
      <path
         id="path5507"
         d="m 410,355 c -15.339,0 -28.221,10.685 -31.617,25 l -15.883,0 0,-94.325 c 0,-4.143 -3.357,-7.5 -7.5,-7.5 l -50,0 c -4.143,0 -7.5,3.357 -7.5,7.5 0,4.143 3.357,7.5 7.5,7.5 l 42.5,0 0,94.325 c 0,4.143 3.357,7.5 7.5,7.5 l 23.383,0 c 3.396,14.315 16.278,25 31.617,25 17.921,0 32.5,-14.579 32.5,-32.5 0,-17.921 -14.579,-32.5 -32.5,-32.5 z m 0,50 c -9.649,0 -17.5,-7.851 -17.5,-17.5 0,-9.649 7.851,-17.5 17.5,-17.5 9.649,0 17.5,7.851 17.5,17.5 0,9.649 -7.851,17.5 -17.5,17.5 z"
         inkscape:connector-curvature="0"
         style="fill:#ffffff" />
      <path
         id="path5509"
         d="M 452.141,161.557 C 442.033,149.007 428.304,139.709 413.028,134.965 411.308,99.462 396.578,66.337 371.188,41.159 344.422,14.617 308.922,0 271.226,0 221.725,0 175.92,25.812 150.16,67.787 143.896,65.812 137.385,64.815 130.726,64.815 100.089,64.815 73.743,86.441 67.39,115.92 28.044,126.127 0,161.988 0,203.101 c 0,49.667 40.406,90.074 90.073,90.074 l 17.427,0 0,86.825 -15.883,0 C 88.221,365.685 75.339,355 60,355 c -17.921,0 -32.5,14.579 -32.5,32.5 0,17.921 14.579,32.5 32.5,32.5 15.339,0 28.221,-10.685 31.617,-25 L 115,395 c 4.143,0 7.5,-3.357 7.5,-7.5 l 0,-101.825 c 0,-4.143 -3.357,-7.5 -7.5,-7.5 l -24.927,0 C 48.678,278.175 15,244.497 15,203.101 c 0,-35.723 25.395,-66.688 60.383,-73.627 3.155,-0.625 5.561,-3.193 5.978,-6.383 3.229,-24.671 24.451,-43.275 49.365,-43.275 6.854,0 13.501,1.373 19.756,4.08 3.546,1.535 7.675,0.125 9.543,-3.254 C 182.409,40.152 225.019,15 271.226,15 c 69.384,0 126.34,56.438 126.966,125.812 0.031,3.466 2.433,6.458 5.809,7.239 30.028,6.949 51,33.351 51,64.203 0,36.349 -29.571,65.921 -65.92,65.921 l -4.081,0 c -4.143,0 -7.5,3.357 -7.5,7.5 0,4.143 3.357,7.5 7.5,7.5 l 4.08,0 c 44.619,0 80.92,-36.301 80.92,-80.921 0,-18.395 -6.343,-36.4 -17.859,-50.697 z M 60,405 c -9.649,0 -17.5,-7.851 -17.5,-17.5 0,-9.649 7.851,-17.5 17.5,-17.5 9.649,0 17.5,7.851 17.5,17.5 0,9.649 -7.851,17.5 -17.5,17.5 z"
         inkscape:connector-curvature="0"
         style="fill:#ffffff" />
      <path
         id="path5511"
         d="m 365.692,148.605 0.069,0 c 4.142,-0.038 7.469,-3.426 7.432,-7.568 -0.112,-12.354 -2.444,-24.443 -6.931,-35.931 -1.508,-3.858 -5.856,-5.765 -9.715,-4.258 -3.859,1.507 -5.765,5.856 -4.258,9.715 3.822,9.784 5.808,20.083 5.903,30.61 0.039,4.12 3.389,7.432 7.5,7.432 z"
         inkscape:connector-curvature="0"
         style="fill:#ffffff" />
      <path
         id="path5513"
         d="m 338.278,86.756 c 1.483,1.796 3.626,2.724 5.786,2.724 1.683,0 3.375,-0.563 4.772,-1.718 3.193,-2.638 3.644,-7.365 1.006,-10.559 C 330.312,53.56 301.657,40 271.227,40 c -4.143,0 -7.5,3.357 -7.5,7.5 0,4.143 3.357,7.5 7.5,7.5 25.94,0 50.379,11.574 67.051,31.756 z"
         inkscape:connector-curvature="0"
         style="fill:#ffffff" />
    </g>
  </g>
</svg>
