<?xml version="1.0" encoding="UTF-8" standalone="no"?>
<!-- Created with Inkscape (http://www.inkscape.org/) -->

<svg
   xmlns:dc="http://purl.org/dc/elements/1.1/"
   xmlns:cc="http://creativecommons.org/ns#"
   xmlns:rdf="http://www.w3.org/1999/02/22-rdf-syntax-ns#"
   xmlns:svg="http://www.w3.org/2000/svg"
   xmlns="http://www.w3.org/2000/svg"
   xmlns:sodipodi="http://sodipodi.sourceforge.net/DTD/sodipodi-0.dtd"
   xmlns:inkscape="http://www.inkscape.org/namespaces/inkscape"
   width="1000"
   height="300"
   id="svg3063"
   version="1.1"
   inkscape:version="0.48.4 r9939"
   sodipodi:docname="linkedin_gift.svg">
  <defs
     id="defs3065">
    <inkscape:path-effect
       effect="spiro"
       id="path-effect4377"
       is_visible="true" />
  </defs>
  <sodipodi:namedview
     id="base"
     pagecolor="#ffffff"
     bordercolor="#666666"
     borderopacity="1.0"
     inkscape:pageopacity="0.0"
     inkscape:pageshadow="2"
     inkscape:zoom="2.2920354"
     inkscape:cx="489.44006"
     inkscape:cy="155.25676"
     inkscape:current-layer="layer1"
     inkscape:document-units="px"
     showgrid="false"
     inkscape:window-width="1366"
     inkscape:window-height="705"
     inkscape:window-x="-8"
     inkscape:window-y="-8"
     inkscape:window-maximized="1" />
  <metadata
     id="metadata3068">
    <rdf:RDF>
      <cc:Work
         rdf:about="">
        <dc:format>image/svg+xml</dc:format>
        <dc:type
           rdf:resource="http://purl.org/dc/dcmitype/StillImage" />
        <dc:title></dc:title>
      </cc:Work>
    </rdf:RDF>
  </metadata>
  <g
     id="layer1"
     inkscape:label="Layer 1"
     inkscape:groupmode="layer"
     transform="translate(0,-900)">
    <rect
       style="fill:#e74c3c;fill-opacity:1"
       id="rect3955"
       width="1000"
       height="300"
       x="0"
       y="900"
       ry="6" />
    <path
       style="fill:#ffffff"
       d="m 500,950.00029 -87.5,50.00001 0,100 87.5,50 87.5,-50 0,-100 -87.5,-50.00001 z m -0.61963,14.63201 75.22552,43.0053 0,85.9813 -75.22552,42.9906 -75.22551,-42.9906 0,-85.9813 75.22551,-43.0053 z"
       id="path3075"
       inkscape:connector-curvature="0" />
    <path
       style="fill:#ffffff;fill-opacity:1;stroke:#e74c3c;stroke-width:3;stroke-linecap:round;stroke-linejoin:round;stroke-miterlimit:4;stroke-opacity:1;stroke-dasharray:none"
       d="m 453.34375,1017.6562 c -2.216,0 -4,1.784 -4,4 l 0,20.7188 c 0,2.216 1.784,4 4,4 l 6.9375,0 0,48.5938 c 0,2.2159 1.784,4 4,4 l 71,0 c 2.216,0 4,-1.7841 4,-4 l 0,-48.5938 8.1875,0 c 2.216,0 4,-1.784 4,-4 l 0,-20.7188 c 0,-2.216 -1.784,-4 -4,-4 l -94.125,0 z"
       id="rect3789"
       inkscape:connector-curvature="0" />
    <rect
       style="fill:#e74c3c;fill-opacity:1;stroke:#e74c3c;stroke-width:3.43795609;stroke-linecap:round;stroke-linejoin:round;stroke-miterlimit:4;stroke-opacity:1;stroke-dasharray:none"
       id="rect4318"
       width="28.561611"
       height="61.880264"
       x="485.19049"
       y="1015.1154"
       ry="5.9578338" />
    <flowRoot
       xml:space="preserve"
       id="flowRoot4379"
       style="font-size:12px;font-style:normal;font-variant:normal;font-weight:bold;font-stretch:normal;line-height:125%;letter-spacing:0px;word-spacing:0px;fill:#ffffff;fill-opacity:1;stroke:none;font-family:Open Sans;-inkscape-font-specification:Open Sans Bold"
       transform="matrix(2.2929476,0,0,2.2929476,-585.63538,683.3169)"><flowRegion
         id="flowRegion4381"><rect
           id="rect4383"
           width="75.892487"
           height="22.212435"
           x="467.69516"
           y="159.32124"
           style="font-style:normal;font-variant:normal;font-weight:bold;font-stretch:normal;fill:#ffffff;fill-opacity:1;font-family:Open Sans;-inkscape-font-specification:Open Sans Bold" /></flowRegion><flowPara
         id="flowPara4385">in</flowPara></flowRoot>    <path
       style="fill:#ffffff;fill-opacity:1;stroke:#e74c3c;stroke-width:0;stroke-linecap:round;stroke-linejoin:round;stroke-miterlimit:4;stroke-opacity:1;stroke-dasharray:none"
       d="m 462.31244,997.0707 c -3.9719,7.1189 -1.02718,16.3628 6.58628,20.7315 2.6531,2.2425 29.96695,2.7151 31.23449,0.4434 1.24389,-2.2295 -12.9258,-24.43272 -16.57532,-26.28045 l 0.0311,-0.0557 c -7.75057,-4.32435 -17.27259,-2.01503 -21.27655,5.16129 z m 5.36417,2.91987 c 2.54924,-4.56908 8.61702,-6.03547 13.55161,-3.28228 l -0.0208,0.0372 c 2.32365,1.17647 11.34136,15.30971 10.5494,16.72911 -0.80699,1.4464 -18.18862,1.156 -19.87783,-0.2718 -4.84733,-2.7813 -6.73128,-8.6798 -4.20246,-13.21223 z"
       id="path4339"
       inkscape:connector-curvature="0" />
    <path
       style="fill:#ffffff;fill-opacity:1;stroke:#e74c3c;stroke-width:0;stroke-linecap:round;stroke-linejoin:round;stroke-miterlimit:4;stroke-opacity:1;stroke-dasharray:none"
       d="m 536.32772,997.33612 c 3.9719,7.11888 1.02718,16.36278 -6.58628,20.73148 -2.6531,2.2425 -29.96695,2.7151 -31.23449,0.4434 -1.24389,-2.2295 12.9258,-24.4327 16.57532,-26.28043 l -0.0311,-0.0557 c 7.75057,-4.32435 17.27259,-2.01503 21.27655,5.16129 z m -5.36417,2.91988 c -2.54924,-4.56909 -8.61702,-6.03548 -13.55161,-3.28229 l 0.0208,0.0372 c -2.32365,1.17647 -11.34136,15.30969 -10.5494,16.72909 0.80699,1.4464 18.18862,1.156 19.87783,-0.2718 4.84733,-2.7813 6.73128,-8.6798 4.20246,-13.2122 z"
       id="path4339-9"
       inkscape:connector-curvature="0" />
    <rect
       style="fill:#ffffff;fill-opacity:0.94117647;stroke:#e74c3c;stroke-width:0;stroke-linecap:round;stroke-linejoin:miter;stroke-miterlimit:4;stroke-opacity:1;stroke-dasharray:none"
       id="rect4447"
       width="38.640381"
       height="3.4706929"
       x="480.42102"
       y="116.59315"
       transform="translate(0,900)"
       ry="1.7353464" />
  </g>
</svg>
