<?xml version="1.0" encoding="UTF-8" standalone="no"?>
<!-- Created with Inkscape (http://www.inkscape.org/) -->

<svg
   xmlns:dc="http://purl.org/dc/elements/1.1/"
   xmlns:cc="http://creativecommons.org/ns#"
   xmlns:rdf="http://www.w3.org/1999/02/22-rdf-syntax-ns#"
   xmlns:svg="http://www.w3.org/2000/svg"
   xmlns="http://www.w3.org/2000/svg"
   xmlns:sodipodi="http://sodipodi.sourceforge.net/DTD/sodipodi-0.dtd"
   xmlns:inkscape="http://www.inkscape.org/namespaces/inkscape"
   width="1000"
   height="300"
   id="svg3063"
   version="1.1"
   inkscape:version="0.48.4 r9939"
   sodipodi:docname="papers.svg"
   inkscape:export-filename="C:\Users\jmwri_000\Documents\jordan-wright.github.com\source\images\headers\tracking_elk.png"
   inkscape:export-xdpi="90"
   inkscape:export-ydpi="90">
  <defs
     id="defs3065">
    <inkscape:path-effect
       effect="spiro"
       id="path-effect4377"
       is_visible="true" />
  </defs>
  <sodipodi:namedview
     id="base"
     pagecolor="#ffffff"
     bordercolor="#666666"
     borderopacity="1.0"
     inkscape:pageopacity="0.0"
     inkscape:pageshadow="2"
     inkscape:zoom="0.8103569"
     inkscape:cx="591.26862"
     inkscape:cy="66.649257"
     inkscape:current-layer="layer1"
     inkscape:document-units="px"
     showgrid="false"
     inkscape:window-width="1366"
     inkscape:window-height="705"
     inkscape:window-x="-8"
     inkscape:window-y="-8"
     inkscape:window-maximized="1" />
  <metadata
     id="metadata3068">
    <rdf:RDF>
      <cc:Work
         rdf:about="">
        <dc:format>image/svg+xml</dc:format>
        <dc:type
           rdf:resource="http://purl.org/dc/dcmitype/StillImage" />
        <dc:title />
      </cc:Work>
    </rdf:RDF>
  </metadata>
  <g
     id="layer1"
     inkscape:label="Layer 1"
     inkscape:groupmode="layer"
     transform="translate(0,-900)">
    <rect
       style="fill:#3498db;fill-opacity:0.94117647"
       id="rect3955"
       width="1000"
       height="300"
       x="0"
       y="900"
       ry="6"
       rx="6" />
    <path
       style="fill:#ffffff"
       d="m 500,950.00029 -87.5,50.00001 0,100 87.5,50 87.5,-50 0,-100 -87.5,-50.00001 z m -0.61963,14.63201 75.22552,43.0053 0,85.9813 -75.22552,42.9906 -75.22551,-42.9906 0,-85.9813 75.22551,-43.0053 z"
       id="path3075"
       inkscape:connector-curvature="0" />
    <path
       id="path3019"
       d="m 516.62176,1004.2778 h -44.09967 c -2.96056,0 -5.37229,2.4129 -5.37229,5.3734 v 76.8744 c 0,2.9639 2.41173,5.3734 5.37229,5.3734 h 54.01817 c 2.96395,0 5.37342,-2.4095 5.37342,-5.3734 v -65.6328 l -15.29192,-16.615 z m 1.26784,8.041 6.70325,7.2836 h -6.70325 v -7.2836 z m 9.51167,74.2057 c 0,0.4744 -0.38768,0.8621 -0.86213,0.8621 h -54.01705 c -0.47446,0 -0.85988,-0.3877 -0.85988,-0.8621 v -76.8733 c 0,-0.4744 0.38542,-0.8587 0.85988,-0.8587 h 40.85398 v 13.0672 c 0,1.2442 1.01315,2.2529 2.25733,2.2529 h 11.76787 v 62.4119 z m -47.77924,-58.2478 h 38.31716 c 0.93313,0 1.69046,0.7574 1.69046,1.6905 0,0.9331 -0.75733,1.6905 -1.69046,1.6905 h -38.31716 c -0.93313,0 -1.69046,-0.7574 -1.69046,-1.6905 0,-0.9331 0.75733,-1.6905 1.69046,-1.6905 z m 40.00762,13.0504 c 0,0.9331 -0.75733,1.6905 -1.69046,1.6905 h -38.31716 c -0.93313,0 -1.69046,-0.7574 -1.69046,-1.6905 0,-0.9331 0.75733,-1.6905 1.69046,-1.6905 h 38.31716 c 0.93313,0 1.69046,0.7574 1.69046,1.6905 z m 0,10.988 c 0,0.9332 -0.75733,1.6905 -1.69046,1.6905 h -38.31716 c -0.93313,0 -1.69046,-0.7573 -1.69046,-1.6905 0,-0.9331 0.75733,-1.6904 1.69046,-1.6904 h 38.31716 c 0.93313,0 1.69046,0.7573 1.69046,1.6904 z m 0,11.1751 c 0,0.9331 -0.75733,1.6905 -1.69046,1.6905 h -38.31716 c -0.93313,0 -1.69046,-0.7574 -1.69046,-1.6905 0,-0.9331 0.75733,-1.6905 1.69046,-1.6905 h 38.31716 c 0.93313,0 1.69046,0.7574 1.69046,1.6905 z"
       inkscape:connector-curvature="0"
       style="fill:#ffffff" />
  </g>
</svg>
