<?xml version="1.0" encoding="UTF-8" standalone="no"?>
<!-- Created with Inkscape (http://www.inkscape.org/) -->

<svg
   xmlns:dc="http://purl.org/dc/elements/1.1/"
   xmlns:cc="http://creativecommons.org/ns#"
   xmlns:rdf="http://www.w3.org/1999/02/22-rdf-syntax-ns#"
   xmlns:svg="http://www.w3.org/2000/svg"
   xmlns="http://www.w3.org/2000/svg"
   xmlns:sodipodi="http://sodipodi.sourceforge.net/DTD/sodipodi-0.dtd"
   xmlns:inkscape="http://www.inkscape.org/namespaces/inkscape"
   width="1000"
   height="300"
   id="svg3063"
   version="1.1"
   inkscape:version="0.48.4 r9939"
   sodipodi:docname="rfid.svg"
   inkscape:export-filename="C:\Users\jmwri_000\Documents\jordan-wright.github.com\source\images\headers\rfid.png"
   inkscape:export-xdpi="89.496582"
   inkscape:export-ydpi="89.496582">
  <defs
     id="defs3065">
    <inkscape:path-effect
       effect="spiro"
       id="path-effect4377"
       is_visible="true" />
    <inkscape:path-effect
       effect="spiro"
       id="path-effect4377-1"
       is_visible="true" />
  </defs>
  <sodipodi:namedview
     id="base"
     pagecolor="#ffffff"
     bordercolor="#666666"
     borderopacity="1.0"
     inkscape:pageopacity="0.0"
     inkscape:pageshadow="2"
     inkscape:zoom="1.1460177"
     inkscape:cx="412.75113"
     inkscape:cy="198.64611"
     inkscape:current-layer="layer1"
     inkscape:document-units="px"
     showgrid="false"
     inkscape:window-width="1366"
     inkscape:window-height="705"
     inkscape:window-x="-8"
     inkscape:window-y="-8"
     inkscape:window-maximized="1" />
  <metadata
     id="metadata3068">
    <rdf:RDF>
      <cc:Work
         rdf:about="">
        <dc:format>image/svg+xml</dc:format>
        <dc:type
           rdf:resource="http://purl.org/dc/dcmitype/StillImage" />
        <dc:title></dc:title>
      </cc:Work>
    </rdf:RDF>
  </metadata>
  <g
     id="layer1"
     inkscape:label="Layer 1"
     inkscape:groupmode="layer"
     transform="translate(0,-900)">
    <rect
       style="fill:#22313f;fill-opacity:1"
       id="rect3955"
       width="1000"
       height="300"
       x="0"
       y="900"
       ry="6" />
    <path
       style="fill:#ffffff"
       d="m 500,950.00029 -87.5,50.00001 0,100 87.5,50 87.5,-50 0,-100 -87.5,-50.00001 z m -0.61963,14.63201 75.22552,43.0053 0,85.9813 -75.22552,42.9906 -75.22551,-42.9906 0,-85.9813 75.22551,-43.0053 z"
       id="path3075"
       inkscape:connector-curvature="0" />
    <g
       transform="matrix(1.3783166,0,0,1.3783166,454.90769,1003.4926)"
       id="g7068"
       style="fill:#ffffff;fill-opacity:1;stroke:#ffffff;stroke-opacity:1">
      <path
         inkscape:connector-curvature="0"
         d="M 59.726,4.274 H 26.615 l -8.288,19.076 0.42,0.349 c 1.02,0.835 1.605,2.074 1.605,3.395 0,2.421 -1.972,4.397 -4.396,4.397 -2.423,0 -4.396,-1.976 -4.396,-4.397 0,-2.172 1.621,-4.041 3.771,-4.347 l 0.399,-0.059 8,-18.414 H 4.274 V 59.725 H 59.725 V 51.047 H 42.953 l -0.215,0.329 c -0.769,1.189 -2.072,1.896 -3.483,1.896 -2.29,0 -4.15,-1.862 -4.15,-4.15 0,-2.289 1.86,-4.154 4.15,-4.154 1.793,0 3.376,1.146 3.939,2.847 l 0.164,0.496 H 59.725 V 18.277 H 41.334 v 8.963 l 0.464,0.174 c 1.66,0.63 2.776,2.241 2.776,4.01 0,2.371 -1.926,4.293 -4.291,4.293 -2.366,0 -4.292,-1.922 -4.292,-4.293 0,-1.594 0.881,-3.049 2.297,-3.794 l 0.383,-0.204 V 15.614 H 59.726 V 4.274 z m -25.174,27.15 c 0,3.163 2.569,5.732 5.731,5.732 3.159,0 5.73,-2.569 5.73,-5.732 0,-2.197 -1.265,-4.2 -3.239,-5.155 v -6.551 h 15.51 V 46.872 H 44.372 c -0.89,-2.039 -2.877,-3.343 -5.117,-3.343 -3.082,0 -5.593,2.51 -5.593,5.594 0,3.084 2.511,5.59 5.593,5.59 1.754,0 3.409,-0.827 4.464,-2.226 h 14.565 v 5.799 H 5.715 V 5.714 h 15.819 l -6.812,15.68 c -2.677,0.576 -4.603,2.948 -4.603,5.699 0,3.216 2.619,5.836 5.837,5.836 3.218,0 5.836,-2.62 5.836,-5.836 0,-1.555 -0.625,-3.051 -1.722,-4.14 L 27.559,5.714 h 30.724 v 8.461 H 37.23 v 12.401 c -1.657,1.043 -2.678,2.884 -2.678,4.848 z"
         id="path7070"
         style="fill:#ffffff;fill-opacity:1;stroke:#ffffff;stroke-opacity:1" />
      <path
         inkscape:connector-curvature="0"
         d="m 13.755,26.986 c 0,1.201 0.974,2.176 2.175,2.176 1.198,0 2.173,-0.975 2.173,-2.176 0,-1.196 -0.976,-2.173 -2.173,-2.173 -1.201,0 -2.175,0.977 -2.175,2.173 z"
         id="path7072"
         style="fill:#ffffff;fill-opacity:1;stroke:#ffffff;stroke-opacity:1" />
      <path
         inkscape:connector-curvature="0"
         d="m 37.871,31.374 c 0,1.2 0.977,2.174 2.175,2.174 1.199,0 2.175,-0.975 2.175,-2.174 0,-1.199 -0.976,-2.175 -2.175,-2.175 -1.198,0 -2.175,0.975 -2.175,2.175 z"
         id="path7074"
         style="fill:#ffffff;fill-opacity:1;stroke:#ffffff;stroke-opacity:1" />
      <circle
         d="m 41.383999,49.123001 c 0,1.200667 -0.973333,2.174 -2.174,2.174 -1.200667,0 -2.174,-0.973333 -2.174,-2.174 0,-1.200667 0.973333,-2.174 2.174,-2.174 1.200667,0 2.174,0.973333 2.174,2.174 z"
         sodipodi:ry="2.174"
         sodipodi:rx="2.174"
         sodipodi:cy="49.123001"
         sodipodi:cx="39.209999"
         cx="39.209999"
         cy="49.123001"
         r="2.174"
         id="circle7076"
         style="fill:#ffffff;fill-opacity:1;stroke:#ffffff;stroke-opacity:1" />
    </g>
  </g>
</svg>
