<?xml version="1.0" encoding="UTF-8" standalone="no"?>
<!-- Created with Inkscape (http://www.inkscape.org/) -->

<svg
   xmlns:dc="http://purl.org/dc/elements/1.1/"
   xmlns:cc="http://creativecommons.org/ns#"
   xmlns:rdf="http://www.w3.org/1999/02/22-rdf-syntax-ns#"
   xmlns:svg="http://www.w3.org/2000/svg"
   xmlns="http://www.w3.org/2000/svg"
   xmlns:sodipodi="http://sodipodi.sourceforge.net/DTD/sodipodi-0.dtd"
   xmlns:inkscape="http://www.inkscape.org/namespaces/inkscape"
   width="1000"
   height="300"
   id="svg3063"
   version="1.1"
   inkscape:version="0.48.4 r9939"
   sodipodi:docname="blackhat_python.svg"
   inkscape:export-filename="C:\Users\jmwri_000\Documents\jordan-wright.github.com\source\images\headers\blackhat_python.png"
   inkscape:export-xdpi="89.496582"
   inkscape:export-ydpi="89.496582">
  <defs
     id="defs3065"><inkscape:path-effect
   effect="spiro"
   id="path-effect4377"
   is_visible="true" />
<inkscape:path-effect
   effect="spiro"
   id="path-effect4377-1"
   is_visible="true" />

	
	
	
	
	
	
	
	
	
</defs>
  <sodipodi:namedview
     id="base"
     pagecolor="#ffffff"
     bordercolor="#666666"
     borderopacity="1.0"
     inkscape:pageopacity="0.0"
     inkscape:pageshadow="2"
     inkscape:zoom="0.81035689"
     inkscape:cx="506.41192"
     inkscape:cy="156.10337"
     inkscape:current-layer="layer1"
     inkscape:document-units="px"
     showgrid="false"
     inkscape:window-width="1366"
     inkscape:window-height="705"
     inkscape:window-x="-8"
     inkscape:window-y="-8"
     inkscape:window-maximized="1" />
  <metadata
     id="metadata3068">
    <rdf:RDF>
      <cc:Work
         rdf:about="">
        <dc:format>image/svg+xml</dc:format>
        <dc:type
           rdf:resource="http://purl.org/dc/dcmitype/StillImage" />
        <dc:title></dc:title>
      </cc:Work>
    </rdf:RDF>
  </metadata>
  <g
     id="layer1"
     inkscape:label="Layer 1"
     inkscape:groupmode="layer"
     transform="translate(0,-900)">
    <rect
       style="fill:#cf000f;fill-opacity:1"
       id="rect3955"
       width="1000"
       height="300"
       x="0"
       y="900"
       ry="6" />
    <path
       style="fill:#ffffff"
       d="m 500,950.00029 -87.5,50.00001 0,100 87.5,50 87.5,-50 0,-100 -87.5,-50.00001 z m -0.61963,14.63201 75.22552,43.0053 0,85.9813 -75.22552,42.9906 -75.22551,-42.9906 0,-85.9813 75.22551,-43.0053 z"
       id="path3075"
       inkscape:connector-curvature="0" />
    <g
       id="g4073"
       transform="matrix(2.7256337,0,0,2.7256337,456.28176,1018.5265)">
</g>
    <g
       id="g4075"
       transform="matrix(2.7256337,0,0,2.7256337,456.28176,1018.5265)">
</g>
    <g
       id="g4077"
       transform="matrix(2.7256337,0,0,2.7256337,456.28176,1018.5265)">
</g>
    <g
       id="g4079"
       transform="matrix(2.7256337,0,0,2.7256337,456.28176,1018.5265)">
</g>
    <g
       id="g4081"
       transform="matrix(2.7256337,0,0,2.7256337,456.28176,1018.5265)">
</g>
    <g
       id="g4083"
       transform="matrix(2.7256337,0,0,2.7256337,456.28176,1018.5265)">
</g>
    <g
       id="g4085"
       transform="matrix(2.7256337,0,0,2.7256337,456.28176,1018.5265)">
</g>
    <g
       id="g4087"
       transform="matrix(2.7256337,0,0,2.7256337,456.28176,1018.5265)">
</g>
    <g
       id="g4089"
       transform="matrix(2.7256337,0,0,2.7256337,456.28176,1018.5265)">
</g>
    <g
       id="g4091"
       transform="matrix(2.7256337,0,0,2.7256337,456.28176,1018.5265)">
</g>
    <g
       id="g4093"
       transform="matrix(2.7256337,0,0,2.7256337,456.28176,1018.5265)">
</g>
    <g
       id="g4095"
       transform="matrix(2.7256337,0,0,2.7256337,456.28176,1018.5265)">
</g>
    <g
       id="g4097"
       transform="matrix(2.7256337,0,0,2.7256337,456.28176,1018.5265)">
</g>
    <g
       id="g4099"
       transform="matrix(2.7256337,0,0,2.7256337,456.28176,1018.5265)">
</g>
    <g
       id="g4101"
       transform="matrix(2.7256337,0,0,2.7256337,456.28176,1018.5265)">
</g>
    <g
       id="g4275"
       transform="matrix(0.20245011,0,0,0.20245011,447.95276,1000.0898)"
       style="fill:#ffffff">
      <g
         id="Artwork"
         style="fill:#ffffff">
</g>
      <g
         id="Layer_3"
         style="fill:#ffffff">
	<path
   id="path4267"
   d="m 442.524,313.562 -45.643,12.23 -30.762,-17.761 50.451,-13.519 c 5.334,-1.43 8.5,-6.913 7.071,-12.247 -1.429,-5.334 -6.914,-8.504 -12.248,-7.071 L 341.624,293.888 315.2,278.633 c -0.891,-0.514 -1.828,-0.875 -2.781,-1.092 l 28.071,-12.354 c 3.626,-1.597 5.969,-5.184 5.972,-9.146 0.003,-3.962 -2.334,-7.553 -5.959,-9.154 l -28.14,-12.431 c 0.972,-0.216 1.93,-0.563 2.837,-1.088 l 26.426,-15.257 69.771,18.693 c 0.867,0.232 1.737,0.344 2.594,0.344 4.415,-0.001 8.456,-2.947 9.653,-7.415 1.429,-5.335 -1.736,-10.818 -7.071,-12.247 l -50.452,-13.518 30.761,-17.76 45.644,12.229 c 0.867,0.232 1.737,0.344 2.594,0.344 4.415,-0.001 8.456,-2.947 9.653,-7.415 1.429,-5.335 -1.736,-10.818 -7.071,-12.247 l -26.324,-7.053 25.258,-14.583 c 4.783,-2.762 6.422,-8.877 3.66,-13.66 -2.762,-4.783 -8.877,-6.423 -13.66,-3.66 l -25.26,14.584 7.053,-26.325 c 1.429,-5.335 -1.736,-10.818 -7.071,-12.247 -5.335,-1.43 -10.818,1.736 -12.247,7.071 l -12.229,45.643 -30.762,17.761 13.519,-50.451 c 1.43,-5.334 -1.736,-10.817 -7.071,-12.247 -5.335,-1.432 -10.818,1.736 -12.248,7.071 l -18.695,69.77 -26.424,15.256 c -0.882,0.51 -1.655,1.134 -2.315,1.842 l 3.335,-30.475 c 0.431,-3.939 -1.504,-7.761 -4.935,-9.745 -3.431,-1.983 -7.709,-1.754 -10.907,0.584 l -24.835,18.155 c 0.296,-0.945 0.457,-1.951 0.457,-2.994 v -30.513 l 51.075,-51.077 c 3.905,-3.905 3.905,-10.237 0,-14.143 -3.905,-3.904 -10.237,-3.904 -14.142,0 L 266,134.616 V 99.098 l 33.413,-33.415 c 3.905,-3.905 3.905,-10.237 0,-14.143 -3.905,-3.904 -10.237,-3.904 -14.142,0 L 266,70.812 V 41.646 c 0,-5.522 -4.477,-10 -10,-10 -5.523,0 -10,4.478 -10,10 V 70.813 L 226.729,51.542 c -3.905,-3.904 -10.237,-3.904 -14.143,0 -3.905,3.905 -3.905,10.237 0,14.143 L 246,99.098 v 35.52 L 209.067,97.686 c -3.905,-3.904 -10.237,-3.904 -14.142,0 -3.905,3.905 -3.905,10.237 0,14.143 L 246,162.902 v 30.513 c 0,1.008 0.152,1.979 0.43,2.897 l -24.696,-18.104 c -3.195,-2.343 -7.473,-2.576 -10.906,-0.599 -3.433,1.979 -5.374,5.799 -4.948,9.738 l 3.31,30.621 c -0.676,-0.741 -1.474,-1.394 -2.389,-1.922 l -26.425,-15.257 -18.696,-69.77 c -1.429,-5.335 -6.912,-8.502 -12.248,-7.071 -5.334,1.43 -8.5,6.913 -7.071,12.247 l 13.52,50.451 -30.762,-17.76 -12.231,-45.644 c -1.429,-5.334 -6.914,-8.501 -12.248,-7.07 -5.335,1.43 -8.5,6.913 -7.071,12.248 l 7.054,26.323 -25.258,-14.583 c -4.782,-2.76 -10.898,-1.123 -13.66,3.66 -2.762,4.783 -1.123,10.898 3.66,13.66 l 25.26,14.584 -26.325,7.054 c -5.334,1.43 -8.5,6.913 -7.071,12.247 1.197,4.468 5.237,7.415 9.653,7.415 0.856,0 1.728,-0.111 2.595,-0.344 l 45.643,-12.229 30.762,17.76 -50.452,13.52 c -5.334,1.43 -8.5,6.913 -7.071,12.247 1.197,4.468 5.237,7.415 9.653,7.415 0.856,0 1.728,-0.111 2.595,-0.344 l 69.769,-18.694 26.424,15.256 c 0.878,0.507 1.803,0.851 2.741,1.069 l -28.024,12.333 c -3.626,1.597 -5.969,5.184 -5.972,9.146 -0.003,3.962 2.334,7.553 5.959,9.154 l 28.179,12.449 c -0.988,0.214 -1.961,0.579 -2.884,1.112 l -26.426,15.257 -69.771,-18.693 c -5.335,-1.432 -10.818,1.736 -12.247,7.071 -1.43,5.335 1.736,10.818 7.071,12.247 l 50.451,13.518 -30.761,17.76 -45.644,-12.229 c -5.336,-1.43 -10.818,1.736 -12.247,7.071 -1.429,5.335 1.737,10.818 7.071,12.247 l 26.324,7.053 -25.258,14.583 c -4.783,2.762 -6.422,8.877 -3.66,13.66 1.852,3.208 5.213,5.002 8.669,5.002 1.696,0 3.416,-0.433 4.991,-1.342 l 25.26,-14.584 -7.054,26.325 c -1.43,5.334 1.736,10.817 7.071,12.247 0.867,0.232 1.738,0.344 2.595,0.344 4.415,0 8.456,-2.947 9.653,-7.415 l 12.23,-45.643 30.762,-17.761 -13.518,50.451 c -1.43,5.334 1.736,10.817 7.071,12.247 0.867,0.232 1.738,0.344 2.595,0.344 4.415,0 8.456,-2.947 9.653,-7.415 l 18.695,-69.77 26.424,-15.256 c 0.883,-0.51 1.656,-1.135 2.317,-1.844 l -3.331,30.434 c -0.431,3.939 1.504,7.761 4.935,9.745 3.43,1.982 7.708,1.753 10.907,-0.584 l 24.848,-18.164 c -0.307,0.961 -0.476,1.983 -0.476,3.046 v 30.514 l -51.074,51.076 c -3.905,3.905 -3.905,10.237 0,14.143 1.953,1.952 4.512,2.929 7.071,2.929 2.559,0 5.119,-0.977 7.071,-2.929 L 246,377.384 v 35.52 l -33.412,33.414 c -3.905,3.906 -3.905,10.237 0,14.143 1.953,1.952 4.512,2.929 7.071,2.929 2.559,0 5.119,-0.977 7.071,-2.929 L 246,441.188 v 29.166 c 0,5.522 4.477,10 10,10 5.523,0 10,-4.478 10,-10 v -29.167 l 19.271,19.271 c 3.905,3.904 10.237,3.904 14.143,0 3.905,-3.905 3.905,-10.237 0,-14.143 L 266,412.902 v -35.52 l 36.932,36.932 c 3.905,3.904 10.237,3.904 14.143,0 3.905,-3.905 3.905,-10.237 0,-14.143 L 266,349.098 v -30.513 c 0,-1.029 -0.156,-2.022 -0.445,-2.956 l 24.719,18.12 c 1.752,1.284 3.829,1.935 5.913,1.935 1.718,0 3.442,-0.442 4.993,-1.337 3.433,-1.979 5.374,-5.798 4.948,-9.737 l -3.303,-30.562 c 0.673,0.734 1.466,1.381 2.375,1.905 l 26.426,15.257 18.697,69.771 c 1.197,4.468 5.237,7.414 9.653,7.414 0.856,-10e-4 1.728,-0.111 2.595,-0.344 5.334,-1.43 8.5,-6.913 7.071,-12.248 l -13.52,-50.45 30.762,17.761 12.23,45.642 c 1.197,4.469 5.237,7.415 9.653,7.415 0.856,-10e-4 1.728,-0.111 2.595,-0.344 5.334,-1.43 8.5,-6.913 7.071,-12.247 l -7.054,-26.324 25.258,14.583 c 1.575,0.909 3.294,1.342 4.991,1.342 3.456,0 6.817,-1.794 8.669,-5.002 2.762,-4.783 1.123,-10.898 -3.66,-13.66 l -25.26,-14.584 26.325,-7.054 c 5.334,-1.43 8.5,-6.913 7.071,-12.247 -1.431,-5.336 -6.916,-8.504 -12.249,-7.072 z M 286.801,266.965 c -3.989,1.755 -6.382,5.894 -5.914,10.227 l 2.919,27.02 -21.919,-16.068 c -1.76,-1.29 -3.836,-1.935 -5.912,-1.935 -2.072,0 -4.144,0.643 -5.901,1.927 l -21.94,16.038 2.957,-27.015 c 0.475,-4.333 -1.913,-8.474 -5.899,-10.235 l -24.86,-10.982 24.875,-10.948 c 3.989,-1.755 6.382,-5.894 5.914,-10.227 l -2.919,-27.019 21.919,16.068 c 3.515,2.577 8.295,2.579 11.813,0.008 l 21.939,-16.038 -2.956,27.015 c -0.475,4.333 1.913,8.474 5.899,10.235 l 24.861,10.981 -24.876,10.948 z"
   inkscape:connector-curvature="0"
   style="fill:#ffffff" />

</g>
    </g>
  </g>
</svg>
