<?xml version="1.0" encoding="UTF-8" standalone="no"?>
<!-- Created with Inkscape (http://www.inkscape.org/) -->

<svg
   xmlns:dc="http://purl.org/dc/elements/1.1/"
   xmlns:cc="http://creativecommons.org/ns#"
   xmlns:rdf="http://www.w3.org/1999/02/22-rdf-syntax-ns#"
   xmlns:svg="http://www.w3.org/2000/svg"
   xmlns="http://www.w3.org/2000/svg"
   xmlns:sodipodi="http://sodipodi.sourceforge.net/DTD/sodipodi-0.dtd"
   xmlns:inkscape="http://www.inkscape.org/namespaces/inkscape"
   width="1000"
   height="300"
   id="svg3063"
   version="1.1"
   inkscape:version="0.48.4 r9939"
   sodipodi:docname="rfid.svg"
   inkscape:export-filename="C:\Users\jmwri_000\Documents\jordan-wright.github.com\source\images\headers\rfid.png"
   inkscape:export-xdpi="89.496582"
   inkscape:export-ydpi="89.496582">
  <defs
     id="defs3065">
    <inkscape:path-effect
       effect="spiro"
       id="path-effect4377"
       is_visible="true" />
    <inkscape:path-effect
       effect="spiro"
       id="path-effect4377-1"
       is_visible="true" />
  </defs>
  <sodipodi:namedview
     id="base"
     pagecolor="#ffffff"
     bordercolor="#666666"
     borderopacity="1.0"
     inkscape:pageopacity="0.0"
     inkscape:pageshadow="2"
     inkscape:zoom="0.81035689"
     inkscape:cx="443.48057"
     inkscape:cy="207.55625"
     inkscape:current-layer="layer1"
     inkscape:document-units="px"
     showgrid="false"
     inkscape:window-width="1366"
     inkscape:window-height="705"
     inkscape:window-x="-8"
     inkscape:window-y="-8"
     inkscape:window-maximized="1" />
  <metadata
     id="metadata3068">
    <rdf:RDF>
      <cc:Work
         rdf:about="">
        <dc:format>image/svg+xml</dc:format>
        <dc:type
           rdf:resource="http://purl.org/dc/dcmitype/StillImage" />
        <dc:title></dc:title>
      </cc:Work>
    </rdf:RDF>
  </metadata>
  <g
     id="layer1"
     inkscape:label="Layer 1"
     inkscape:groupmode="layer"
     transform="translate(0,-900)">
    <rect
       style="fill:#22313f;fill-opacity:1"
       id="rect3955"
       width="1000"
       height="300"
       x="0"
       y="900"
       ry="6" />
    <path
       style="fill:#ffffff"
       d="m 500,950.00029 -87.5,50.00001 0,100 87.5,50 87.5,-50 0,-100 -87.5,-50.00001 z m -0.61963,14.63201 75.22552,43.0053 0,85.9813 -75.22552,42.9906 -75.22551,-42.9906 0,-85.9813 75.22551,-43.0053 z"
       id="path3075"
       inkscape:connector-curvature="0" />
    <path
       id="path3641"
       d="m 532.41343,1050.3772 c -0.30857,-0.3939 -2.02338,-2.3902 -5.4576,-3.6999 -1.40089,-0.4337 -4.79567,-0.8671 -8.3862,-1.5832 l -5.41151,-1.3577 c -1.80144,-0.5851 -3.39072,-1.2957 -4.48268,-2.1775 1.02947,-1.0558 1.97157,-2.3107 2.81672,-3.7588 2.71718,-4.6567 3.68546,-10.0972 3.68546,-13.6357 0,-0.05 -0.0262,-5.244 -0.1117,-5.9289 -0.0627,-0.5003 -0.15226,-0.9921 -0.26452,-1.4748 2.34798,-0.037 4.24085,-1.9482 4.24085,-4.305 0,-2.3797 -1.92881,-4.3087 -4.30868,-4.3087 h -1.36071 c -1.97637,-4.0836 -6.15952,-6.9005 -11.00072,-6.9005 h -6.12062 c -4.8412,0 -9.02435,2.8169 -11.00072,6.9005 h -1.36071 c -2.37968,0 -4.30849,1.929 -4.30849,4.3087 0,2.3579 1.89416,4.2703 4.24379,4.3051 -0.0774,0.3316 -0.14691,0.6651 -0.20055,1.0026 -0.14027,0.8796 -0.17879,6.3481 -0.17879,6.4012 0,3.5383 0.96827,8.9788 3.68527,13.6357 0.84515,1.448 1.78725,2.7029 2.81672,3.7588 -1.09214,0.8818 -2.68124,1.5922 -4.48268,2.1775 l -5.41132,1.3577 c -3.59109,0.7163 -6.9855,1.1497 -8.38621,1.5832 -3.43459,1.3097 -5.14939,3.3059 -5.45759,3.6999 -6.31601,9.376 -7.03139,30.4125 -7.0371,30.6217 0.0562,2.7994 0.88809,3.7558 1.17509,3.8734 14.05872,6.255 30.60717,7.843 38.72517,7.843 0.077,0 0.15982,0 0.23834,0 0.0785,0 0.16129,0 0.23834,0 8.118,0 24.66645,-1.588 38.72517,-7.843 0.287,-0.1176 1.11869,-1.074 1.17509,-3.8734 -0.006,-0.2094 -0.72109,-21.2459 -7.03691,-30.6219 z m -40.21805,-32.8713 c -2.58982,0 -4.90941,0.912 -6.48062,2.352 0.0232,-0.8588 0.0511,-1.5535 0.0817,-1.7491 0.0724,-0.4573 0.17382,-0.905 0.29677,-1.3448 h 26.44208 c 0.1565,0.566 0.27428,1.1476 0.34875,1.743 0.0171,0.1504 0.0328,0.6837 0.0465,1.3708 -1.5714,-1.4514 -3.90057,-2.3717 -6.50218,-2.3717 h -14.23291 z m 5.13594,6.7958 c 0,1.3968 -3.65247,3.8031 -7.3912,3.8031 -2.60253,0 -3.76325,-1.1731 -3.76325,-3.8031 0,-2.0615 2.55387,-3.8029 5.57741,-3.8029 3.0228,0 5.57704,1.7414 5.57704,3.8029 z m 9.53807,-3.8029 c 3.02317,0 5.57722,1.7414 5.57722,3.8029 0,2.63 -1.16072,3.8031 -3.76325,3.8031 -3.73891,0 -7.3912,-2.4063 -7.3912,-3.8031 0,-2.0615 2.55424,-3.8029 5.57723,-3.8029 z m -17.83893,16.1933 c -1.23685,-2.1198 -2.07812,-4.416 -2.61341,-6.5892 1.01694,0.6308 2.32844,0.9946 3.96453,0.9946 3.25469,0 6.8443,-1.8351 9.02085,-1.8351 2.17655,0 5.5846,1.8351 8.83947,1.8351 1.63609,0 2.94759,-0.3637 3.96453,-0.9946 -0.53511,2.1732 -1.37656,4.4696 -2.61341,6.5892 -1.79609,3.0777 -5.03769,6.7468 -10.28128,6.7468 -5.24359,0 -8.48519,-3.6691 -10.28128,-6.7468 z"
       inkscape:connector-curvature="0"
       style="fill:#ffffff" />
  </g>
</svg>
