<?xml version="1.0" encoding="UTF-8" standalone="no"?>
<!-- Created with Inkscape (http://www.inkscape.org/) -->

<svg
   xmlns:dc="http://purl.org/dc/elements/1.1/"
   xmlns:cc="http://creativecommons.org/ns#"
   xmlns:rdf="http://www.w3.org/1999/02/22-rdf-syntax-ns#"
   xmlns:svg="http://www.w3.org/2000/svg"
   xmlns="http://www.w3.org/2000/svg"
   xmlns:sodipodi="http://sodipodi.sourceforge.net/DTD/sodipodi-0.dtd"
   xmlns:inkscape="http://www.inkscape.org/namespaces/inkscape"
   width="1000"
   height="300"
   id="svg3063"
   version="1.1"
   inkscape:version="0.48.4 r9939"
   sodipodi:docname="tor_seized.svg"
   inkscape:export-filename="C:\Users\jmwri_000\Documents\jordan-wright.github.com\source\images\headers\hidden_services.png"
   inkscape:export-xdpi="89.496582"
   inkscape:export-ydpi="89.496582">
  <defs
     id="defs3065">
    <inkscape:path-effect
       effect="spiro"
       id="path-effect4377"
       is_visible="true" />
    <inkscape:path-effect
       effect="spiro"
       id="path-effect4377-1"
       is_visible="true" />
  </defs>
  <sodipodi:namedview
     id="base"
     pagecolor="#ffffff"
     bordercolor="#666666"
     borderopacity="1.0"
     inkscape:pageopacity="0.0"
     inkscape:pageshadow="2"
     inkscape:zoom="0.81035689"
     inkscape:cx="470.9793"
     inkscape:cy="240.12055"
     inkscape:current-layer="layer1"
     inkscape:document-units="px"
     showgrid="false"
     inkscape:window-width="1366"
     inkscape:window-height="705"
     inkscape:window-x="-8"
     inkscape:window-y="-8"
     inkscape:window-maximized="1" />
  <metadata
     id="metadata3068">
    <rdf:RDF>
      <cc:Work
         rdf:about="">
        <dc:format>image/svg+xml</dc:format>
        <dc:type
           rdf:resource="http://purl.org/dc/dcmitype/StillImage" />
        <dc:title></dc:title>
      </cc:Work>
    </rdf:RDF>
  </metadata>
  <g
     id="layer1"
     inkscape:label="Layer 1"
     inkscape:groupmode="layer"
     transform="translate(0,-900)">
    <rect
       style="fill:#d35400;fill-opacity:1"
       id="rect3955"
       width="1000"
       height="300"
       x="0"
       y="900"
       ry="6" />
    <path
       style="fill:#ffffff"
       d="m 500,950.00029 -87.5,50.00001 0,100 87.5,50 87.5,-50 0,-100 -87.5,-50.00001 z m -0.61963,14.63201 75.22552,43.0053 0,85.9813 -75.22552,42.9906 -75.22551,-42.9906 0,-85.9813 75.22551,-43.0053 z"
       id="path3075"
       inkscape:connector-curvature="0" />
    <path
       style="fill:#ffffff;fill-opacity:1;stroke:#ffffff;stroke-width:1px;stroke-linecap:butt;stroke-linejoin:miter;stroke-opacity:1"
       d="m 499.75864,1018.9175 0,58.6162 c 0,0 -22.8862,0.5705 -27.25552,-15.736 -4.36932,-16.3065 12.33214,-17.0321 27.25552,-42.8802 z"
       id="path3828"
       inkscape:connector-curvature="0" />
    <path
       style="fill:#ffffff;fill-opacity:1;stroke:#ffffff;stroke-width:1px;stroke-linecap:butt;stroke-linejoin:miter;stroke-opacity:1"
       d="m 496.70755,1018.9725 0,58.6161 c 0,0 22.8862,0.5705 27.25552,-15.736 4.36932,-16.3065 -12.33214,-17.0321 -27.25552,-42.8801 z"
       id="path3828-8"
       inkscape:connector-curvature="0" />
    <path
       id="path3062"
       d="m 498.46525,1036.9305 -16.03862,10.0241 h 32.07724 l -16.03862,-10.0241 z m 9.02173,12.0289 1.00241,2.0048 v 12.029 h 4.00966 v -12.029 l 1.00241,-2.0048 h -6.01448 z m -8.01932,0 1.00242,2.0048 v 12.029 h 4.00965 v -12.029 l 1.00242,-2.0048 h -6.01449 z m -8.01931,0 1.00242,2.0048 v 12.029 h 4.00965 v -12.029 l 1.00242,-2.0048 h -6.01449 z m -8.01931,0 1.00241,2.0048 v 12.029 h 4.00966 v -12.029 l 1.00241,-2.0048 h -6.01448 z m 0,16.0387 -1.00241,4.0096 h 32.07724 l -1.00241,-4.0096 h -30.07242 z m 17.04104,-22.0531 c 0,1.1072 -0.8976,2.0048 -2.00483,2.0048 -1.10723,0 -2.00483,-0.8976 -2.00483,-2.0048 0,-1.1072 0.8976,-2.0049 2.00483,-2.0049 1.10723,0 2.00483,0.8977 2.00483,2.0049 z"
       inkscape:connector-curvature="0"
       style="fill:#d35400;fill-opacity:1" />
  </g>
</svg>
