<?xml version="1.0" encoding="UTF-8" standalone="no"?>
<!-- Created with Inkscape (http://www.inkscape.org/) -->

<svg
   xmlns:dc="http://purl.org/dc/elements/1.1/"
   xmlns:cc="http://creativecommons.org/ns#"
   xmlns:rdf="http://www.w3.org/1999/02/22-rdf-syntax-ns#"
   xmlns:svg="http://www.w3.org/2000/svg"
   xmlns="http://www.w3.org/2000/svg"
   xmlns:sodipodi="http://sodipodi.sourceforge.net/DTD/sodipodi-0.dtd"
   xmlns:inkscape="http://www.inkscape.org/namespaces/inkscape"
   width="1000"
   height="300"
   id="svg3063"
   version="1.1"
   inkscape:version="0.48.4 r9939"
   sodipodi:docname="what_infosec_2014.svg"
   inkscape:export-filename="C:\Users\jmwri_000\Documents\jordan-wright.github.com\source\images\headers\sans_holiday_2014.png"
   inkscape:export-xdpi="89.496582"
   inkscape:export-ydpi="89.496582">
  <defs
     id="defs3065"><inkscape:path-effect
   effect="spiro"
   id="path-effect4377"
   is_visible="true" />
<inkscape:path-effect
   effect="spiro"
   id="path-effect4377-1"
   is_visible="true" />

	
	
	
	
	
	
	
	
	
</defs>
  <sodipodi:namedview
     id="base"
     pagecolor="#ffffff"
     bordercolor="#666666"
     borderopacity="1.0"
     inkscape:pageopacity="0.0"
     inkscape:pageshadow="2"
     inkscape:zoom="0.81035689"
     inkscape:cx="506.1478"
     inkscape:cy="155.99185"
     inkscape:current-layer="layer1"
     inkscape:document-units="px"
     showgrid="false"
     inkscape:window-width="1366"
     inkscape:window-height="705"
     inkscape:window-x="-8"
     inkscape:window-y="-8"
     inkscape:window-maximized="1" />
  <metadata
     id="metadata3068">
    <rdf:RDF>
      <cc:Work
         rdf:about="">
        <dc:format>image/svg+xml</dc:format>
        <dc:type
           rdf:resource="http://purl.org/dc/dcmitype/StillImage" />
        <dc:title></dc:title>
      </cc:Work>
    </rdf:RDF>
  </metadata>
  <g
     id="layer1"
     inkscape:label="Layer 1"
     inkscape:groupmode="layer"
     transform="translate(0,-900)">
    <rect
       style="fill:#2c3e50;fill-opacity:1"
       id="rect3955"
       width="1000"
       height="300"
       x="0"
       y="900"
       ry="6" />
    <path
       style="fill:#ffffff"
       d="m 500,950.00029 -87.5,50.00001 0,100 87.5,50 87.5,-50 0,-100 -87.5,-50.00001 z m -0.61963,14.63201 75.22552,43.0053 0,85.9813 -75.22552,42.9906 -75.22551,-42.9906 0,-85.9813 75.22551,-43.0053 z"
       id="path3075"
       inkscape:connector-curvature="0" />
    <g
       id="g4073"
       transform="matrix(2.7256337,0,0,2.7256337,456.28176,1018.5265)">
</g>
    <g
       id="g4075"
       transform="matrix(2.7256337,0,0,2.7256337,456.28176,1018.5265)">
</g>
    <g
       id="g4077"
       transform="matrix(2.7256337,0,0,2.7256337,456.28176,1018.5265)">
</g>
    <g
       id="g4079"
       transform="matrix(2.7256337,0,0,2.7256337,456.28176,1018.5265)">
</g>
    <g
       id="g4081"
       transform="matrix(2.7256337,0,0,2.7256337,456.28176,1018.5265)">
</g>
    <g
       id="g4083"
       transform="matrix(2.7256337,0,0,2.7256337,456.28176,1018.5265)">
</g>
    <g
       id="g4085"
       transform="matrix(2.7256337,0,0,2.7256337,456.28176,1018.5265)">
</g>
    <g
       id="g4087"
       transform="matrix(2.7256337,0,0,2.7256337,456.28176,1018.5265)">
</g>
    <g
       id="g4089"
       transform="matrix(2.7256337,0,0,2.7256337,456.28176,1018.5265)">
</g>
    <g
       id="g4091"
       transform="matrix(2.7256337,0,0,2.7256337,456.28176,1018.5265)">
</g>
    <g
       id="g4093"
       transform="matrix(2.7256337,0,0,2.7256337,456.28176,1018.5265)">
</g>
    <g
       id="g4095"
       transform="matrix(2.7256337,0,0,2.7256337,456.28176,1018.5265)">
</g>
    <g
       id="g4097"
       transform="matrix(2.7256337,0,0,2.7256337,456.28176,1018.5265)">
</g>
    <g
       id="g4099"
       transform="matrix(2.7256337,0,0,2.7256337,456.28176,1018.5265)">
</g>
    <g
       id="g4101"
       transform="matrix(2.7256337,0,0,2.7256337,456.28176,1018.5265)">
</g>
    <g
       id="g4281"
       transform="matrix(1.5150399,0,0,1.5150399,450.0743,1004.1304)"
       style="fill:#ffffff">
	<path
   id="path4283"
   d="M 15.831,18.615 H 7.693 C 7.762,18.545 7.835,18.478 7.91,18.413 8.256,18.116 8.918,17.62 9.879,16.938 l 1.562,-1.107 c 1.35,-0.953 2.34,-1.841 2.943,-2.634 0.941,-1.222 1.419,-2.641 1.419,-4.215 0,-2.05 -0.68,-3.725 -2.02,-4.98 C 12.452,2.755 10.652,2.123 8.431,2.123 5.588,2.123 3.574,3.212 2.445,5.357 1.865,6.459 1.538,7.906 1.472,9.661 L 1.452,10.18 H 6.239 L 6.259,9.7 C 6.301,8.663 6.432,7.91 6.647,7.463 6.987,6.761 7.631,6.419 8.617,6.419 c 0.716,0 1.244,0.215 1.613,0.656 0.391,0.467 0.581,1.046 0.581,1.771 0,0.906 -0.354,1.725 -1.08,2.5 -0.5,0.527 -1.649,1.436 -3.415,2.699 C 4.15,15.59 2.807,17.033 2.219,18.431 1.615,19.665 1.29,21.046 1.252,22.535 l -0.013,0.513 h 14.592 v -4.433 z"
   inkscape:connector-curvature="0"
   style="fill:#ffffff" />

	<path
   id="path4285"
   d="m 24.164,23.539 c 2.706,0 4.639,-0.978 5.746,-2.904 1.056,-1.837 1.592,-4.464 1.592,-7.81 0,-3.345 -0.535,-5.978 -1.591,-7.824 -1.107,-1.937 -3.041,-2.918 -5.747,-2.918 -2.706,0 -4.639,0.981 -5.746,2.918 -1.056,1.847 -1.591,4.479 -1.591,7.824 0,3.345 0.536,5.974 1.591,7.81 1.107,1.927 3.04,2.904 5.746,2.904 z M 22.342,7.674 c 0.306,-0.939 0.885,-1.377 1.822,-1.377 0.935,0 1.507,0.436 1.8,1.371 0.343,1.098 0.517,2.833 0.517,5.157 0,2.218 -0.175,3.93 -0.519,5.087 -0.296,0.992 -0.868,1.455 -1.798,1.455 -0.933,0 -1.511,-0.464 -1.82,-1.46 -0.357,-1.154 -0.538,-2.864 -0.538,-5.082 0,-2.324 0.18,-4.057 0.536,-5.151 z"
   inkscape:connector-curvature="0"
   style="fill:#ffffff" />

	<path
   id="path4287"
   d="M 43.125,23.047 V 2.219 h -4.254 v 0.5 c 0,0.071 -0.017,0.252 -0.13,0.653 -0.15,0.513 -0.368,0.924 -0.647,1.219 -0.425,0.45 -0.966,0.743 -1.654,0.896 -0.46,0.102 -1.299,0.181 -2.492,0.235 L 33.47,5.743 v 3.63 h 4.663 v 13.674 h 4.992 z"
   inkscape:connector-curvature="0"
   style="fill:#ffffff" />

	<path
   id="path4289"
   d="M 60.505,2.343 H 55.347 L 47.84,14.736 v 4.044 h 7.85 v 4.267 h 4.815 V 18.78 h 2.243 V 14.731 H 60.505 V 2.343 z M 52.108,14.731 55.69,8.55 v 6.181 h -3.582 z"
   inkscape:connector-curvature="0"
   style="fill:#ffffff" />

	<rect
   id="rect4291"
   height="1.303"
   width="1.303"
   y="27.516001"
   x="10.899"
   style="fill:#ffffff" />

	<rect
   id="rect4293"
   height="1.303"
   width="1.303"
   y="29.32"
   x="7.29"
   style="fill:#ffffff" />

	<rect
   id="rect4295"
   height="1.303"
   width="1.303"
   y="29.32"
   x="9.0939999"
   style="fill:#ffffff" />

	<rect
   id="rect4297"
   height="1.303"
   width="1.303"
   y="29.32"
   x="10.899"
   style="fill:#ffffff" />

	<rect
   id="rect4299"
   height="1.303"
   width="1.303"
   y="31.125"
   x="7.29"
   style="fill:#ffffff" />

	<rect
   id="rect4301"
   height="1.303"
   width="1.303"
   y="31.125"
   x="9.0939999"
   style="fill:#ffffff" />

	<rect
   id="rect4303"
   height="1.303"
   width="1.303"
   y="31.125"
   x="10.899"
   style="fill:#ffffff" />

	<rect
   id="rect4305"
   height="1.303"
   width="1.303"
   y="31.125"
   x="3.681"
   style="fill:#ffffff" />

	<rect
   id="rect4307"
   height="1.303"
   width="1.303"
   y="31.125"
   x="5.4860001"
   style="fill:#ffffff" />

	<rect
   id="rect4309"
   height="1.303"
   width="1.303"
   y="32.929001"
   x="7.29"
   style="fill:#ffffff" />

	<rect
   id="rect4311"
   height="1.303"
   width="1.303"
   y="32.929001"
   x="9.0939999"
   style="fill:#ffffff" />

	<rect
   id="rect4313"
   height="1.303"
   width="1.303"
   y="32.929001"
   x="10.899"
   style="fill:#ffffff" />

	<rect
   id="rect4315"
   height="1.303"
   width="1.303"
   y="27.516001"
   x="12.784"
   style="fill:#ffffff" />

	<rect
   id="rect4317"
   height="1.303"
   width="1.303"
   y="27.516001"
   x="7.29"
   style="fill:#ffffff" />

	<rect
   id="rect4319"
   height="1.303"
   width="1.303"
   y="27.516001"
   x="9.1759996"
   style="fill:#ffffff" />

	<rect
   id="rect4321"
   height="1.303"
   width="1.303"
   y="29.32"
   x="12.784"
   style="fill:#ffffff" />

	<rect
   id="rect4323"
   height="1.303"
   width="1.303"
   y="31.125"
   x="12.784"
   style="fill:#ffffff" />

	<rect
   id="rect4325"
   height="1.303"
   width="1.303"
   y="32.929001"
   x="12.784"
   style="fill:#ffffff" />

	<rect
   id="rect4327"
   height="1.303"
   width="1.303"
   y="32.929001"
   x="3.681"
   style="fill:#ffffff" />

	<rect
   id="rect4329"
   height="1.303"
   width="1.303"
   y="32.929001"
   x="5.4860001"
   style="fill:#ffffff" />

	<rect
   id="rect4331"
   height="1.303"
   width="1.303"
   y="34.733002"
   x="7.29"
   style="fill:#ffffff" />

	<rect
   id="rect4333"
   height="1.303"
   width="1.303"
   y="34.733002"
   x="3.681"
   style="fill:#ffffff" />

	<rect
   id="rect4335"
   height="1.303"
   width="1.303"
   y="34.733002"
   x="5.4860001"
   style="fill:#ffffff" />

	<rect
   id="rect4337"
   height="1.303"
   width="1.303"
   y="29.32"
   x="3.681"
   style="fill:#ffffff" />

	<rect
   id="rect4339"
   height="1.303"
   width="1.303"
   y="31.125"
   x="1.9119999"
   style="fill:#ffffff" />

	<rect
   id="rect4341"
   height="1.303"
   width="1.303"
   y="32.929001"
   x="1.9119999"
   style="fill:#ffffff" />

	<rect
   id="rect4343"
   height="1.303"
   width="1.303"
   y="34.733002"
   x="1.9119999"
   style="fill:#ffffff" />

	<rect
   id="rect4345"
   height="1.303"
   width="1.303"
   y="29.32"
   x="1.9119999"
   style="fill:#ffffff" />

	<rect
   id="rect4347"
   height="1.303"
   width="1.303"
   y="29.32"
   x="5.4860001"
   style="fill:#ffffff" />

	<rect
   id="rect4349"
   height="1.303"
   width="1.303"
   y="40.033001"
   x="10.899"
   style="fill:#ffffff" />

	<rect
   id="rect4351"
   height="1.303"
   width="1.303"
   y="41.838001"
   x="7.29"
   style="fill:#ffffff" />

	<rect
   id="rect4353"
   height="1.303"
   width="1.303"
   y="41.838001"
   x="9.0939999"
   style="fill:#ffffff" />

	<rect
   id="rect4355"
   height="1.303"
   width="1.303"
   y="41.838001"
   x="10.899"
   style="fill:#ffffff" />

	<rect
   id="rect4357"
   height="1.303"
   width="1.303"
   y="43.641998"
   x="7.29"
   style="fill:#ffffff" />

	<rect
   id="rect4359"
   height="1.303"
   width="1.303"
   y="43.641998"
   x="9.0939999"
   style="fill:#ffffff" />

	<rect
   id="rect4361"
   height="1.303"
   width="1.303"
   y="43.641998"
   x="10.899"
   style="fill:#ffffff" />

	<rect
   id="rect4363"
   height="1.303"
   width="1.303"
   y="43.641998"
   x="3.681"
   style="fill:#ffffff" />

	<rect
   id="rect4365"
   height="1.303"
   width="1.303"
   y="43.641998"
   x="5.4860001"
   style="fill:#ffffff" />

	<rect
   id="rect4367"
   height="1.303"
   width="1.303"
   y="45.445999"
   x="7.29"
   style="fill:#ffffff" />

	<rect
   id="rect4369"
   height="1.303"
   width="1.303"
   y="45.445999"
   x="9.0939999"
   style="fill:#ffffff" />

	<rect
   id="rect4371"
   height="1.303"
   width="1.303"
   y="45.445999"
   x="10.899"
   style="fill:#ffffff" />

	<rect
   id="rect4373"
   height="1.303"
   width="1.303"
   y="40.033001"
   x="12.784"
   style="fill:#ffffff" />

	<rect
   id="rect4375"
   height="1.303"
   width="1.303"
   y="40.033001"
   x="7.29"
   style="fill:#ffffff" />

	<rect
   id="rect4377"
   height="1.303"
   width="1.303"
   y="40.033001"
   x="9.1759996"
   style="fill:#ffffff" />

	<rect
   id="rect4379"
   height="1.303"
   width="1.303"
   y="41.838001"
   x="12.784"
   style="fill:#ffffff" />

	<rect
   id="rect4381"
   height="1.303"
   width="1.303"
   y="43.641998"
   x="12.784"
   style="fill:#ffffff" />

	<rect
   id="rect4383"
   height="1.303"
   width="1.303"
   y="45.445999"
   x="12.784"
   style="fill:#ffffff" />

	<rect
   id="rect4385"
   height="1.303"
   width="1.303"
   y="45.445999"
   x="3.681"
   style="fill:#ffffff" />

	<rect
   id="rect4387"
   height="1.303"
   width="1.303"
   y="45.445999"
   x="5.4860001"
   style="fill:#ffffff" />

	<rect
   id="rect4389"
   height="1.303"
   width="1.303"
   y="47.250999"
   x="7.29"
   style="fill:#ffffff" />

	<rect
   id="rect4391"
   height="1.303"
   width="1.303"
   y="47.250999"
   x="3.681"
   style="fill:#ffffff" />

	<rect
   id="rect4393"
   height="1.303"
   width="1.303"
   y="47.250999"
   x="5.4860001"
   style="fill:#ffffff" />

	<rect
   id="rect4395"
   height="1.303"
   width="1.303"
   y="41.838001"
   x="3.681"
   style="fill:#ffffff" />

	<rect
   id="rect4397"
   height="1.303"
   width="1.303"
   y="43.641998"
   x="1.9119999"
   style="fill:#ffffff" />

	<rect
   id="rect4399"
   height="1.303"
   width="1.303"
   y="45.445999"
   x="1.9119999"
   style="fill:#ffffff" />

	<rect
   id="rect4401"
   height="1.303"
   width="1.303"
   y="47.250999"
   x="1.9119999"
   style="fill:#ffffff" />

	<rect
   id="rect4403"
   height="1.303"
   width="1.303"
   y="41.838001"
   x="1.9119999"
   style="fill:#ffffff" />

	<rect
   id="rect4405"
   height="1.303"
   width="1.303"
   y="41.838001"
   x="5.4860001"
   style="fill:#ffffff" />

	<path
   id="path4407"
   d="m 13.936,38.506 c 0,-0.276 -0.224,-0.5 -0.5,-0.5 H 2.564 c -0.276,0 -0.5,0.224 -0.5,0.5 0,0.276 0.224,0.5 0.5,0.5 h 10.872 c 0.276,0 0.5,-0.224 0.5,-0.5 z"
   inkscape:connector-curvature="0"
   style="fill:#ffffff" />

	<rect
   id="rect4409"
   height="1.303"
   width="1.303"
   y="52.479"
   x="10.899"
   style="fill:#ffffff" />

	<rect
   id="rect4411"
   height="1.303"
   width="1.303"
   y="54.284"
   x="7.29"
   style="fill:#ffffff" />

	<rect
   id="rect4413"
   height="1.303"
   width="1.303"
   y="54.284"
   x="9.0939999"
   style="fill:#ffffff" />

	<rect
   id="rect4415"
   height="1.303"
   width="1.303"
   y="54.284"
   x="10.899"
   style="fill:#ffffff" />

	<rect
   id="rect4417"
   height="1.303"
   width="1.303"
   y="56.088001"
   x="7.29"
   style="fill:#ffffff" />

	<rect
   id="rect4419"
   height="1.303"
   width="1.303"
   y="56.088001"
   x="9.0939999"
   style="fill:#ffffff" />

	<rect
   id="rect4421"
   height="1.303"
   width="1.303"
   y="56.088001"
   x="10.899"
   style="fill:#ffffff" />

	<rect
   id="rect4423"
   height="1.303"
   width="1.303"
   y="56.088001"
   x="3.681"
   style="fill:#ffffff" />

	<rect
   id="rect4425"
   height="1.303"
   width="1.303"
   y="56.088001"
   x="5.4860001"
   style="fill:#ffffff" />

	<rect
   id="rect4427"
   height="1.303"
   width="1.303"
   y="57.891998"
   x="7.29"
   style="fill:#ffffff" />

	<rect
   id="rect4429"
   height="1.303"
   width="1.303"
   y="57.891998"
   x="9.0939999"
   style="fill:#ffffff" />

	<rect
   id="rect4431"
   height="1.303"
   width="1.303"
   y="57.891998"
   x="10.899"
   style="fill:#ffffff" />

	<rect
   id="rect4433"
   height="1.303"
   width="1.303"
   y="52.479"
   x="12.784"
   style="fill:#ffffff" />

	<rect
   id="rect4435"
   height="1.303"
   width="1.303"
   y="52.479"
   x="7.29"
   style="fill:#ffffff" />

	<rect
   id="rect4437"
   height="1.303"
   width="1.303"
   y="52.479"
   x="9.1759996"
   style="fill:#ffffff" />

	<rect
   id="rect4439"
   height="1.303"
   width="1.303"
   y="54.284"
   x="12.784"
   style="fill:#ffffff" />

	<rect
   id="rect4441"
   height="1.303"
   width="1.303"
   y="56.088001"
   x="12.784"
   style="fill:#ffffff" />

	<rect
   id="rect4443"
   height="1.303"
   width="1.303"
   y="57.891998"
   x="12.784"
   style="fill:#ffffff" />

	<rect
   id="rect4445"
   height="1.303"
   width="1.303"
   y="57.891998"
   x="3.681"
   style="fill:#ffffff" />

	<rect
   id="rect4447"
   height="1.303"
   width="1.303"
   y="57.891998"
   x="5.4860001"
   style="fill:#ffffff" />

	<rect
   id="rect4449"
   height="1.303"
   width="1.303"
   y="59.696999"
   x="7.29"
   style="fill:#ffffff" />

	<rect
   id="rect4451"
   height="1.303"
   width="1.303"
   y="59.696999"
   x="3.681"
   style="fill:#ffffff" />

	<rect
   id="rect4453"
   height="1.303"
   width="1.303"
   y="59.696999"
   x="5.4860001"
   style="fill:#ffffff" />

	<rect
   id="rect4455"
   height="1.303"
   width="1.303"
   y="54.284"
   x="3.681"
   style="fill:#ffffff" />

	<rect
   id="rect4457"
   height="1.303"
   width="1.303"
   y="56.088001"
   x="1.9119999"
   style="fill:#ffffff" />

	<rect
   id="rect4459"
   height="1.303"
   width="1.303"
   y="57.891998"
   x="1.9119999"
   style="fill:#ffffff" />

	<rect
   id="rect4461"
   height="1.303"
   width="1.303"
   y="59.696999"
   x="1.9119999"
   style="fill:#ffffff" />

	<rect
   id="rect4463"
   height="1.303"
   width="1.303"
   y="54.284"
   x="1.9119999"
   style="fill:#ffffff" />

	<rect
   id="rect4465"
   height="1.303"
   width="1.303"
   y="54.284"
   x="5.4860001"
   style="fill:#ffffff" />

	<path
   id="path4467"
   d="m 2.564,51.452 h 10.872 c 0.276,0 0.5,-0.224 0.5,-0.5 0,-0.276 -0.224,-0.5 -0.5,-0.5 H 2.564 c -0.276,0 -0.5,0.224 -0.5,0.5 0,0.276 0.224,0.5 0.5,0.5 z"
   inkscape:connector-curvature="0"
   style="fill:#ffffff" />

	<rect
   id="rect4469"
   height="1.303"
   width="1.303"
   y="27.516001"
   x="26.899"
   style="fill:#ffffff" />

	<rect
   id="rect4471"
   height="1.303"
   width="1.303"
   y="29.32"
   x="23.290001"
   style="fill:#ffffff" />

	<rect
   id="rect4473"
   height="1.303"
   width="1.303"
   y="29.32"
   x="25.094"
   style="fill:#ffffff" />

	<rect
   id="rect4475"
   height="1.303"
   width="1.303"
   y="29.32"
   x="26.899"
   style="fill:#ffffff" />

	<rect
   id="rect4477"
   height="1.303"
   width="1.303"
   y="31.125"
   x="23.290001"
   style="fill:#ffffff" />

	<rect
   id="rect4479"
   height="1.303"
   width="1.303"
   y="31.125"
   x="25.094"
   style="fill:#ffffff" />

	<rect
   id="rect4481"
   height="1.303"
   width="1.303"
   y="31.125"
   x="26.899"
   style="fill:#ffffff" />

	<rect
   id="rect4483"
   height="1.303"
   width="1.303"
   y="31.125"
   x="19.681"
   style="fill:#ffffff" />

	<rect
   id="rect4485"
   height="1.303"
   width="1.303"
   y="31.125"
   x="21.486"
   style="fill:#ffffff" />

	<rect
   id="rect4487"
   height="1.303"
   width="1.303"
   y="32.929001"
   x="23.290001"
   style="fill:#ffffff" />

	<rect
   id="rect4489"
   height="1.303"
   width="1.303"
   y="32.929001"
   x="25.094"
   style="fill:#ffffff" />

	<rect
   id="rect4491"
   height="1.303"
   width="1.303"
   y="32.929001"
   x="26.899"
   style="fill:#ffffff" />

	<rect
   id="rect4493"
   height="1.303"
   width="1.303"
   y="27.516001"
   x="28.784"
   style="fill:#ffffff" />

	<rect
   id="rect4495"
   height="1.303"
   width="1.303"
   y="27.516001"
   x="23.290001"
   style="fill:#ffffff" />

	<rect
   id="rect4497"
   height="1.303"
   width="1.303"
   y="27.516001"
   x="25.176001"
   style="fill:#ffffff" />

	<rect
   id="rect4499"
   height="1.303"
   width="1.303"
   y="29.32"
   x="28.784"
   style="fill:#ffffff" />

	<rect
   id="rect4501"
   height="1.303"
   width="1.303"
   y="31.125"
   x="28.784"
   style="fill:#ffffff" />

	<rect
   id="rect4503"
   height="1.303"
   width="1.303"
   y="32.929001"
   x="28.784"
   style="fill:#ffffff" />

	<rect
   id="rect4505"
   height="1.303"
   width="1.303"
   y="32.929001"
   x="19.681"
   style="fill:#ffffff" />

	<rect
   id="rect4507"
   height="1.303"
   width="1.303"
   y="32.929001"
   x="21.486"
   style="fill:#ffffff" />

	<rect
   id="rect4509"
   height="1.303"
   width="1.303"
   y="34.733002"
   x="23.290001"
   style="fill:#ffffff" />

	<rect
   id="rect4511"
   height="1.303"
   width="1.303"
   y="34.733002"
   x="19.681"
   style="fill:#ffffff" />

	<rect
   id="rect4513"
   height="1.303"
   width="1.303"
   y="34.733002"
   x="21.486"
   style="fill:#ffffff" />

	<rect
   id="rect4515"
   height="1.303"
   width="1.303"
   y="29.32"
   x="19.681"
   style="fill:#ffffff" />

	<rect
   id="rect4517"
   height="1.303"
   width="1.303"
   y="31.125"
   x="17.912001"
   style="fill:#ffffff" />

	<rect
   id="rect4519"
   height="1.303"
   width="1.303"
   y="32.929001"
   x="17.912001"
   style="fill:#ffffff" />

	<rect
   id="rect4521"
   height="1.303"
   width="1.303"
   y="34.733002"
   x="17.912001"
   style="fill:#ffffff" />

	<rect
   id="rect4523"
   height="1.303"
   width="1.303"
   y="29.32"
   x="17.912001"
   style="fill:#ffffff" />

	<rect
   id="rect4525"
   height="1.303"
   width="1.303"
   y="29.32"
   x="21.486"
   style="fill:#ffffff" />

	<rect
   id="rect4527"
   height="1.303"
   width="1.303"
   y="40.033001"
   x="26.899"
   style="fill:#ffffff" />

	<rect
   id="rect4529"
   height="1.303"
   width="1.303"
   y="41.838001"
   x="23.290001"
   style="fill:#ffffff" />

	<rect
   id="rect4531"
   height="1.303"
   width="1.303"
   y="41.838001"
   x="25.094"
   style="fill:#ffffff" />

	<rect
   id="rect4533"
   height="1.303"
   width="1.303"
   y="41.838001"
   x="26.899"
   style="fill:#ffffff" />

	<rect
   id="rect4535"
   height="1.303"
   width="1.303"
   y="43.641998"
   x="23.290001"
   style="fill:#ffffff" />

	<rect
   id="rect4537"
   height="1.303"
   width="1.303"
   y="43.641998"
   x="25.094"
   style="fill:#ffffff" />

	<rect
   id="rect4539"
   height="1.303"
   width="1.303"
   y="43.641998"
   x="26.899"
   style="fill:#ffffff" />

	<rect
   id="rect4541"
   height="1.303"
   width="1.303"
   y="43.641998"
   x="19.681"
   style="fill:#ffffff" />

	<rect
   id="rect4543"
   height="1.303"
   width="1.303"
   y="43.641998"
   x="21.486"
   style="fill:#ffffff" />

	<rect
   id="rect4545"
   height="1.303"
   width="1.303"
   y="45.445999"
   x="23.290001"
   style="fill:#ffffff" />

	<rect
   id="rect4547"
   height="1.303"
   width="1.303"
   y="45.445999"
   x="25.094"
   style="fill:#ffffff" />

	<rect
   id="rect4549"
   height="1.303"
   width="1.303"
   y="45.445999"
   x="26.899"
   style="fill:#ffffff" />

	<rect
   id="rect4551"
   height="1.303"
   width="1.303"
   y="40.033001"
   x="28.784"
   style="fill:#ffffff" />

	<rect
   id="rect4553"
   height="1.303"
   width="1.303"
   y="40.033001"
   x="23.290001"
   style="fill:#ffffff" />

	<rect
   id="rect4555"
   height="1.303"
   width="1.303"
   y="40.033001"
   x="25.176001"
   style="fill:#ffffff" />

	<rect
   id="rect4557"
   height="1.303"
   width="1.303"
   y="41.838001"
   x="28.784"
   style="fill:#ffffff" />

	<rect
   id="rect4559"
   height="1.303"
   width="1.303"
   y="43.641998"
   x="28.784"
   style="fill:#ffffff" />

	<rect
   id="rect4561"
   height="1.303"
   width="1.303"
   y="45.445999"
   x="28.784"
   style="fill:#ffffff" />

	<rect
   id="rect4563"
   height="1.303"
   width="1.303"
   y="45.445999"
   x="19.681"
   style="fill:#ffffff" />

	<rect
   id="rect4565"
   height="1.303"
   width="1.303"
   y="45.445999"
   x="21.486"
   style="fill:#ffffff" />

	<rect
   id="rect4567"
   height="1.303"
   width="1.303"
   y="47.250999"
   x="23.290001"
   style="fill:#ffffff" />

	<rect
   id="rect4569"
   height="1.303"
   width="1.303"
   y="47.250999"
   x="19.681"
   style="fill:#ffffff" />

	<rect
   id="rect4571"
   height="1.303"
   width="1.303"
   y="47.250999"
   x="21.486"
   style="fill:#ffffff" />

	<rect
   id="rect4573"
   height="1.303"
   width="1.303"
   y="41.838001"
   x="19.681"
   style="fill:#ffffff" />

	<rect
   id="rect4575"
   height="1.303"
   width="1.303"
   y="43.641998"
   x="17.912001"
   style="fill:#ffffff" />

	<rect
   id="rect4577"
   height="1.303"
   width="1.303"
   y="45.445999"
   x="17.912001"
   style="fill:#ffffff" />

	<rect
   id="rect4579"
   height="1.303"
   width="1.303"
   y="47.250999"
   x="17.912001"
   style="fill:#ffffff" />

	<rect
   id="rect4581"
   height="1.303"
   width="1.303"
   y="41.838001"
   x="17.912001"
   style="fill:#ffffff" />

	<rect
   id="rect4583"
   height="1.303"
   width="1.303"
   y="41.838001"
   x="21.486"
   style="fill:#ffffff" />

	<path
   id="path4585"
   d="m 29.936,38.506 c 0,-0.276 -0.224,-0.5 -0.5,-0.5 H 18.564 c -0.276,0 -0.5,0.224 -0.5,0.5 0,0.276 0.224,0.5 0.5,0.5 h 10.872 c 0.276,0 0.5,-0.224 0.5,-0.5 z"
   inkscape:connector-curvature="0"
   style="fill:#ffffff" />

	<rect
   id="rect4587"
   height="1.303"
   width="1.303"
   y="52.479"
   x="26.899"
   style="fill:#ffffff" />

	<rect
   id="rect4589"
   height="1.303"
   width="1.303"
   y="54.284"
   x="23.290001"
   style="fill:#ffffff" />

	<rect
   id="rect4591"
   height="1.303"
   width="1.303"
   y="54.284"
   x="25.094"
   style="fill:#ffffff" />

	<rect
   id="rect4593"
   height="1.303"
   width="1.303"
   y="54.284"
   x="26.899"
   style="fill:#ffffff" />

	<rect
   id="rect4595"
   height="1.303"
   width="1.303"
   y="56.088001"
   x="23.290001"
   style="fill:#ffffff" />

	<rect
   id="rect4597"
   height="1.303"
   width="1.303"
   y="56.088001"
   x="25.094"
   style="fill:#ffffff" />

	<rect
   id="rect4599"
   height="1.303"
   width="1.303"
   y="56.088001"
   x="26.899"
   style="fill:#ffffff" />

	<rect
   id="rect4601"
   height="1.303"
   width="1.303"
   y="56.088001"
   x="19.681"
   style="fill:#ffffff" />

	<rect
   id="rect4603"
   height="1.303"
   width="1.303"
   y="56.088001"
   x="21.486"
   style="fill:#ffffff" />

	<rect
   id="rect4605"
   height="1.303"
   width="1.303"
   y="57.891998"
   x="23.290001"
   style="fill:#ffffff" />

	<rect
   id="rect4607"
   height="1.303"
   width="1.303"
   y="57.891998"
   x="25.094"
   style="fill:#ffffff" />

	<rect
   id="rect4609"
   height="1.303"
   width="1.303"
   y="57.891998"
   x="26.899"
   style="fill:#ffffff" />

	<rect
   id="rect4611"
   height="1.303"
   width="1.303"
   y="52.479"
   x="28.784"
   style="fill:#ffffff" />

	<rect
   id="rect4613"
   height="1.303"
   width="1.303"
   y="52.479"
   x="23.290001"
   style="fill:#ffffff" />

	<rect
   id="rect4615"
   height="1.303"
   width="1.303"
   y="52.479"
   x="25.176001"
   style="fill:#ffffff" />

	<rect
   id="rect4617"
   height="1.303"
   width="1.303"
   y="54.284"
   x="28.784"
   style="fill:#ffffff" />

	<rect
   id="rect4619"
   height="1.303"
   width="1.303"
   y="56.088001"
   x="28.784"
   style="fill:#ffffff" />

	<rect
   id="rect4621"
   height="1.303"
   width="1.303"
   y="57.891998"
   x="28.784"
   style="fill:#ffffff" />

	<rect
   id="rect4623"
   height="1.303"
   width="1.303"
   y="57.891998"
   x="19.681"
   style="fill:#ffffff" />

	<rect
   id="rect4625"
   height="1.303"
   width="1.303"
   y="57.891998"
   x="21.486"
   style="fill:#ffffff" />

	<rect
   id="rect4627"
   height="1.303"
   width="1.303"
   y="59.696999"
   x="23.290001"
   style="fill:#ffffff" />

	<rect
   id="rect4629"
   height="1.303"
   width="1.303"
   y="59.696999"
   x="19.681"
   style="fill:#ffffff" />

	<rect
   id="rect4631"
   height="1.303"
   width="1.303"
   y="59.696999"
   x="21.486"
   style="fill:#ffffff" />

	<rect
   id="rect4633"
   height="1.303"
   width="1.303"
   y="54.284"
   x="19.681"
   style="fill:#ffffff" />

	<rect
   id="rect4635"
   height="1.303"
   width="1.303"
   y="56.088001"
   x="17.912001"
   style="fill:#ffffff" />

	<rect
   id="rect4637"
   height="1.303"
   width="1.303"
   y="57.891998"
   x="17.912001"
   style="fill:#ffffff" />

	<rect
   id="rect4639"
   height="1.303"
   width="1.303"
   y="59.696999"
   x="17.912001"
   style="fill:#ffffff" />

	<rect
   id="rect4641"
   height="1.303"
   width="1.303"
   y="54.284"
   x="17.912001"
   style="fill:#ffffff" />

	<rect
   id="rect4643"
   height="1.303"
   width="1.303"
   y="54.284"
   x="21.486"
   style="fill:#ffffff" />

	<path
   id="path4645"
   d="m 18.564,51.452 h 10.872 c 0.276,0 0.5,-0.224 0.5,-0.5 0,-0.276 -0.224,-0.5 -0.5,-0.5 H 18.564 c -0.276,0 -0.5,0.224 -0.5,0.5 0,0.276 0.224,0.5 0.5,0.5 z"
   inkscape:connector-curvature="0"
   style="fill:#ffffff" />

	<rect
   id="rect4647"
   height="1.303"
   width="1.303"
   y="27.516001"
   x="42.898998"
   style="fill:#ffffff" />

	<rect
   id="rect4649"
   height="1.303"
   width="1.303"
   y="29.32"
   x="39.290001"
   style="fill:#ffffff" />

	<rect
   id="rect4651"
   height="1.303"
   width="1.303"
   y="29.32"
   x="41.094002"
   style="fill:#ffffff" />

	<rect
   id="rect4653"
   height="1.303"
   width="1.303"
   y="29.32"
   x="42.898998"
   style="fill:#ffffff" />

	<rect
   id="rect4655"
   height="1.303"
   width="1.303"
   y="31.125"
   x="39.290001"
   style="fill:#ffffff" />

	<rect
   id="rect4657"
   height="1.303"
   width="1.303"
   y="31.125"
   x="41.094002"
   style="fill:#ffffff" />

	<rect
   id="rect4659"
   height="1.303"
   width="1.303"
   y="31.125"
   x="42.898998"
   style="fill:#ffffff" />

	<rect
   id="rect4661"
   height="1.303"
   width="1.303"
   y="31.125"
   x="35.681"
   style="fill:#ffffff" />

	<rect
   id="rect4663"
   height="1.303"
   width="1.303"
   y="31.125"
   x="37.486"
   style="fill:#ffffff" />

	<rect
   id="rect4665"
   height="1.303"
   width="1.303"
   y="32.929001"
   x="39.290001"
   style="fill:#ffffff" />

	<rect
   id="rect4667"
   height="1.303"
   width="1.303"
   y="32.929001"
   x="41.094002"
   style="fill:#ffffff" />

	<rect
   id="rect4669"
   height="1.303"
   width="1.303"
   y="32.929001"
   x="42.898998"
   style="fill:#ffffff" />

	<rect
   id="rect4671"
   height="1.303"
   width="1.303"
   y="27.516001"
   x="44.784"
   style="fill:#ffffff" />

	<rect
   id="rect4673"
   height="1.303"
   width="1.303"
   y="27.516001"
   x="39.290001"
   style="fill:#ffffff" />

	<rect
   id="rect4675"
   height="1.303"
   width="1.303"
   y="27.516001"
   x="41.175999"
   style="fill:#ffffff" />

	<rect
   id="rect4677"
   height="1.303"
   width="1.303"
   y="29.32"
   x="44.784"
   style="fill:#ffffff" />

	<rect
   id="rect4679"
   height="1.303"
   width="1.303"
   y="31.125"
   x="44.784"
   style="fill:#ffffff" />

	<rect
   id="rect4681"
   height="1.303"
   width="1.303"
   y="32.929001"
   x="44.784"
   style="fill:#ffffff" />

	<rect
   id="rect4683"
   height="1.303"
   width="1.303"
   y="32.929001"
   x="35.681"
   style="fill:#ffffff" />

	<rect
   id="rect4685"
   height="1.303"
   width="1.303"
   y="32.929001"
   x="37.486"
   style="fill:#ffffff" />

	<rect
   id="rect4687"
   height="1.303"
   width="1.303"
   y="34.733002"
   x="39.290001"
   style="fill:#ffffff" />

	<rect
   id="rect4689"
   height="1.303"
   width="1.303"
   y="34.733002"
   x="35.681"
   style="fill:#ffffff" />

	<rect
   id="rect4691"
   height="1.303"
   width="1.303"
   y="34.733002"
   x="37.486"
   style="fill:#ffffff" />

	<rect
   id="rect4693"
   height="1.303"
   width="1.303"
   y="29.32"
   x="35.681"
   style="fill:#ffffff" />

	<rect
   id="rect4695"
   height="1.303"
   width="1.303"
   y="31.125"
   x="33.911999"
   style="fill:#ffffff" />

	<rect
   id="rect4697"
   height="1.303"
   width="1.303"
   y="32.929001"
   x="33.911999"
   style="fill:#ffffff" />

	<rect
   id="rect4699"
   height="1.303"
   width="1.303"
   y="34.733002"
   x="33.911999"
   style="fill:#ffffff" />

	<rect
   id="rect4701"
   height="1.303"
   width="1.303"
   y="29.32"
   x="33.911999"
   style="fill:#ffffff" />

	<rect
   id="rect4703"
   height="1.303"
   width="1.303"
   y="29.32"
   x="37.486"
   style="fill:#ffffff" />

	<rect
   id="rect4705"
   height="1.303"
   width="1.303"
   y="40.033001"
   x="42.898998"
   style="fill:#ffffff" />

	<rect
   id="rect4707"
   height="1.303"
   width="1.303"
   y="41.838001"
   x="39.290001"
   style="fill:#ffffff" />

	<rect
   id="rect4709"
   height="1.303"
   width="1.303"
   y="41.838001"
   x="41.094002"
   style="fill:#ffffff" />

	<rect
   id="rect4711"
   height="1.303"
   width="1.303"
   y="41.838001"
   x="42.898998"
   style="fill:#ffffff" />

	<rect
   id="rect4713"
   height="1.303"
   width="1.303"
   y="43.641998"
   x="39.290001"
   style="fill:#ffffff" />

	<rect
   id="rect4715"
   height="1.303"
   width="1.303"
   y="43.641998"
   x="41.094002"
   style="fill:#ffffff" />

	<rect
   id="rect4717"
   height="1.303"
   width="1.303"
   y="43.641998"
   x="42.898998"
   style="fill:#ffffff" />

	<rect
   id="rect4719"
   height="1.303"
   width="1.303"
   y="43.641998"
   x="35.681"
   style="fill:#ffffff" />

	<rect
   id="rect4721"
   height="1.303"
   width="1.303"
   y="43.641998"
   x="37.486"
   style="fill:#ffffff" />

	<rect
   id="rect4723"
   height="1.303"
   width="1.303"
   y="45.445999"
   x="39.290001"
   style="fill:#ffffff" />

	<rect
   id="rect4725"
   height="1.303"
   width="1.303"
   y="45.445999"
   x="41.094002"
   style="fill:#ffffff" />

	<rect
   id="rect4727"
   height="1.303"
   width="1.303"
   y="45.445999"
   x="42.898998"
   style="fill:#ffffff" />

	<rect
   id="rect4729"
   height="1.303"
   width="1.303"
   y="40.033001"
   x="44.784"
   style="fill:#ffffff" />

	<rect
   id="rect4731"
   height="1.303"
   width="1.303"
   y="40.033001"
   x="39.290001"
   style="fill:#ffffff" />

	<rect
   id="rect4733"
   height="1.303"
   width="1.303"
   y="40.033001"
   x="41.175999"
   style="fill:#ffffff" />

	<rect
   id="rect4735"
   height="1.303"
   width="1.303"
   y="41.838001"
   x="44.784"
   style="fill:#ffffff" />

	<rect
   id="rect4737"
   height="1.303"
   width="1.303"
   y="43.641998"
   x="44.784"
   style="fill:#ffffff" />

	<rect
   id="rect4739"
   height="1.303"
   width="1.303"
   y="45.445999"
   x="44.784"
   style="fill:#ffffff" />

	<rect
   id="rect4741"
   height="1.303"
   width="1.303"
   y="45.445999"
   x="35.681"
   style="fill:#ffffff" />

	<rect
   id="rect4743"
   height="1.303"
   width="1.303"
   y="45.445999"
   x="37.486"
   style="fill:#ffffff" />

	<rect
   id="rect4745"
   height="1.303"
   width="1.303"
   y="47.250999"
   x="39.290001"
   style="fill:#ffffff" />

	<rect
   id="rect4747"
   height="1.303"
   width="1.303"
   y="47.250999"
   x="35.681"
   style="fill:#ffffff" />

	<rect
   id="rect4749"
   height="1.303"
   width="1.303"
   y="47.250999"
   x="37.486"
   style="fill:#ffffff" />

	<rect
   id="rect4751"
   height="1.303"
   width="1.303"
   y="41.838001"
   x="35.681"
   style="fill:#ffffff" />

	<rect
   id="rect4753"
   height="1.303"
   width="1.303"
   y="43.641998"
   x="33.911999"
   style="fill:#ffffff" />

	<rect
   id="rect4755"
   height="1.303"
   width="1.303"
   y="45.445999"
   x="33.911999"
   style="fill:#ffffff" />

	<rect
   id="rect4757"
   height="1.303"
   width="1.303"
   y="47.250999"
   x="33.911999"
   style="fill:#ffffff" />

	<rect
   id="rect4759"
   height="1.303"
   width="1.303"
   y="41.838001"
   x="33.911999"
   style="fill:#ffffff" />

	<rect
   id="rect4761"
   height="1.303"
   width="1.303"
   y="41.838001"
   x="37.486"
   style="fill:#ffffff" />

	<path
   id="path4763"
   d="m 45.936,38.506 c 0,-0.276 -0.224,-0.5 -0.5,-0.5 H 34.564 c -0.276,0 -0.5,0.224 -0.5,0.5 0,0.276 0.224,0.5 0.5,0.5 h 10.872 c 0.276,0 0.5,-0.224 0.5,-0.5 z"
   inkscape:connector-curvature="0"
   style="fill:#ffffff" />

	<rect
   id="rect4765"
   height="1.303"
   width="1.303"
   y="52.479"
   x="42.898998"
   style="fill:#ffffff" />

	<rect
   id="rect4767"
   height="1.303"
   width="1.303"
   y="54.284"
   x="39.290001"
   style="fill:#ffffff" />

	<rect
   id="rect4769"
   height="1.303"
   width="1.303"
   y="54.284"
   x="41.094002"
   style="fill:#ffffff" />

	<rect
   id="rect4771"
   height="1.303"
   width="1.303"
   y="54.284"
   x="42.898998"
   style="fill:#ffffff" />

	<rect
   id="rect4773"
   height="1.303"
   width="1.303"
   y="56.088001"
   x="39.290001"
   style="fill:#ffffff" />

	<rect
   id="rect4775"
   height="1.303"
   width="1.303"
   y="56.088001"
   x="41.094002"
   style="fill:#ffffff" />

	<rect
   id="rect4777"
   height="1.303"
   width="1.303"
   y="56.088001"
   x="42.898998"
   style="fill:#ffffff" />

	<rect
   id="rect4779"
   height="1.303"
   width="1.303"
   y="56.088001"
   x="35.681"
   style="fill:#ffffff" />

	<rect
   id="rect4781"
   height="1.303"
   width="1.303"
   y="56.088001"
   x="37.486"
   style="fill:#ffffff" />

	<rect
   id="rect4783"
   height="1.303"
   width="1.303"
   y="57.891998"
   x="39.290001"
   style="fill:#ffffff" />

	<rect
   id="rect4785"
   height="1.303"
   width="1.303"
   y="57.891998"
   x="41.094002"
   style="fill:#ffffff" />

	<rect
   id="rect4787"
   height="1.303"
   width="1.303"
   y="57.891998"
   x="42.898998"
   style="fill:#ffffff" />

	<rect
   id="rect4789"
   height="1.303"
   width="1.303"
   y="52.479"
   x="44.784"
   style="fill:#ffffff" />

	<rect
   id="rect4791"
   height="1.303"
   width="1.303"
   y="52.479"
   x="39.290001"
   style="fill:#ffffff" />

	<rect
   id="rect4793"
   height="1.303"
   width="1.303"
   y="52.479"
   x="41.175999"
   style="fill:#ffffff" />

	<rect
   id="rect4795"
   height="1.303"
   width="1.303"
   y="54.284"
   x="44.784"
   style="fill:#ffffff" />

	<rect
   id="rect4797"
   height="1.303"
   width="1.303"
   y="56.088001"
   x="44.784"
   style="fill:#ffffff" />

	<rect
   id="rect4799"
   height="1.303"
   width="1.303"
   y="57.891998"
   x="44.784"
   style="fill:#ffffff" />

	<rect
   id="rect4801"
   height="1.303"
   width="1.303"
   y="57.891998"
   x="35.681"
   style="fill:#ffffff" />

	<rect
   id="rect4803"
   height="1.303"
   width="1.303"
   y="57.891998"
   x="37.486"
   style="fill:#ffffff" />

	<rect
   id="rect4805"
   height="1.303"
   width="1.303"
   y="59.696999"
   x="39.290001"
   style="fill:#ffffff" />

	<rect
   id="rect4807"
   height="1.303"
   width="1.303"
   y="59.696999"
   x="35.681"
   style="fill:#ffffff" />

	<rect
   id="rect4809"
   height="1.303"
   width="1.303"
   y="59.696999"
   x="37.486"
   style="fill:#ffffff" />

	<rect
   id="rect4811"
   height="1.303"
   width="1.303"
   y="54.284"
   x="35.681"
   style="fill:#ffffff" />

	<rect
   id="rect4813"
   height="1.303"
   width="1.303"
   y="56.088001"
   x="33.911999"
   style="fill:#ffffff" />

	<rect
   id="rect4815"
   height="1.303"
   width="1.303"
   y="57.891998"
   x="33.911999"
   style="fill:#ffffff" />

	<rect
   id="rect4817"
   height="1.303"
   width="1.303"
   y="59.696999"
   x="33.911999"
   style="fill:#ffffff" />

	<rect
   id="rect4819"
   height="1.303"
   width="1.303"
   y="54.284"
   x="33.911999"
   style="fill:#ffffff" />

	<rect
   id="rect4821"
   height="1.303"
   width="1.303"
   y="54.284"
   x="37.486"
   style="fill:#ffffff" />

	<path
   id="path4823"
   d="m 34.564,51.452 h 10.872 c 0.276,0 0.5,-0.224 0.5,-0.5 0,-0.276 -0.224,-0.5 -0.5,-0.5 H 34.564 c -0.276,0 -0.5,0.224 -0.5,0.5 0,0.276 0.224,0.5 0.5,0.5 z"
   inkscape:connector-curvature="0"
   style="fill:#ffffff" />

	<rect
   id="rect4825"
   height="1.303"
   width="1.303"
   y="27.516001"
   x="58.898998"
   style="fill:#ffffff" />

	<rect
   id="rect4827"
   height="1.303"
   width="1.303"
   y="29.32"
   x="55.290001"
   style="fill:#ffffff" />

	<rect
   id="rect4829"
   height="1.303"
   width="1.303"
   y="29.32"
   x="57.094002"
   style="fill:#ffffff" />

	<rect
   id="rect4831"
   height="1.303"
   width="1.303"
   y="29.32"
   x="58.898998"
   style="fill:#ffffff" />

	<rect
   id="rect4833"
   height="1.303"
   width="1.303"
   y="31.125"
   x="55.290001"
   style="fill:#ffffff" />

	<rect
   id="rect4835"
   height="1.303"
   width="1.303"
   y="31.125"
   x="57.094002"
   style="fill:#ffffff" />

	<rect
   id="rect4837"
   height="1.303"
   width="1.303"
   y="31.125"
   x="58.898998"
   style="fill:#ffffff" />

	<rect
   id="rect4839"
   height="1.303"
   width="1.303"
   y="31.125"
   x="51.681"
   style="fill:#ffffff" />

	<rect
   id="rect4841"
   height="1.303"
   width="1.303"
   y="31.125"
   x="53.486"
   style="fill:#ffffff" />

	<rect
   id="rect4843"
   height="1.303"
   width="1.303"
   y="32.929001"
   x="55.290001"
   style="fill:#ffffff" />

	<rect
   id="rect4845"
   height="1.303"
   width="1.303"
   y="32.929001"
   x="57.094002"
   style="fill:#ffffff" />

	<rect
   id="rect4847"
   height="1.303"
   width="1.303"
   y="32.929001"
   x="58.898998"
   style="fill:#ffffff" />

	<rect
   id="rect4849"
   height="1.303"
   width="1.303"
   y="27.516001"
   x="60.784"
   style="fill:#ffffff" />

	<rect
   id="rect4851"
   height="1.303"
   width="1.303"
   y="27.516001"
   x="55.290001"
   style="fill:#ffffff" />

	<rect
   id="rect4853"
   height="1.303"
   width="1.303"
   y="27.516001"
   x="57.175999"
   style="fill:#ffffff" />

	<rect
   id="rect4855"
   height="1.303"
   width="1.303"
   y="29.32"
   x="60.784"
   style="fill:#ffffff" />

	<rect
   id="rect4857"
   height="1.303"
   width="1.303"
   y="31.125"
   x="60.784"
   style="fill:#ffffff" />

	<rect
   id="rect4859"
   height="1.303"
   width="1.303"
   y="32.929001"
   x="60.784"
   style="fill:#ffffff" />

	<rect
   id="rect4861"
   height="1.303"
   width="1.303"
   y="32.929001"
   x="51.681"
   style="fill:#ffffff" />

	<rect
   id="rect4863"
   height="1.303"
   width="1.303"
   y="32.929001"
   x="53.486"
   style="fill:#ffffff" />

	<rect
   id="rect4865"
   height="1.303"
   width="1.303"
   y="34.733002"
   x="55.290001"
   style="fill:#ffffff" />

	<rect
   id="rect4867"
   height="1.303"
   width="1.303"
   y="34.733002"
   x="51.681"
   style="fill:#ffffff" />

	<rect
   id="rect4869"
   height="1.303"
   width="1.303"
   y="34.733002"
   x="53.486"
   style="fill:#ffffff" />

	<rect
   id="rect4871"
   height="1.303"
   width="1.303"
   y="29.32"
   x="51.681"
   style="fill:#ffffff" />

	<rect
   id="rect4873"
   height="1.303"
   width="1.303"
   y="31.125"
   x="49.911999"
   style="fill:#ffffff" />

	<rect
   id="rect4875"
   height="1.303"
   width="1.303"
   y="32.929001"
   x="49.911999"
   style="fill:#ffffff" />

	<rect
   id="rect4877"
   height="1.303"
   width="1.303"
   y="34.733002"
   x="49.911999"
   style="fill:#ffffff" />

	<rect
   id="rect4879"
   height="1.303"
   width="1.303"
   y="29.32"
   x="49.911999"
   style="fill:#ffffff" />

	<rect
   id="rect4881"
   height="1.303"
   width="1.303"
   y="29.32"
   x="53.486"
   style="fill:#ffffff" />

	<path
   id="path4883"
   d="m 61.936,25.988 c 0,-0.276 -0.224,-0.5 -0.5,-0.5 H 50.564 45.436 34.564 29.436 18.564 h -16 c -0.276,0 -0.5,0.224 -0.5,0.5 0,0.276 0.224,0.5 0.5,0.5 h 16 10.872 5.128 10.872 5.128 10.872 c 0.276,0 0.5,-0.223 0.5,-0.5 z"
   inkscape:connector-curvature="0"
   style="fill:#ffffff" />

	<rect
   id="rect4885"
   height="1.303"
   width="1.303"
   y="40.033001"
   x="58.898998"
   style="fill:#ffffff" />

	<rect
   id="rect4887"
   height="1.303"
   width="1.303"
   y="41.838001"
   x="55.290001"
   style="fill:#ffffff" />

	<rect
   id="rect4889"
   height="1.303"
   width="1.303"
   y="41.838001"
   x="57.094002"
   style="fill:#ffffff" />

	<rect
   id="rect4891"
   height="1.303"
   width="1.303"
   y="41.838001"
   x="58.898998"
   style="fill:#ffffff" />

	<rect
   id="rect4893"
   height="1.303"
   width="1.303"
   y="43.641998"
   x="55.290001"
   style="fill:#ffffff" />

	<rect
   id="rect4895"
   height="1.303"
   width="1.303"
   y="43.641998"
   x="57.094002"
   style="fill:#ffffff" />

	<rect
   id="rect4897"
   height="1.303"
   width="1.303"
   y="43.641998"
   x="58.898998"
   style="fill:#ffffff" />

	<rect
   id="rect4899"
   height="1.303"
   width="1.303"
   y="43.641998"
   x="51.681"
   style="fill:#ffffff" />

	<rect
   id="rect4901"
   height="1.303"
   width="1.303"
   y="43.641998"
   x="53.486"
   style="fill:#ffffff" />

	<rect
   id="rect4903"
   height="1.303"
   width="1.303"
   y="45.445999"
   x="55.290001"
   style="fill:#ffffff" />

	<rect
   id="rect4905"
   height="1.303"
   width="1.303"
   y="45.445999"
   x="57.094002"
   style="fill:#ffffff" />

	<rect
   id="rect4907"
   height="1.303"
   width="1.303"
   y="45.445999"
   x="58.898998"
   style="fill:#ffffff" />

	<rect
   id="rect4909"
   height="1.303"
   width="1.303"
   y="40.033001"
   x="60.784"
   style="fill:#ffffff" />

	<rect
   id="rect4911"
   height="1.303"
   width="1.303"
   y="40.033001"
   x="55.290001"
   style="fill:#ffffff" />

	<rect
   id="rect4913"
   height="1.303"
   width="1.303"
   y="40.033001"
   x="57.175999"
   style="fill:#ffffff" />

	<rect
   id="rect4915"
   height="1.303"
   width="1.303"
   y="41.838001"
   x="60.784"
   style="fill:#ffffff" />

	<rect
   id="rect4917"
   height="1.303"
   width="1.303"
   y="43.641998"
   x="60.784"
   style="fill:#ffffff" />

	<rect
   id="rect4919"
   height="1.303"
   width="1.303"
   y="45.445999"
   x="60.784"
   style="fill:#ffffff" />

	<rect
   id="rect4921"
   height="1.303"
   width="1.303"
   y="45.445999"
   x="51.681"
   style="fill:#ffffff" />

	<rect
   id="rect4923"
   height="1.303"
   width="1.303"
   y="45.445999"
   x="53.486"
   style="fill:#ffffff" />

	<rect
   id="rect4925"
   height="1.303"
   width="1.303"
   y="47.250999"
   x="55.290001"
   style="fill:#ffffff" />

	<rect
   id="rect4927"
   height="1.303"
   width="1.303"
   y="47.250999"
   x="51.681"
   style="fill:#ffffff" />

	<rect
   id="rect4929"
   height="1.303"
   width="1.303"
   y="47.250999"
   x="53.486"
   style="fill:#ffffff" />

	<rect
   id="rect4931"
   height="1.303"
   width="1.303"
   y="41.838001"
   x="51.681"
   style="fill:#ffffff" />

	<rect
   id="rect4933"
   height="1.303"
   width="1.303"
   y="43.641998"
   x="49.911999"
   style="fill:#ffffff" />

	<rect
   id="rect4935"
   height="1.303"
   width="1.303"
   y="45.445999"
   x="49.911999"
   style="fill:#ffffff" />

	<rect
   id="rect4937"
   height="1.303"
   width="1.303"
   y="47.250999"
   x="49.911999"
   style="fill:#ffffff" />

	<rect
   id="rect4939"
   height="1.303"
   width="1.303"
   y="41.838001"
   x="49.911999"
   style="fill:#ffffff" />

	<rect
   id="rect4941"
   height="1.303"
   width="1.303"
   y="41.838001"
   x="53.486"
   style="fill:#ffffff" />

	<path
   id="path4943"
   d="m 61.936,38.506 c 0,-0.276 -0.224,-0.5 -0.5,-0.5 H 50.564 c -0.276,0 -0.5,0.224 -0.5,0.5 0,0.276 0.224,0.5 0.5,0.5 h 10.872 c 0.276,0 0.5,-0.224 0.5,-0.5 z"
   inkscape:connector-curvature="0"
   style="fill:#ffffff" />

	<rect
   id="rect4945"
   height="1.303"
   width="1.303"
   y="52.479"
   x="58.898998"
   style="fill:#ffffff" />

	<rect
   id="rect4947"
   height="1.303"
   width="1.303"
   y="54.284"
   x="55.290001"
   style="fill:#ffffff" />

	<rect
   id="rect4949"
   height="1.303"
   width="1.303"
   y="54.284"
   x="57.094002"
   style="fill:#ffffff" />

	<rect
   id="rect4951"
   height="1.303"
   width="1.303"
   y="54.284"
   x="58.898998"
   style="fill:#ffffff" />

	<rect
   id="rect4953"
   height="1.303"
   width="1.303"
   y="56.088001"
   x="55.290001"
   style="fill:#ffffff" />

	<rect
   id="rect4955"
   height="1.303"
   width="1.303"
   y="56.088001"
   x="57.094002"
   style="fill:#ffffff" />

	<rect
   id="rect4957"
   height="1.303"
   width="1.303"
   y="56.088001"
   x="58.898998"
   style="fill:#ffffff" />

	<rect
   id="rect4959"
   height="1.303"
   width="1.303"
   y="56.088001"
   x="51.681"
   style="fill:#ffffff" />

	<rect
   id="rect4961"
   height="1.303"
   width="1.303"
   y="56.088001"
   x="53.486"
   style="fill:#ffffff" />

	<rect
   id="rect4963"
   height="1.303"
   width="1.303"
   y="57.891998"
   x="55.290001"
   style="fill:#ffffff" />

	<rect
   id="rect4965"
   height="1.303"
   width="1.303"
   y="57.891998"
   x="57.094002"
   style="fill:#ffffff" />

	<rect
   id="rect4967"
   height="1.303"
   width="1.303"
   y="57.891998"
   x="58.898998"
   style="fill:#ffffff" />

	<rect
   id="rect4969"
   height="1.303"
   width="1.303"
   y="52.479"
   x="60.784"
   style="fill:#ffffff" />

	<rect
   id="rect4971"
   height="1.303"
   width="1.303"
   y="52.479"
   x="55.290001"
   style="fill:#ffffff" />

	<rect
   id="rect4973"
   height="1.303"
   width="1.303"
   y="52.479"
   x="57.175999"
   style="fill:#ffffff" />

	<rect
   id="rect4975"
   height="1.303"
   width="1.303"
   y="54.284"
   x="60.784"
   style="fill:#ffffff" />

	<rect
   id="rect4977"
   height="1.303"
   width="1.303"
   y="56.088001"
   x="60.784"
   style="fill:#ffffff" />

	<rect
   id="rect4979"
   height="1.303"
   width="1.303"
   y="57.891998"
   x="60.784"
   style="fill:#ffffff" />

	<rect
   id="rect4981"
   height="1.303"
   width="1.303"
   y="57.891998"
   x="51.681"
   style="fill:#ffffff" />

	<rect
   id="rect4983"
   height="1.303"
   width="1.303"
   y="57.891998"
   x="53.486"
   style="fill:#ffffff" />

	<rect
   id="rect4985"
   height="1.303"
   width="1.303"
   y="59.696999"
   x="55.290001"
   style="fill:#ffffff" />

	<rect
   id="rect4987"
   height="1.303"
   width="1.303"
   y="59.696999"
   x="51.681"
   style="fill:#ffffff" />

	<rect
   id="rect4989"
   height="1.303"
   width="1.303"
   y="59.696999"
   x="53.486"
   style="fill:#ffffff" />

	<rect
   id="rect4991"
   height="1.303"
   width="1.303"
   y="54.284"
   x="51.681"
   style="fill:#ffffff" />

	<rect
   id="rect4993"
   height="1.303"
   width="1.303"
   y="56.088001"
   x="49.911999"
   style="fill:#ffffff" />

	<rect
   id="rect4995"
   height="1.303"
   width="1.303"
   y="57.891998"
   x="49.911999"
   style="fill:#ffffff" />

	<rect
   id="rect4997"
   height="1.303"
   width="1.303"
   y="59.696999"
   x="49.911999"
   style="fill:#ffffff" />

	<rect
   id="rect4999"
   height="1.303"
   width="1.303"
   y="54.284"
   x="49.911999"
   style="fill:#ffffff" />

	<rect
   id="rect5001"
   height="1.303"
   width="1.303"
   y="54.284"
   x="53.486"
   style="fill:#ffffff" />

	<path
   id="path5003"
   d="m 50.564,51.452 h 10.872 c 0.276,0 0.5,-0.224 0.5,-0.5 0,-0.276 -0.224,-0.5 -0.5,-0.5 H 50.564 c -0.276,0 -0.5,0.224 -0.5,0.5 0,0.276 0.224,0.5 0.5,0.5 z"
   inkscape:connector-curvature="0"
   style="fill:#ffffff" />

</g>
  </g>
</svg>
