<?xml version="1.0" encoding="UTF-8" standalone="no"?>
<!-- Created with Inkscape (http://www.inkscape.org/) -->

<svg
   xmlns:dc="http://purl.org/dc/elements/1.1/"
   xmlns:cc="http://creativecommons.org/ns#"
   xmlns:rdf="http://www.w3.org/1999/02/22-rdf-syntax-ns#"
   xmlns:svg="http://www.w3.org/2000/svg"
   xmlns="http://www.w3.org/2000/svg"
   xmlns:sodipodi="http://sodipodi.sourceforge.net/DTD/sodipodi-0.dtd"
   xmlns:inkscape="http://www.inkscape.org/namespaces/inkscape"
   width="1000"
   height="300"
   id="svg3063"
   version="1.1"
   inkscape:version="0.48.4 r9939"
   sodipodi:docname="wireless_python.png">
  <defs
     id="defs3065">
    <inkscape:path-effect
       effect="spiro"
       id="path-effect4377"
       is_visible="true" />
  </defs>
  <sodipodi:namedview
     id="base"
     pagecolor="#ffffff"
     bordercolor="#666666"
     borderopacity="1.0"
     inkscape:pageopacity="0.0"
     inkscape:pageshadow="2"
     inkscape:zoom="4.5840708"
     inkscape:cx="506.62225"
     inkscape:cy="129.44137"
     inkscape:current-layer="layer1"
     inkscape:document-units="px"
     showgrid="false"
     inkscape:window-width="1366"
     inkscape:window-height="705"
     inkscape:window-x="-8"
     inkscape:window-y="-8"
     inkscape:window-maximized="1" />
  <metadata
     id="metadata3068">
    <rdf:RDF>
      <cc:Work
         rdf:about="">
        <dc:format>image/svg+xml</dc:format>
        <dc:type
           rdf:resource="http://purl.org/dc/dcmitype/StillImage" />
        <dc:title></dc:title>
      </cc:Work>
    </rdf:RDF>
  </metadata>
  <g
     id="layer1"
     inkscape:label="Layer 1"
     inkscape:groupmode="layer"
     transform="translate(0,-900)">
    <rect
       style="fill:#2c3e50;fill-opacity:1"
       id="rect3955"
       width="1000"
       height="300"
       x="0"
       y="900"
       ry="6" />
    <path
       style="fill:#ffffff"
       d="m 500,950.00029 -87.5,50.00001 0,100 87.5,50 87.5,-50 0,-100 -87.5,-50.00001 z m -0.61963,14.63201 75.22552,43.0053 0,85.9813 -75.22552,42.9906 -75.22551,-42.9906 0,-85.9813 75.22551,-43.0053 z"
       id="path3075"
       inkscape:connector-curvature="0" />
    <path
       sodipodi:type="arc"
       style="fill:#ffffff;fill-opacity:1;stroke:#e74c3c;stroke-width:0;stroke-linecap:round;stroke-linejoin:miter;stroke-miterlimit:4;stroke-opacity:1;stroke-dasharray:none"
       id="path5104"
       sodipodi:cx="494.99796"
       sodipodi:cy="144.05019"
       sodipodi:rx="5.7073617"
       sodipodi:ry="5.7073617"
       d="m 500.70532,144.05019 c 0,3.15208 -2.55528,5.70736 -5.70736,5.70736 -3.15209,0 -5.70737,-2.55528 -5.70737,-5.70736 0,-3.15209 2.55528,-5.70737 5.70737,-5.70737 2.26752,0 4.31997,1.34234 5.22884,3.41975"
       transform="matrix(1.6751081,0,0,1.6751081,-329.21544,831.17935)"
       sodipodi:start="0"
       sodipodi:end="5.8707748"
       sodipodi:open="true" />
    <path
       style="fill:#ffffff;fill-opacity:1;stroke:#e74c3c;stroke-width:0;stroke-linecap:round;stroke-linejoin:miter;stroke-miterlimit:4;stroke-opacity:1;stroke-dasharray:none"
       d="m 500.28011,1030.8154 c -9.97344,-0.062 -20.12671,2.7506 -29.04986,8.6996 -5.55439,3.7028 -10.30483,8.4611 -14.05891,13.981 l 7.612,5.2041 c 3.0765,-4.4983 6.96051,-8.317 11.49567,-11.3403 19.5294,-13.0195 45.89312,-7.7564 58.95416,11.7287 l 7.84501,-5.2041 c -9.9146,-14.8718 -26.17568,-22.9668 -42.79807,-23.069 z"
       id="path5126"
       inkscape:connector-curvature="0" />
    <path
       inkscape:connector-curvature="0"
       style="fill:#ffffff;fill-opacity:1;stroke:#e74c3c;stroke-width:0;stroke-linecap:round;stroke-linejoin:miter;stroke-miterlimit:4;stroke-opacity:1;stroke-dasharray:none"
       d="m 500.35689,1010.2336 c -13.99178,-0.089 -28.23588,3.8591 -40.75422,12.2045 -7.79228,5.195 -14.45668,11.8703 -19.72331,19.6144 l 10.67893,7.301 c 4.316,-6.3111 9.76493,-11.6678 16.12733,-15.9094 27.3979,-18.2652 64.38368,-10.8818 82.7071,16.4539 l 11.00584,-7.3006 c -13.90926,-20.8642 -36.722,-32.22 -60.04167,-32.3638 z"
       id="path5126-1" />
    <path
       style="fill:#ffffff;fill-opacity:1;stroke:#e74c3c;stroke-width:0;stroke-linecap:round;stroke-linejoin:miter;stroke-miterlimit:4;stroke-opacity:1;stroke-dasharray:none"
       d="m 499.32782,1047.0834 c -6.51979,0.044 -13.09233,1.9739 -18.875,5.9375 -3.43496,2.3544 -6.42336,5.3174 -8.78125,8.75 l 6.6875,4.5937 c 1.78233,-2.5558 4.02276,-4.769 6.59375,-6.5312 11.7171,-8.0313 27.71411,-5.0809 35.8125,6.5625 l 6.71875,-4.5938 c -6.60601,-9.6378 -17.28993,-14.7918 -28.15625,-14.7187 z"
       id="path5184"
       inkscape:connector-curvature="0" />
  </g>
</svg>
