<?xml version="1.0" encoding="UTF-8" standalone="no"?>
<!-- Created with Inkscape (http://www.inkscape.org/) -->

<svg
   xmlns:dc="http://purl.org/dc/elements/1.1/"
   xmlns:cc="http://creativecommons.org/ns#"
   xmlns:rdf="http://www.w3.org/1999/02/22-rdf-syntax-ns#"
   xmlns:svg="http://www.w3.org/2000/svg"
   xmlns="http://www.w3.org/2000/svg"
   xmlns:sodipodi="http://sodipodi.sourceforge.net/DTD/sodipodi-0.dtd"
   xmlns:inkscape="http://www.inkscape.org/namespaces/inkscape"
   width="1000"
   height="300"
   id="svg3063"
   version="1.1"
   inkscape:version="0.48.4 r9939"
   sodipodi:docname="rfid.svg"
   inkscape:export-filename="C:\Users\jmwri_000\Documents\jordan-wright.github.com\source\images\headers\rfid.png"
   inkscape:export-xdpi="89.496582"
   inkscape:export-ydpi="89.496582">
  <defs
     id="defs3065">
    <inkscape:path-effect
       effect="spiro"
       id="path-effect4377"
       is_visible="true" />
    <inkscape:path-effect
       effect="spiro"
       id="path-effect4377-1"
       is_visible="true" />
  </defs>
  <sodipodi:namedview
     id="base"
     pagecolor="#ffffff"
     bordercolor="#666666"
     borderopacity="1.0"
     inkscape:pageopacity="0.0"
     inkscape:pageshadow="2"
     inkscape:zoom="0.81035689"
     inkscape:cx="506.60852"
     inkscape:cy="226.22847"
     inkscape:current-layer="layer1"
     inkscape:document-units="px"
     showgrid="false"
     inkscape:window-width="1366"
     inkscape:window-height="705"
     inkscape:window-x="-8"
     inkscape:window-y="-8"
     inkscape:window-maximized="1" />
  <metadata
     id="metadata3068">
    <rdf:RDF>
      <cc:Work
         rdf:about="">
        <dc:format>image/svg+xml</dc:format>
        <dc:type
           rdf:resource="http://purl.org/dc/dcmitype/StillImage" />
        <dc:title></dc:title>
      </cc:Work>
    </rdf:RDF>
  </metadata>
  <g
     id="layer1"
     inkscape:label="Layer 1"
     inkscape:groupmode="layer"
     transform="translate(0,-900)">
    <rect
       style="fill:#019875;fill-opacity:1"
       id="rect3955"
       width="1000"
       height="300"
       x="0"
       y="900"
       ry="6" />
    <path
       style="fill:#ffffff"
       d="m 500,950.00029 -87.5,50.00001 0,100 87.5,50 87.5,-50 0,-100 -87.5,-50.00001 z m -0.61963,14.63201 75.22552,43.0053 0,85.9813 -75.22552,42.9906 -75.22551,-42.9906 0,-85.9813 75.22551,-43.0053 z"
       id="path3075"
       inkscape:connector-curvature="0" />
    <g
       style="fill:#ffffff;fill-opacity:1;display:block"
       id="g3052"
       transform="matrix(3.8920022,0,0,3.8920022,455.38866,1003.5663)">
      <g
         id="search"
         style="fill:#ffffff;fill-opacity:1">
        <path
           id="path3044"
           d="M 15.5,14 H 14.7 L 14.4,13.7 C 15.4,12.6 16,11.1 16,9.5 16,5.9 13.1,3 9.5,3 5.9,3 3,5.9 3,9.5 3,13.1 5.9,16 9.5,16 c 1.6,0 3.1,-0.6 4.2,-1.6 l 0.3,0.3 v 0.8 l 5,5 1.5,-1.5 -5,-5 z m -6,0 C 7,14 5,12 5,9.5 5,7 7,5 9.5,5 12,5 14,7 14,9.5 14,12 12,14 9.5,14 z"
           inkscape:connector-curvature="0"
           style="fill:#ffffff;fill-opacity:1" />
      </g>
    </g>
  </g>
</svg>
