<?xml version="1.0" encoding="UTF-8" standalone="no"?>
<!-- Created with Inkscape (http://www.inkscape.org/) -->

<svg
   xmlns:dc="http://purl.org/dc/elements/1.1/"
   xmlns:cc="http://creativecommons.org/ns#"
   xmlns:rdf="http://www.w3.org/1999/02/22-rdf-syntax-ns#"
   xmlns:svg="http://www.w3.org/2000/svg"
   xmlns="http://www.w3.org/2000/svg"
   xmlns:sodipodi="http://sodipodi.sourceforge.net/DTD/sodipodi-0.dtd"
   xmlns:inkscape="http://www.inkscape.org/namespaces/inkscape"
   width="1000"
   height="300"
   id="svg3063"
   version="1.1"
   inkscape:version="0.48.4 r9939"
   sodipodi:docname="browser_tracking.svg"
   inkscape:export-filename="C:\Users\jmwri_000\Documents\jordan-wright.github.com\source\images\headers\rfid.png"
   inkscape:export-xdpi="89.496582"
   inkscape:export-ydpi="89.496582">
  <defs
     id="defs3065">
    <inkscape:path-effect
       effect="spiro"
       id="path-effect4377"
       is_visible="true" />
    <inkscape:path-effect
       effect="spiro"
       id="path-effect4377-1"
       is_visible="true" />
  </defs>
  <sodipodi:namedview
     id="base"
     pagecolor="#ffffff"
     bordercolor="#666666"
     borderopacity="1.0"
     inkscape:pageopacity="0.0"
     inkscape:pageshadow="2"
     inkscape:zoom="1.6207138"
     inkscape:cx="441.31822"
     inkscape:cy="185.08321"
     inkscape:current-layer="layer1"
     inkscape:document-units="px"
     showgrid="false"
     inkscape:window-width="1366"
     inkscape:window-height="705"
     inkscape:window-x="-8"
     inkscape:window-y="-8"
     inkscape:window-maximized="1" />
  <metadata
     id="metadata3068">
    <rdf:RDF>
      <cc:Work
         rdf:about="">
        <dc:format>image/svg+xml</dc:format>
        <dc:type
           rdf:resource="http://purl.org/dc/dcmitype/StillImage" />
        <dc:title></dc:title>
      </cc:Work>
    </rdf:RDF>
  </metadata>
  <g
     id="layer1"
     inkscape:label="Layer 1"
     inkscape:groupmode="layer"
     transform="translate(0,-900)">
    <rect
       style="fill:#019875;fill-opacity:1"
       id="rect3955"
       width="1000"
       height="300"
       x="0"
       y="900"
       ry="6" />
    <path
       style="fill:#ffffff"
       d="m 500,950.00029 -87.5,50.00001 0,100 87.5,50 87.5,-50 0,-100 -87.5,-50.00001 z m -0.61963,14.63201 75.22552,43.0053 0,85.9813 -75.22552,42.9906 -75.22551,-42.9906 0,-85.9813 75.22551,-43.0053 z"
       id="path3075"
       inkscape:connector-curvature="0" />
    <g
       transform="matrix(0.20322421,0,0,0.20322421,452.32989,1003.8501)"
       id="g3147"
       style="stroke:#ffffff;stroke-width:1.98303139;stroke-miterlimit:4;stroke-opacity:1;stroke-dasharray:none">
      <path
         style="fill:#ffffff;stroke:#ffffff;stroke-width:1.98303139;stroke-miterlimit:4;stroke-opacity:1;stroke-dasharray:none"
         inkscape:connector-curvature="0"
         d="M 398.585,68.387 C 354.485,24.287 295.852,0 233.485,0 171.118,0 112.485,24.287 68.386,68.387 24.287,112.487 0,171.119 0,233.486 c 0,62.367 24.287,121 68.386,165.1 44.1,44.099 102.733,68.386 165.099,68.386 62.366,0 121,-24.287 165.1,-68.386 44.1,-44.1 68.386,-102.733 68.386,-165.1 0,-62.367 -24.286,-120.999 -68.386,-165.099 z M 101.619,412.732 c 15.574,-26.958 39.298,-48.75 67.455,-61.91 18.634,14.334 40.733,22.649 64.41,22.649 23.646,0 45.717,-8.292 64.336,-22.59 28.166,13.182 51.9,34.961 67.488,61.883 -37.977,28.048 -83.733,43.207 -131.822,43.207 -48.108,0 -93.881,-15.17 -131.867,-43.239 z M 113.306,234.16 c 0.409,11.978 2.021,23.585 4.696,34.651 -3.284,-0.322 -6.428,-1.528 -9.119,-3.579 -3.822,-2.912 -6.281,-7.139 -6.924,-11.901 -1.135,-8.402 3.764,-16.237 11.347,-19.171 z m 248.192,5.86 c 2.913,3.822 4.162,8.55 3.519,13.312 -1.135,8.408 -7.948,14.664 -16.043,15.476 2.676,-11.066 4.287,-22.674 4.696,-34.651 3.075,1.181 5.78,3.176 7.828,5.863 z m -93.654,16.47 c -1.657,0 -3.172,-1.252 -3.602,-2.969 l -5.227,-21.031 h 32.271 l -12.4,24 h -11.042 z m 35.824,-24 h 5.823 l -12.4,24 h -5.823 l 12.4,-24 z m 17.821,0.741 v 18.407 c 0,2.352 -1.467,4.852 -4.185,4.852 h -7.832 l 12.017,-23.259 z M 124.344,221.49 c 0.372,-9.114 1.505,-17.827 3.414,-26 h 211.46 c 1.909,8.172 3.042,16.885 3.414,26 H 124.344 z m 21.145,11 h 27.037 l -12.4,24 h -10.454 c -2.717,0 -4.183,-2.5 -4.183,-4.852 V 232.49 z m 39.418,0 h 5.823 l -12.4,24 h -5.823 l 12.4,-24 z m 18.204,0 h 4.849 l -5.226,21.023 c -0.431,1.725 -1.946,2.977 -3.603,2.977 h -8.421 l 12.401,-24 z m -68.413,-68 h 197.58 l 3.19,20 H 131.507 l 3.191,-20 z m 1.754,-11 7.497,-47 h 179.076 l 7.497,47 h -194.07 z m -1.963,79 v 19.148 c 0,8.889 6.669,15.852 15.183,15.852 h 49.46 c 6.741,0 12.61,-4.65 14.276,-11.316 l 5.886,-23.684 h 28.386 l 5.888,23.691 c 1.665,6.658 7.534,11.309 14.275,11.309 h 49.46 c 8.515,0 15.185,-6.963 15.185,-15.852 V 232.49 h 10.229 c -1.508,57.386 -32.42,105.791 -74.778,123.134 1.939,-2.745 3.574,-5.74 4.838,-8.95 5.159,-13.097 3.434,-27.752 -4.615,-39.202 -9.81,-13.956 -22.125,-21.642 -34.675,-21.642 -12.55,0 -24.865,7.686 -34.675,21.642 -8.048,11.45 -9.773,26.105 -4.615,39.202 1.265,3.212 2.901,6.208 4.841,8.954 -42.359,-17.34 -73.272,-65.748 -74.78,-123.137 h 10.231 z m 128.054,110.152 c -3.87,9.826 -12.334,16.989 -22.641,19.161 -0.304,0.064 -0.609,0.113 -0.914,0.168 V 336.24 c 0,-3.037 -2.462,-5.5 -5.5,-5.5 -3.038,0 -5.5,2.463 -5.5,5.5 v 25.731 c -0.304,-0.055 -0.609,-0.104 -0.913,-0.168 h 0 c -10.307,-2.172 -18.771,-9.335 -22.642,-19.161 -3.856,-9.79 -2.625,-20.304 3.379,-28.845 7.691,-10.942 16.81,-16.968 25.676,-16.968 8.866,0 17.985,6.025 25.676,16.968 6.004,8.541 7.235,19.055 3.379,28.845 z m 128.264,48.165 c -5.359,5.359 -10.947,10.407 -16.735,15.144 -15.868,-26.825 -39.326,-48.774 -67.103,-62.839 17.358,-16.233 30.954,-38.066 38.921,-63.239 0.44,0.02 0.881,0.044 1.319,0.044 14.275,-10e-4 26.748,-10.582 28.71,-25.112 1.036,-7.674 -0.978,-15.292 -5.671,-21.451 -4.15,-5.446 -9.957,-9.171 -16.551,-10.677 -0.295,-9.482 -1.388,-18.575 -3.228,-27.186 h 48.021 c 3.038,0 5.5,-2.463 5.5,-5.5 0,-3.037 -2.462,-5.5 -5.5,-5.5 H 346.608 L 333.15,100.125 c -0.426,-2.67 -2.728,-4.634 -5.431,-4.634 H 139.257 c -2.703,0 -5.005,1.964 -5.431,4.634 l -13.458,84.366 h -51.88 c -3.038,0 -5.5,2.463 -5.5,5.5 0,3.037 2.462,5.5 5.5,5.5 h 48.019 c -1.84,8.612 -2.933,17.705 -3.229,27.186 -6.594,1.507 -12.4,5.231 -16.55,10.677 -4.694,6.159 -6.708,13.777 -5.671,21.451 1.037,7.674 5,14.484 11.159,19.178 5.102,3.888 11.204,5.938 17.511,5.938 0.452,0 0.905,-0.025 1.359,-0.046 7.956,25.139 21.524,46.947 38.848,63.173 -27.771,14.047 -51.221,36.008 -67.078,62.869 C 87.083,401.191 81.511,396.155 76.165,390.809 34.143,348.784 11,292.913 11,233.486 11,174.059 34.143,118.187 76.165,76.166 118.187,34.143 174.058,11 233.485,11 c 59.428,0 115.299,23.143 157.321,65.165 42.022,42.021 65.165,97.893 65.165,157.32 0,59.427 -23.142,115.299 -65.164,157.322 z"
         id="path3149" />
      <path
         style="fill:#ffffff;stroke:#ffffff;stroke-width:1.98303139;stroke-miterlimit:4;stroke-opacity:1;stroke-dasharray:none"
         inkscape:connector-curvature="0"
         d="m 233.49,311.543 c -8.56,0 -16.472,2.355 -21.164,6.302 -2.325,1.955 -2.625,5.425 -0.669,7.749 1.955,2.325 5.424,2.624 7.75,0.669 2.041,-1.716 6.953,-3.72 14.083,-3.72 7.124,0 12.034,2.004 14.075,3.72 1.031,0.867 2.288,1.291 3.537,1.291 1.567,0 3.125,-0.666 4.212,-1.96 1.955,-2.324 1.655,-5.794 -0.669,-7.749 -4.692,-3.946 -12.6,-6.302 -21.155,-6.302 z"
         id="path3151" />
    </g>
  </g>
</svg>
