<?xml version="1.0" encoding="UTF-8" standalone="no"?>
<!-- Created with Inkscape (http://www.inkscape.org/) -->

<svg
   xmlns:dc="http://purl.org/dc/elements/1.1/"
   xmlns:cc="http://creativecommons.org/ns#"
   xmlns:rdf="http://www.w3.org/1999/02/22-rdf-syntax-ns#"
   xmlns:svg="http://www.w3.org/2000/svg"
   xmlns="http://www.w3.org/2000/svg"
   xmlns:sodipodi="http://sodipodi.sourceforge.net/DTD/sodipodi-0.dtd"
   xmlns:inkscape="http://www.inkscape.org/namespaces/inkscape"
   width="1000"
   height="300"
   id="svg3063"
   version="1.1"
   inkscape:version="0.48.4 r9939"
   sodipodi:docname="elastichoney_robber.svg"
   inkscape:export-filename="C:\Users\jmwri_000\Documents\jordan-wright.github.com\source\images\headers\tracking_elk.png"
   inkscape:export-xdpi="90"
   inkscape:export-ydpi="90">
  <defs
     id="defs3065">
    <inkscape:path-effect
       effect="spiro"
       id="path-effect4377"
       is_visible="true" />
  </defs>
  <sodipodi:namedview
     id="base"
     pagecolor="#ffffff"
     bordercolor="#666666"
     borderopacity="1.0"
     inkscape:pageopacity="0.0"
     inkscape:pageshadow="2"
     inkscape:zoom="2.2920354"
     inkscape:cx="644.10427"
     inkscape:cy="158.05833"
     inkscape:current-layer="layer1"
     inkscape:document-units="px"
     showgrid="false"
     inkscape:window-width="1366"
     inkscape:window-height="705"
     inkscape:window-x="-8"
     inkscape:window-y="-8"
     inkscape:window-maximized="1" />
  <metadata
     id="metadata3068">
    <rdf:RDF>
      <cc:Work
         rdf:about="">
        <dc:format>image/svg+xml</dc:format>
        <dc:type
           rdf:resource="http://purl.org/dc/dcmitype/StillImage" />
        <dc:title></dc:title>
      </cc:Work>
    </rdf:RDF>
  </metadata>
  <g
     id="layer1"
     inkscape:label="Layer 1"
     inkscape:groupmode="layer"
     transform="translate(0,-900)">
    <rect
       style="fill:#74b73f;fill-opacity:0.94117647"
       id="rect3955"
       width="1000"
       height="300"
       x="0"
       y="900"
       ry="6" />
    <path
       style="fill:#ffffff"
       d="m 500,950.00029 -87.5,50.00001 0,100 87.5,50 87.5,-50 0,-100 -87.5,-50.00001 z m -0.61963,14.63201 75.22552,43.0053 0,85.9813 -75.22552,42.9906 -75.22551,-42.9906 0,-85.9813 75.22551,-43.0053 z"
       id="path3075"
       inkscape:connector-curvature="0" />
    <g
       id="g3104"
       transform="matrix(0.2632707,0,0,0.2632707,443.1646,992.83395)" />
    <g
       id="g3106"
       transform="matrix(0.2632707,0,0,0.2632707,443.1646,992.83395)" />
    <g
       id="g3108"
       transform="matrix(0.2632707,0,0,0.2632707,443.1646,992.83395)" />
    <g
       id="g3110"
       transform="matrix(0.2632707,0,0,0.2632707,443.1646,992.83395)" />
    <g
       id="g3112"
       transform="matrix(0.2632707,0,0,0.2632707,443.1646,992.83395)" />
    <g
       id="g3114"
       transform="matrix(0.2632707,0,0,0.2632707,443.1646,992.83395)" />
    <g
       id="g3116"
       transform="matrix(0.2632707,0,0,0.2632707,443.1646,992.83395)" />
    <g
       id="g3118"
       transform="matrix(0.2632707,0,0,0.2632707,443.1646,992.83395)" />
    <g
       id="g3120"
       transform="matrix(0.2632707,0,0,0.2632707,443.1646,992.83395)" />
    <g
       id="g3122"
       transform="matrix(0.2632707,0,0,0.2632707,443.1646,992.83395)" />
    <g
       id="g3124"
       transform="matrix(0.2632707,0,0,0.2632707,443.1646,992.83395)" />
    <g
       id="g3126"
       transform="matrix(0.2632707,0,0,0.2632707,443.1646,992.83395)" />
    <g
       id="g3128"
       transform="matrix(0.2632707,0,0,0.2632707,443.1646,992.83395)" />
    <g
       id="g3130"
       transform="matrix(0.2632707,0,0,0.2632707,443.1646,992.83395)" />
    <g
       id="g3132"
       transform="matrix(0.2632707,0,0,0.2632707,443.1646,992.83395)" />
    <path
       style="fill:#ffffff"
       inkscape:connector-curvature="0"
       d="m 530.28757,1026.215 c -0.0543,-0.072 -0.11401,-0.136 -0.17827,-0.1941 0.0162,-0.1451 0.0253,-0.2914 0.0253,-0.439 0,-1.3553 -1.67535,-3.9568 -3.11729,-5.9452 2.00039,-1.4216 3.11729,-3.5157 3.11729,-5.9369 0,-4.2935 -3.39755,-7.531 -7.90371,-7.531 h -43.74529 c -4.50616,0 -7.90412,3.2375 -7.90412,7.531 0,2.3694 1.06964,4.4249 2.98918,5.8444 -0.36981,0.4188 -0.79394,0.9101 -1.22096,1.4279 -2.3217,2.8167 -2.64176,3.8801 -2.64176,4.6098 0,0.4867 0.0908,0.9598 0.26036,1.4108 -1.24957,1.9548 -1.9071,4.2011 -1.9071,6.5493 v 44.5268 c 0,6.7229 5.47007,12.1926 12.19345,12.1926 h 40.28472 c 6.72296,0 12.19304,-5.4697 12.19304,-12.1926 v -44.5268 c 4.1e-4,-2.6679 -0.84493,-5.2014 -2.44483,-7.327 z m -53.92716,-5.5908 h 41.82201 c 0.77321,0 1.39924,-0.6264 1.39924,-1.3992 0,-0.7728 -0.62603,-1.3992 -1.39924,-1.3992 0,0 -41.22624,0 -42.08402,0 -0.85779,0 -2.71887,-1.8968 -2.71887,-4.126 0,-2.6981 2.19524,-4.7325 5.10565,-4.7325 h 43.74528 c 2.91083,0 5.10566,2.0344 5.10566,4.7325 0,2.3814 -1.6227,3.6281 -2.9838,4.2545 -0.597,0.2749 -0.92245,0.9283 -0.78149,1.5705 0.0626,0.2877 0.21144,0.5385 0.41624,0.7276 1.69401,2.2288 3.23089,4.6865 3.34822,5.3589 -0.004,0.1538 -0.0348,0.3027 -0.0945,0.4428 l 0,0 c -0.19071,0.4511 -0.63059,0.7421 -1.12063,0.7421 -0.66998,0 -1.21516,-0.5447 -1.21516,-1.2143 0,-2.2131 -1.80097,-4.0136 -4.01404,-4.0136 -2.21349,0 -4.01405,1.8005 -4.01405,4.0136 0,0.6696 -0.54394,1.2143 -1.2135,1.2143 -0.66997,0 -1.21598,-0.5447 -1.21598,-1.2143 0,-2.2131 -1.80056,-4.0136 -4.01363,-4.0136 -2.21307,0 -4.01446,1.8005 -4.01446,4.0136 0,0.6696 -0.54477,1.2143 -1.21474,1.2143 -0.67039,0 -1.21558,-0.5447 -1.21558,-1.2143 0,-2.2131 -1.80097,-4.0136 -4.01363,-4.0136 -2.21348,0 -4.01404,1.8005 -4.01404,4.0136 0,0.6696 -0.54518,1.2143 -1.21557,1.2143 -0.66998,0 -1.21516,-0.5447 -1.21516,-1.2143 0,-2.2131 -1.79973,-4.0136 -4.01197,-4.0136 -2.21432,0 -4.01612,1.8005 -4.01612,4.0136 0,0.6696 -0.54435,1.2143 -1.21308,1.2143 -0.66998,0 -1.21516,-0.5447 -1.21516,-1.2143 0,-2.2131 -1.80097,-4.0136 -4.01405,-4.0136 -2.23587,0 -4.12515,1.8378 -4.12515,4.0136 0,0.6696 -0.54518,1.2143 -1.21516,1.2143 -0.49004,0 -0.92992,-0.2914 -1.12063,-0.7421 l 0,0 c -0.0551,-0.1302 -0.0862,-0.2682 -0.0933,-0.4108 0.20522,-0.6986 1.90337,-2.9038 3.85442,-5.0191 z m 53.57393,57.4442 c 0,5.1798 -4.21429,9.3941 -9.39457,9.3941 h -40.28471 c -5.18028,0 -9.39499,-4.2143 -9.39499,-9.3941 v -44.5268 c 0,-1.544 0.36857,-3.0302 1.07379,-4.3681 0.54435,0.2707 1.15297,0.4208 1.78812,0.4208 2.21307,0 4.01362,-1.8002 4.01362,-4.0128 0,-0.636 0.63225,-1.2152 1.32669,-1.2152 0.67039,0 1.21557,0.5452 1.21557,1.2152 0,2.2126 1.80056,4.0128 4.01363,4.0128 2.21183,0 4.01155,-1.8002 4.01155,-4.0128 0,-0.67 0.54643,-1.2152 1.21765,-1.2152 0.66915,0 1.2135,0.5452 1.2135,1.2152 0,2.2126 1.80056,4.0128 4.01363,4.0128 2.21349,0 4.01404,-1.8002 4.01404,-4.0128 0,-0.67 0.54519,-1.2152 1.21558,-1.2152 0.67039,0 1.21515,0.5452 1.21515,1.2152 0,2.2126 1.80098,4.0128 4.01405,4.0128 2.21307,0 4.01321,-1.8002 4.01321,-4.0128 0,-0.67 0.5456,-1.2152 1.21599,-1.2152 0.67039,0 1.21516,0.5452 1.21516,1.2152 0,2.2126 1.80097,4.0128 4.01446,4.0128 2.21224,0 4.01197,-1.8002 4.01197,-4.0128 0,-0.67 0.54477,-1.2152 1.21557,-1.2152 0.66956,0 1.21557,0.5452 1.21557,1.2152 0,2.2126 1.80056,4.0128 4.01363,4.0128 0.92495,0 1.79476,-0.3159 2.48878,-0.864 0.86814,1.4494 1.32419,3.0936 1.32419,4.8113 v 44.5268 l -8.3e-4,0 z"
       id="path3331" />
    <g
       style="fill:#ffffff"
       id="g3335"
       transform="matrix(0.41458828,0,0,0.41458828,458.3507,1006.1688)" />
    <g
       style="fill:#ffffff"
       id="g3337"
       transform="matrix(0.41458828,0,0,0.41458828,458.3507,1006.1688)" />
    <g
       style="fill:#ffffff"
       id="g3339"
       transform="matrix(0.41458828,0,0,0.41458828,458.3507,1006.1688)" />
    <g
       style="fill:#ffffff"
       id="g3341"
       transform="matrix(0.41458828,0,0,0.41458828,458.3507,1006.1688)" />
    <g
       style="fill:#ffffff"
       id="g3343"
       transform="matrix(0.41458828,0,0,0.41458828,458.3507,1006.1688)" />
    <g
       style="fill:#ffffff"
       id="g3345"
       transform="matrix(0.41458828,0,0,0.41458828,458.3507,1006.1688)" />
    <g
       style="fill:#ffffff"
       id="g3347"
       transform="matrix(0.41458828,0,0,0.41458828,458.3507,1006.1688)" />
    <g
       style="fill:#ffffff"
       id="g3349"
       transform="matrix(0.41458828,0,0,0.41458828,458.3507,1006.1688)" />
    <g
       style="fill:#ffffff"
       id="g3351"
       transform="matrix(0.41458828,0,0,0.41458828,458.3507,1006.1688)" />
    <g
       style="fill:#ffffff"
       id="g3353"
       transform="matrix(0.41458828,0,0,0.41458828,458.3507,1006.1688)" />
    <g
       style="fill:#ffffff"
       id="g3355"
       transform="matrix(0.41458828,0,0,0.41458828,458.3507,1006.1688)" />
    <g
       style="fill:#ffffff"
       id="g3357"
       transform="matrix(0.41458828,0,0,0.41458828,458.3507,1006.1688)" />
    <g
       style="fill:#ffffff"
       id="g3359"
       transform="matrix(0.41458828,0,0,0.41458828,458.3507,1006.1688)" />
    <g
       style="fill:#ffffff"
       id="g3361"
       transform="matrix(0.41458828,0,0,0.41458828,458.3507,1006.1688)" />
    <g
       style="fill:#ffffff"
       id="g3363"
       transform="matrix(0.41458828,0,0,0.41458828,458.3507,1006.1688)" />
    <path
       id="path3554"
       d="m 517.84574,1060.5517 c -0.15853,-0.2023 -1.03951,-1.2279 -2.80385,-1.9008 -0.71971,-0.2228 -2.46377,-0.4455 -4.30842,-0.8133 l -2.78016,-0.6976 c -0.9255,-0.3005 -1.74199,-0.6656 -2.30298,-1.1187 0.52889,-0.5424 1.01289,-1.1871 1.44709,-1.9311 1.39595,-2.3924 1.89341,-5.1874 1.89341,-7.0053 0,-0.026 -0.0134,-2.6941 -0.0574,-3.046 -0.0322,-0.257 -0.0782,-0.5096 -0.13589,-0.7577 1.20627,-0.019 2.17873,-1.0009 2.17873,-2.2117 0,-1.2226 -0.99093,-2.2136 -2.21358,-2.2136 h -0.69907 c -1.01536,-2.0979 -3.16445,-3.5451 -5.65163,-3.5451 h -3.14447 c -2.48717,0 -4.63627,1.4472 -5.65163,3.5451 h -0.69907 c -1.22256,0 -2.21348,0.991 -2.21348,2.2136 0,1.2114 0.97312,2.1939 2.18025,2.2118 -0.0398,0.1704 -0.0755,0.3417 -0.10304,0.5151 -0.0721,0.4519 -0.0918,3.2613 -0.0918,3.2886 0,1.8178 0.49745,4.6128 1.89331,7.0054 0.4342,0.7439 0.9182,1.3886 1.44709,1.931 -0.56109,0.4531 -1.37748,0.8181 -2.30298,1.1187 l -2.78007,0.6976 c -1.84493,0.3679 -3.58881,0.5906 -4.30842,0.8133 -1.76453,0.6729 -2.64551,1.6985 -2.80385,1.9009 -3.24485,4.8169 -3.61237,15.6244 -3.61531,15.7319 0.0289,1.4382 0.45626,1.9295 0.6037,1.99 7.22268,3.2135 15.72446,4.0293 19.89509,4.0293 0.0396,0 0.0821,0 0.12245,0 0.0403,0 0.0829,0 0.12245,0 4.17063,0 12.67241,-0.8158 19.89509,-4.0293 0.14744,-0.061 0.57472,-0.5518 0.6037,-1.99 -0.003,-0.1076 -0.37046,-10.9151 -3.61522,-15.7321 z m -20.66206,-16.8876 c -1.33052,0 -2.52221,0.4685 -3.32942,1.2083 0.012,-0.4412 0.0262,-0.7981 0.0419,-0.8985 0.0372,-0.235 0.0893,-0.4651 0.15247,-0.691 h 13.58464 c 0.0804,0.2909 0.14091,0.5896 0.17917,0.8955 0.009,0.077 0.0169,0.3512 0.0238,0.7043 -0.80731,-0.7457 -2.00393,-1.2185 -3.34051,-1.2185 h -7.31217 z m 2.6386,3.4913 c 0,0.7177 -1.87647,1.9539 -3.79724,1.9539 -1.33705,0 -1.93337,-0.6027 -1.93337,-1.9539 0,-1.059 1.31205,-1.9537 2.8654,-1.9537 1.55296,0 2.86521,0.8947 2.86521,1.9537 z m 4.90019,-1.9537 c 1.55315,0 2.8653,0.8947 2.8653,1.9537 0,1.3512 -0.59632,1.9539 -1.93337,1.9539 -1.92088,0 -3.79724,-1.2362 -3.79724,-1.9539 0,-1.059 1.31224,-1.9537 2.86531,-1.9537 z m -9.16477,8.3193 c -0.63543,-1.089 -1.06764,-2.2687 -1.34264,-3.3852 0.52245,0.324 1.19624,0.511 2.03678,0.511 1.6721,0 3.51627,-0.9428 4.63447,-0.9428 1.1182,0 2.86909,0.9428 4.54129,0.9428 0.84054,0 1.51433,-0.1868 2.03677,-0.511 -0.27491,1.1165 -0.70721,2.2963 -1.34263,3.3852 -0.92275,1.5812 -2.58813,3.4662 -5.28202,3.4662 -2.6939,0 -4.35928,-1.885 -5.28202,-3.4662 z"
       inkscape:connector-curvature="0"
       style="fill:#ffffff" />
  </g>
</svg>
