<?xml version="1.0" encoding="UTF-8" standalone="no"?>
<!-- Created with Inkscape (http://www.inkscape.org/) -->

<svg
   xmlns:dc="http://purl.org/dc/elements/1.1/"
   xmlns:cc="http://creativecommons.org/ns#"
   xmlns:rdf="http://www.w3.org/1999/02/22-rdf-syntax-ns#"
   xmlns:svg="http://www.w3.org/2000/svg"
   xmlns="http://www.w3.org/2000/svg"
   xmlns:sodipodi="http://sodipodi.sourceforge.net/DTD/sodipodi-0.dtd"
   xmlns:inkscape="http://www.inkscape.org/namespaces/inkscape"
   width="1000"
   height="300"
   id="svg3063"
   version="1.1"
   inkscape:version="0.48.4 r9939"
   sodipodi:docname="harvest_github.svg"
   inkscape:export-filename="C:\Users\jmwri_000\Documents\jordan-wright.github.com\source\images\headers\blackhat_python.png"
   inkscape:export-xdpi="89.496582"
   inkscape:export-ydpi="89.496582">
  <defs
     id="defs3065">
    <inkscape:path-effect
       effect="spiro"
       id="path-effect4377"
       is_visible="true" />
    <inkscape:path-effect
       effect="spiro"
       id="path-effect4377-1"
       is_visible="true" />
  </defs>
  <sodipodi:namedview
     id="base"
     pagecolor="#ffffff"
     bordercolor="#666666"
     borderopacity="1.0"
     inkscape:pageopacity="0.0"
     inkscape:pageshadow="2"
     inkscape:zoom="0.81035689"
     inkscape:cx="564.0191"
     inkscape:cy="220.14042"
     inkscape:current-layer="layer1"
     inkscape:document-units="px"
     showgrid="false"
     inkscape:window-width="1348"
     inkscape:window-height="687"
     inkscape:window-x="1"
     inkscape:window-y="1"
     inkscape:window-maximized="1" />
  <metadata
     id="metadata3068">
    <rdf:RDF>
      <cc:Work
         rdf:about="">
        <dc:format>image/svg+xml</dc:format>
        <dc:type
           rdf:resource="http://purl.org/dc/dcmitype/StillImage" />
        <dc:title></dc:title>
      </cc:Work>
    </rdf:RDF>
  </metadata>
  <g
     id="layer1"
     inkscape:label="Layer 1"
     inkscape:groupmode="layer"
     transform="translate(0,-900)">
    <rect
       style="fill:#1e824c;fill-opacity:1"
       id="rect3955"
       width="1000"
       height="300"
       x="0"
       y="900"
       ry="6" />
    <path
       style="fill:#ffffff"
       d="m 500,950.00029 -87.5,50.00001 0,100 87.5,50 87.5,-50 0,-100 -87.5,-50.00001 z m -0.61963,14.63201 75.22552,43.0053 0,85.9813 -75.22552,42.9906 -75.22551,-42.9906 0,-85.9813 75.22551,-43.0053 z"
       id="path3075"
       inkscape:connector-curvature="0" />
    <g
       id="g4073"
       transform="matrix(2.7256337,0,0,2.7256337,456.28176,1018.5265)" />
    <g
       id="g4075"
       transform="matrix(2.7256337,0,0,2.7256337,456.28176,1018.5265)" />
    <g
       id="g4077"
       transform="matrix(2.7256337,0,0,2.7256337,456.28176,1018.5265)" />
    <g
       id="g4079"
       transform="matrix(2.7256337,0,0,2.7256337,456.28176,1018.5265)" />
    <g
       id="g4081"
       transform="matrix(2.7256337,0,0,2.7256337,456.28176,1018.5265)" />
    <g
       id="g4083"
       transform="matrix(2.7256337,0,0,2.7256337,456.28176,1018.5265)" />
    <g
       id="g4085"
       transform="matrix(2.7256337,0,0,2.7256337,456.28176,1018.5265)" />
    <g
       id="g4087"
       transform="matrix(2.7256337,0,0,2.7256337,456.28176,1018.5265)" />
    <g
       id="g4089"
       transform="matrix(2.7256337,0,0,2.7256337,456.28176,1018.5265)" />
    <g
       id="g4091"
       transform="matrix(2.7256337,0,0,2.7256337,456.28176,1018.5265)" />
    <g
       id="g4093"
       transform="matrix(2.7256337,0,0,2.7256337,456.28176,1018.5265)" />
    <g
       id="g4095"
       transform="matrix(2.7256337,0,0,2.7256337,456.28176,1018.5265)" />
    <g
       id="g4097"
       transform="matrix(2.7256337,0,0,2.7256337,456.28176,1018.5265)" />
    <g
       id="g4099"
       transform="matrix(2.7256337,0,0,2.7256337,456.28176,1018.5265)" />
    <g
       id="g4101"
       transform="matrix(2.7256337,0,0,2.7256337,456.28176,1018.5265)" />
    <path
       id="path6326"
       d="m 453.46407,1012.2829 v 7.5976 h 1.19393 v -9.7509 h -0.76937 c -0.20876,0.4199 -0.56061,0.8515 -1.06023,1.2972 -0.49728,0.4456 -1.08369,0.8256 -1.74985,1.1423 v 1.1494 c 0.37295,-0.1361 0.79282,-0.3402 1.25961,-0.617 0.46444,-0.2697 0.83974,-0.5465 1.12591,-0.8186 z m 7.41458,7.7641 c 0.71073,0 1.29715,-0.1923 1.76158,-0.5747 0.46913,-0.3823 0.81863,-0.9218 1.0532,-1.6208 0.23456,-0.7014 0.35184,-1.6209 0.35184,-2.7608 0,-0.9618 -0.0727,-1.7264 -0.21814,-2.2941 -0.14778,-0.57 -0.3495,-1.0485 -0.60283,-1.4472 -0.25802,-0.3941 -0.58407,-0.6967 -0.97579,-0.9055 -0.39407,-0.2087 -0.84912,-0.3143 -1.36986,-0.3143 -0.70369,0 -1.29479,0.19 -1.75923,0.57 -0.46913,0.38 -0.81629,0.9172 -1.05554,1.6185 -0.23457,0.699 -0.35419,1.6255 -0.35419,2.7726 0,1.8249 0.3237,3.1408 0.96171,3.95 0.53481,0.6709 1.27134,1.0063 2.20725,1.0063 z m -1.32763,-8.2356 c 0.32604,-0.4644 0.76468,-0.6966 1.31356,-0.6966 0.55592,0 1.02035,0.2627 1.39566,0.7858 0.3753,0.5277 0.56061,1.588 0.56061,3.1877 0,1.5904 -0.18531,2.6506 -0.56061,3.1784 -0.37531,0.5324 -0.83505,0.7975 -1.38159,0.7975 -0.54653,0 -1.00862,-0.2651 -1.38158,-0.7928 -0.37531,-0.5255 -0.55592,-1.5881 -0.55592,-3.1831 0,-1.595 0.19938,-2.6858 0.60987,-3.2769 z m 9.00728,0.4715 v 7.5976 h 1.19158 v -9.7509 h -0.76937 c -0.20641,0.4199 -0.56061,0.8515 -1.06023,1.2995 -0.49728,0.4433 -1.079,0.8233 -1.74985,1.14 v 1.1494 c 0.37296,-0.1361 0.79283,-0.3402 1.25727,-0.617 0.46678,-0.2697 0.84443,-0.5465 1.1306,-0.8186 z m 7.41458,7.7641 c 0.70604,0 1.29714,-0.1923 1.76158,-0.5747 0.46678,-0.3823 0.81394,-0.9218 1.0485,-1.6208 0.23457,-0.7014 0.3542,-1.6209 0.3542,-2.7608 0,-0.9618 -0.0751,-1.7264 -0.22284,-2.2941 -0.13839,-0.57 -0.34012,-1.0485 -0.59814,-1.4472 -0.25802,-0.3941 -0.57937,-0.6967 -0.97579,-0.9055 -0.39407,-0.2087 -0.84912,-0.3143 -1.36751,-0.3143 -0.70838,0 -1.29714,0.19 -1.76158,0.57 -0.46678,0.38 -0.81628,0.9195 -1.05319,1.6185 -0.23457,0.699 -0.35185,1.6255 -0.35185,2.7726 0,1.8249 0.31901,3.1408 0.95937,3.95 0.53246,0.6709 1.26899,1.0063 2.20725,1.0063 z m -1.32998,-8.2356 c 0.32839,-0.4644 0.76703,-0.6966 1.31356,-0.6966 0.55827,0 1.02036,0.2627 1.39566,0.7858 0.3753,0.5277 0.56061,1.588 0.56061,3.1877 0,1.5904 -0.18531,2.6506 -0.56061,3.1784 -0.3753,0.5324 -0.8327,0.7975 -1.37689,0.7975 -0.55123,0 -1.01098,-0.2651 -1.38393,-0.7928 -0.37531,-0.5255 -0.55827,-1.5881 -0.55827,-3.1831 0,-1.595 0.20173,-2.6858 0.60987,-3.2769 z m 8.87358,8.2356 c 0.71073,0 1.29714,-0.1923 1.76158,-0.5747 0.46678,-0.3823 0.81863,-0.9218 1.05319,-1.6208 0.23457,-0.7014 0.35185,-1.6209 0.35185,-2.7608 0,-0.9618 -0.0727,-1.7264 -0.21815,-2.2941 -0.14777,-0.57 -0.34715,-1.0485 -0.60283,-1.4472 -0.25802,-0.3941 -0.58406,-0.6967 -0.97579,-0.9055 -0.39406,-0.2087 -0.84912,-0.3143 -1.36985,-0.3143 -0.70839,0 -1.2948,0.19 -1.75924,0.57 -0.46678,0.38 -0.81394,0.9195 -1.05319,1.6185 -0.23457,0.699 -0.35419,1.6255 -0.35419,2.7726 0,1.8249 0.3237,3.1408 0.96171,3.95 0.53246,0.6709 1.26665,1.0063 2.20491,1.0063 z m -1.32529,-8.2356 c 0.32604,-0.4644 0.76468,-0.6966 1.31356,-0.6966 0.55592,0 1.02036,0.2627 1.39566,0.7858 0.3753,0.5277 0.56061,1.588 0.56061,3.1877 0,1.5904 -0.18531,2.6506 -0.56061,3.1784 -0.3753,0.5324 -0.83505,0.7975 -1.38159,0.7975 -0.54653,0 -1.00862,-0.2651 -1.38158,-0.7928 -0.37531,-0.5255 -0.55592,-1.5881 -0.55592,-3.1831 0,-1.595 0.19703,-2.6858 0.60987,-3.2769 z m 8.87123,8.2356 c 0.71073,0 1.29714,-0.1923 1.76158,-0.5747 0.46678,-0.3823 0.81863,-0.9218 1.05319,-1.6208 0.23457,-0.7014 0.35185,-1.6209 0.35185,-2.7608 0,-0.9618 -0.0751,-1.7264 -0.21814,-2.2941 -0.14778,-0.57 -0.34951,-1.0485 -0.60284,-1.4472 -0.26036,-0.3941 -0.58406,-0.6967 -0.97344,-0.9055 -0.39407,-0.2087 -0.85381,-0.3143 -1.3722,-0.3143 -0.70604,0 -1.29245,0.19 -1.75924,0.57 -0.46678,0.38 -0.81863,0.9195 -1.05554,1.6185 -0.23456,0.699 -0.35184,1.6255 -0.35184,2.7726 0,1.8249 0.31901,3.1408 0.95702,3.95 0.53481,0.6709 1.27134,1.0063 2.2096,1.0063 z m -1.32764,-8.2356 c 0.32605,-0.4644 0.76703,-0.6966 1.31122,-0.6966 0.56061,0 1.0227,0.2627 1.398,0.7858 0.37296,0.5277 0.56061,1.588 0.56061,3.1877 0,1.5904 -0.18999,2.6506 -0.56061,3.1784 -0.3753,0.5324 -0.8327,0.7975 -1.38158,0.7975 -0.55123,0 -1.01097,-0.2651 -1.38393,-0.7928 -0.37061,-0.5255 -0.55592,-1.5881 -0.55592,-3.1831 0,-1.595 0.20407,-2.6858 0.61221,-3.2769 z m 9.00728,0.4715 v 7.5976 h 1.19159 v -9.7509 h -0.76937 c -0.20876,0.4199 -0.56061,0.8515 -1.05789,1.2995 -0.49727,0.4433 -1.08603,0.8257 -1.74985,1.14 v 1.1494 c 0.37061,-0.1361 0.78814,-0.3402 1.25727,-0.617 0.46443,-0.2697 0.84208,-0.5465 1.12825,-0.8186 z m 6.53497,0 v 7.5976 h 1.19628 v -9.7509 h -0.76937 c -0.20876,0.4199 -0.56061,0.8515 -1.06023,1.2995 -0.50197,0.4433 -1.08369,0.8257 -1.74986,1.14 v 1.1494 c 0.37062,-0.1361 0.79049,-0.3402 1.25493,-0.617 0.46912,-0.2697 0.84677,-0.5465 1.12825,-0.8186 z m 7.41693,7.7641 c 0.71073,0 1.29714,-0.1923 1.75924,-0.5747 0.46678,-0.3823 0.82097,-0.9218 1.05319,-1.6208 0.23457,-0.7014 0.35185,-1.6209 0.35185,-2.7608 0,-0.9618 -0.0751,-1.7264 -0.22049,-2.2941 -0.14074,-0.57 -0.34481,-1.0485 -0.59814,-1.4472 -0.26037,-0.3941 -0.58641,-0.6967 -0.97579,-0.9055 -0.39407,-0.2087 -0.84913,-0.3143 -1.36986,-0.3143 -0.70604,0 -1.29245,0.19 -1.75923,0.57 -0.46679,0.38 -0.82098,0.9195 -1.05789,1.6185 -0.22987,0.699 -0.3495,1.6255 -0.3495,2.7726 0,1.8249 0.31901,3.1408 0.95702,3.95 0.53481,0.6709 1.27134,1.0063 2.2096,1.0063 z m -1.32529,-8.2356 c 0.32839,-0.4644 0.76703,-0.6966 1.31356,-0.6966 0.55592,0 1.0227,0.2627 1.39332,0.7858 0.3753,0.5277 0.56295,1.588 0.56295,3.1877 0,1.5904 -0.19234,2.6506 -0.56295,3.1784 -0.37296,0.5324 -0.83036,0.7975 -1.37924,0.7975 -0.54888,0 -1.01332,-0.2651 -1.38393,-0.7928 -0.37531,-0.5255 -0.55827,-1.5881 -0.55827,-3.1831 0,-1.595 0.20407,-2.6858 0.61456,-3.2769 z m 9.00259,0.4715 v 7.5976 h 1.19159 v -9.7509 h -0.76703 c -0.21111,0.4199 -0.56295,0.8515 -1.05788,1.2995 -0.49963,0.4433 -1.08604,0.8233 -1.7522,1.14 v 1.1494 c 0.37061,-0.1361 0.79048,-0.3402 1.25492,-0.617 0.46913,-0.2697 0.84208,-0.5465 1.1306,-0.8186 z m 7.41458,7.7641 c 0.71074,0 1.29715,-0.1923 1.76628,-0.5747 0.46209,-0.3823 0.81863,-0.9218 1.0485,-1.6208 0.23456,-0.7014 0.3495,-1.6209 0.3495,-2.7608 0,-0.9618 -0.0727,-1.7264 -0.21814,-2.2941 -0.14778,-0.57 -0.34481,-1.0485 -0.60284,-1.4472 -0.25567,-0.3941 -0.58172,-0.6967 -0.97578,-0.9055 -0.39407,-0.2087 -0.84444,-0.3143 -1.36752,-0.3143 -0.70369,0 -1.29245,0.19 -1.75923,0.57 -0.46678,0.38 -0.81628,0.9195 -1.05319,1.6185 -0.23457,0.699 -0.35185,1.6255 -0.35185,2.7726 0,1.8249 0.3237,3.1408 0.96171,3.95 0.53247,0.6709 1.26431,1.0063 2.20256,1.0063 z m -1.32294,-8.2356 c 0.32605,-0.4644 0.76234,-0.6966 1.31356,-0.6966 0.55592,0 1.02036,0.2627 1.39566,0.7858 0.3753,0.5277 0.56061,1.588 0.56061,3.1877 0,1.5904 -0.18531,2.6506 -0.56061,3.1784 -0.3753,0.5324 -0.8327,0.7975 -1.38158,0.7975 -0.54889,0 -1.00629,-0.2651 -1.38159,-0.7928 -0.3753,-0.5255 -0.55592,-1.5881 -0.55592,-3.1831 0,-1.595 0.19704,-2.6858 0.60987,-3.2769 z m 9.00259,0.4715 v 7.5976 h 1.19159 v -9.7509 h -0.76938 c -0.20641,0.4199 -0.56061,0.8515 -1.06023,1.2995 -0.49962,0.4433 -1.08369,0.8257 -1.74985,1.14 v 1.1494 c 0.36827,-0.1361 0.78814,-0.3402 1.25492,-0.617 0.46678,-0.2697 0.84678,-0.5465 1.13295,-0.8186 z m 6.53731,0 v 7.5976 h 1.19628 v -9.7509 h -0.76937 c -0.20642,0.4199 -0.56061,0.8515 -1.05789,1.2995 -0.50196,0.4433 -1.08368,0.8257 -1.74985,1.14 v 1.1494 c 0.36827,-0.1361 0.78814,-0.3402 1.25492,-0.617 0.46444,-0.2697 0.84209,-0.5465 1.12591,-0.8186 z m -88.53873,16.2811 v 7.5999 h 1.19393 v -9.7532 h -0.76937 c -0.20876,0.4199 -0.56061,0.8515 -1.05789,1.2995 -0.49962,0.4434 -1.08603,0.8257 -1.74985,1.14 v 1.1517 c 0.37061,-0.136 0.79048,-0.3424 1.25727,-0.6145 0.46444,-0.2768 0.83974,-0.5513 1.12591,-0.8234 z m 7.41458,7.7665 c 0.71073,0 1.29715,-0.1924 1.76158,-0.5747 0.46913,-0.3823 0.81863,-0.9218 1.0532,-1.6208 0.23456,-0.6991 0.35184,-1.6209 0.35184,-2.7609 0,-0.9617 -0.0727,-1.7264 -0.21814,-2.294 -0.14778,-0.57 -0.34716,-1.0509 -0.60283,-1.4449 -0.25802,-0.3964 -0.58407,-0.6967 -0.97579,-0.9078 -0.39407,-0.2088 -0.84912,-0.3143 -1.36986,-0.3143 -0.70369,0 -1.29479,0.19 -1.75923,0.57 -0.46678,0.38 -0.81394,0.9218 -1.0532,1.6185 -0.23456,0.7013 -0.35419,1.6232 -0.35419,2.7702 0,1.8272 0.3237,3.1408 0.96172,3.95 0.53246,0.6709 1.26899,1.0087 2.2049,1.0087 z m -1.32763,-8.2356 c 0.32604,-0.4644 0.76468,-0.6966 1.31356,-0.6966 0.55592,0 1.02035,0.2627 1.39566,0.7857 0.3753,0.5255 0.56061,1.5881 0.56061,3.1854 0,1.5927 -0.18531,2.6506 -0.56061,3.1807 -0.37531,0.5301 -0.83505,0.7952 -1.38159,0.7952 -0.54653,0 -1.00862,-0.2651 -1.38158,-0.7928 -0.37531,-0.5278 -0.55592,-1.588 -0.55592,-3.1831 -0.002,-1.5903 0.19938,-2.6834 0.60987,-3.2745 z m 9.00728,0.4691 v 7.5999 h 1.19158 v -9.7532 h -0.76937 c -0.20641,0.4199 -0.56061,0.8515 -1.06023,1.2995 -0.49728,0.4434 -1.08134,0.8257 -1.74985,1.14 v 1.1517 c 0.37296,-0.136 0.79283,-0.3424 1.25727,-0.6145 0.46678,-0.2768 0.84443,-0.5513 1.1306,-0.8234 z m 7.41458,7.7665 c 0.70604,0 1.29714,-0.1924 1.76158,-0.5747 0.46678,-0.3823 0.81394,-0.9218 1.0485,-1.6208 0.23457,-0.6991 0.3542,-1.6209 0.3542,-2.7609 0,-0.9617 -0.0751,-1.7264 -0.22284,-2.294 -0.14308,-0.57 -0.34481,-1.0509 -0.60283,-1.4449 -0.25802,-0.3964 -0.57937,-0.6967 -0.97579,-0.9078 -0.39407,-0.2088 -0.84912,-0.3143 -1.36751,-0.3143 -0.70838,0 -1.29714,0.19 -1.76158,0.57 -0.46678,0.38 -0.81628,0.9218 -1.05319,1.6185 -0.23457,0.7013 -0.35185,1.6232 -0.35185,2.7702 0,1.8272 0.31901,3.1408 0.95937,3.95 0.53715,0.6709 1.27368,1.0087 2.21194,1.0087 z m -1.32998,-8.2356 c 0.32839,-0.4644 0.76703,-0.6966 1.31356,-0.6966 0.55827,0 1.02036,0.2627 1.39566,0.7857 0.3753,0.5255 0.56061,1.5881 0.56061,3.1854 0,1.5927 -0.18531,2.6506 -0.56061,3.1807 -0.3753,0.5301 -0.8327,0.7952 -1.37689,0.7952 -0.55123,0 -1.01098,-0.2651 -1.38393,-0.7928 -0.37531,-0.5278 -0.55827,-1.588 -0.55827,-3.1831 -0.002,-1.5903 0.20173,-2.6834 0.60987,-3.2745 z m 10.19887,8.069 v -9.7532 h -0.76937 c -0.20877,0.4199 -0.56061,0.8515 -1.06258,1.2995 -0.49728,0.4434 -1.08134,0.8257 -1.74516,1.14 v 1.1517 c 0.37061,-0.136 0.78813,-0.3424 1.25492,-0.6145 0.46678,-0.2745 0.84443,-0.5489 1.12591,-0.8234 v 7.5999 h 1.19628 z m 5.34338,-7.5999 v 7.5999 h 1.19159 v -9.7532 h -0.76938 c -0.20407,0.4199 -0.56061,0.8515 -1.06023,1.2995 -0.49727,0.4434 -1.08134,0.8257 -1.7475,1.14 v 1.1517 c 0.37295,-0.136 0.78813,-0.3424 1.25492,-0.6145 0.46913,-0.2768 0.84677,-0.5513 1.1306,-0.8234 z m 7.41927,7.7665 c 0.70604,0 1.29715,-0.1924 1.76158,-0.5747 0.46444,-0.3823 0.81394,-0.9218 1.04851,-1.6208 0.23456,-0.6991 0.35419,-1.6209 0.35419,-2.7609 0,-0.9617 -0.0751,-1.7264 -0.22284,-2.294 -0.14308,-0.57 -0.34481,-1.0509 -0.60283,-1.4449 -0.25802,-0.3964 -0.57937,-0.6967 -0.97109,-0.9078 -0.39642,-0.2088 -0.85382,-0.3143 -1.36986,-0.3143 -0.70839,0 -1.2948,0.19 -1.75924,0.57 -0.46443,0.38 -0.81863,0.9218 -1.05554,1.6185 -0.23456,0.7013 -0.35184,1.6232 -0.35184,2.7702 0,1.8272 0.31901,3.1408 0.95937,3.95 0.5348,0.6709 1.27134,1.0087 2.20959,1.0087 z m -1.32529,-8.2356 c 0.32605,-0.4644 0.76469,-0.6966 1.30887,-0.6966 0.55827,0 1.02505,0.2627 1.39566,0.7857 0.37531,0.5255 0.56061,1.5881 0.56061,3.1854 0,1.5927 -0.1853,2.6506 -0.56061,3.1807 -0.37061,0.5301 -0.8327,0.7952 -1.37689,0.7952 -0.55123,0 -1.01097,-0.2651 -1.38393,-0.7928 -0.3753,-0.5278 -0.55826,-1.588 -0.55826,-3.1831 -0.002,-1.5903 0.20407,-2.6834 0.61455,-3.2745 z m 31.50671,8.2356 c 0.71074,0 1.29715,-0.1924 1.76628,-0.5747 0.46209,-0.3823 0.81863,-0.9218 1.0485,-1.6208 0.23456,-0.6991 0.3495,-1.6209 0.3495,-2.7609 0,-0.9617 -0.0727,-1.7264 -0.21814,-2.294 -0.14778,-0.57 -0.34481,-1.0509 -0.60284,-1.4449 -0.25567,-0.3964 -0.58172,-0.6967 -0.97578,-0.9078 -0.39407,-0.2111 -0.84913,-0.3143 -1.37221,-0.3143 -0.70369,0 -1.29479,0.19 -1.75923,0.57 -0.46678,0.38 -0.81394,0.9218 -1.0532,1.6185 -0.23456,0.7013 -0.35419,1.6232 -0.35419,2.7702 0,1.8272 0.32605,3.1408 0.96172,3.95 0.5395,0.6709 1.27134,1.0087 2.20959,1.0087 z m -1.32294,-8.2356 c 0.32605,-0.4644 0.76234,-0.6966 1.31356,-0.6966 0.55592,0 1.02036,0.2627 1.39566,0.7857 0.3753,0.5255 0.56061,1.5881 0.56061,3.1854 0,1.5927 -0.18531,2.6506 -0.56061,3.1807 -0.3753,0.5301 -0.8327,0.7952 -1.38158,0.7952 -0.54889,0 -1.00629,-0.2651 -1.38159,-0.7928 -0.3753,-0.5278 -0.55592,-1.588 -0.55592,-3.1831 -0.005,-1.5903 0.19704,-2.6834 0.60987,-3.2745 z m 8.86889,8.2356 c 0.71073,0 1.29714,-0.1924 1.76158,-0.5747 0.46678,-0.3823 0.81863,-0.9218 1.05319,-1.6208 0.23457,-0.6991 0.3495,-1.6209 0.3495,-2.7609 0,-0.9617 -0.0727,-1.7264 -0.2158,-2.294 -0.14777,-0.57 -0.3495,-1.0509 -0.60517,-1.4449 -0.26037,-0.3964 -0.58407,-0.6967 -0.97345,-0.9078 -0.39407,-0.2088 -0.84912,-0.3143 -1.3722,-0.3143 -0.70604,0 -1.29245,0.19 -1.75923,0.57 -0.46679,0.38 -0.81863,0.9218 -1.0532,1.6185 -0.23691,0.7013 -0.35185,1.6232 -0.35185,2.7702 0,1.8272 0.31901,3.1408 0.95703,3.95 0.53481,0.6709 1.26899,1.0087 2.2096,1.0087 z m -1.32529,-8.2356 c 0.32604,-0.4644 0.76468,-0.6966 1.31356,-0.6966 0.55592,0 1.02035,0.2627 1.39566,0.7857 0.37061,0.5255 0.55826,1.5881 0.55826,3.1854 0,1.5927 -0.19,2.6506 -0.55826,3.1807 -0.37531,0.5301 -0.83271,0.7952 -1.38393,0.7952 -0.55123,0 -1.01098,-0.2651 -1.38159,-0.7928 -0.3753,-0.5278 -0.56061,-1.588 -0.56061,-3.1831 0.005,-1.5903 0.20642,-2.6834 0.61691,-3.2745 z m 7.11668,-1.1142 c -0.47147,0.38 -0.82097,0.9219 -1.05788,1.6185 -0.23457,0.7014 -0.3495,1.6232 -0.3495,2.7702 0,1.8273 0.31901,3.1409 0.95702,3.9501 0.53481,0.6709 1.27134,1.0086 2.2096,1.0086 0.70604,0 1.29714,-0.1923 1.75923,-0.5747 0.46679,-0.3823 0.81629,-0.9218 1.04851,-1.6208 0.23222,-0.699 0.35419,-1.6208 0.35419,-2.7608 0,-0.9617 -0.0751,-1.7264 -0.22284,-2.2941 -0.14543,-0.57 -0.34246,-1.0508 -0.60048,-1.4449 -0.26037,-0.3964 -0.58172,-0.6966 -0.9711,-0.9077 -0.39876,-0.2088 -0.85616,-0.3144 -1.37455,-0.3144 -0.70369,0 -1.2901,0.19 -1.7522,0.57 z m 3.13379,1.2033 c 0.3753,0.5255 0.56295,1.5881 0.56295,3.1854 0,1.5927 -0.18765,2.6506 -0.56295,3.1807 -0.37061,0.5301 -0.83036,0.7952 -1.37455,0.7952 -0.55123,0 -1.01332,-0.2651 -1.38628,-0.7928 -0.37296,-0.5278 -0.55592,-1.588 -0.55592,-3.1831 0,-1.5927 0.20642,-2.6857 0.61222,-3.2768 0.32839,-0.4645 0.76702,-0.6967 1.31356,-0.6967 0.55357,0 1.01801,0.2651 1.39097,0.7881 z m -90.7929,16.6612 v 7.5999 h 1.19393 v -9.7509 h -0.76937 c -0.20876,0.4199 -0.56061,0.8515 -1.05789,1.2995 -0.49962,0.4457 -1.08603,0.8257 -1.74985,1.14 v 1.1517 c 0.37061,-0.1384 0.79048,-0.3425 1.25727,-0.6169 0.46678,-0.2744 0.83974,-0.5489 1.12591,-0.8233 z m 7.41458,7.7664 c 0.71073,0 1.29715,-0.1923 1.76158,-0.5747 0.46913,-0.3823 0.81863,-0.9242 1.0532,-1.6232 0.23456,-0.7013 0.35184,-1.6208 0.35184,-2.7608 0,-0.9617 -0.0727,-1.7287 -0.21814,-2.2964 -0.14778,-0.5676 -0.34716,-1.0485 -0.60283,-1.4449 -0.25802,-0.3941 -0.58407,-0.6967 -0.97579,-0.9078 -0.39407,-0.2087 -0.84912,-0.3143 -1.36986,-0.3143 -0.70369,0 -1.29479,0.19 -1.75923,0.57 -0.46678,0.38 -0.81394,0.9195 -1.0532,1.6185 -0.23456,0.699 -0.35419,1.6232 -0.35419,2.7726 0,1.8249 0.3237,3.1408 0.96172,3.95 0.53246,0.6732 1.26899,1.011 2.2049,1.011 z m -1.32763,-8.2356 c 0.32604,-0.4644 0.76468,-0.6943 1.31356,-0.6943 0.55592,0 1.02035,0.2627 1.39566,0.7882 0.3753,0.5254 0.56061,1.588 0.56061,3.1854 0,1.5903 -0.18531,2.6505 -0.56061,3.1806 -0.37531,0.5302 -0.83505,0.7952 -1.38159,0.7952 -0.54653,0 -1.00862,-0.2627 -1.38158,-0.7905 -0.37296,-0.5277 -0.55592,-1.588 -0.55592,-3.183 -0.002,-1.5974 0.19938,-2.6881 0.60987,-3.2816 z m 9.00728,0.4692 v 7.5999 h 1.19158 v -9.7509 h -0.76937 c -0.20641,0.4199 -0.56061,0.8515 -1.06023,1.2995 -0.49728,0.4457 -1.08134,0.8257 -1.74985,1.14 v 1.1517 c 0.37296,-0.1384 0.79283,-0.3425 1.25727,-0.6169 0.46678,-0.2744 0.84443,-0.5489 1.1306,-0.8233 z m 7.41458,7.7664 c 0.70604,0 1.29714,-0.1923 1.76158,-0.5747 0.46678,-0.3823 0.81394,-0.9242 1.0485,-1.6232 0.23457,-0.7013 0.3542,-1.6208 0.3542,-2.7608 0,-0.9617 -0.0751,-1.7287 -0.22284,-2.2964 -0.14308,-0.5676 -0.34481,-1.0485 -0.60283,-1.4449 -0.25802,-0.3964 -0.57937,-0.6967 -0.97579,-0.9078 -0.39407,-0.2087 -0.84912,-0.3143 -1.36751,-0.3143 -0.70838,0 -1.29714,0.19 -1.76158,0.57 -0.46678,0.38 -0.81628,0.9195 -1.05319,1.6185 -0.23457,0.699 -0.35185,1.6232 -0.35185,2.7726 0,1.8249 0.31901,3.1408 0.95937,3.95 0.53715,0.6732 1.27368,1.011 2.21194,1.011 z m -1.32998,-8.2356 c 0.32839,-0.4644 0.76703,-0.6943 1.31356,-0.6943 0.55827,0 1.02036,0.2627 1.39566,0.7882 0.3753,0.5254 0.56061,1.588 0.56061,3.1854 0,1.5903 -0.18531,2.6505 -0.56061,3.1806 -0.3753,0.5302 -0.8327,0.7952 -1.37689,0.7952 -0.55123,0 -1.01098,-0.2627 -1.38393,-0.7905 -0.37531,-0.5277 -0.55827,-1.588 -0.55827,-3.183 -0.002,-1.5974 0.20173,-2.6881 0.60987,-3.2816 z m 8.87358,8.2356 c 0.71073,0 1.29714,-0.1923 1.76158,-0.5747 0.46678,-0.3823 0.81863,-0.9242 1.05319,-1.6232 0.23457,-0.7013 0.35185,-1.6208 0.35185,-2.7608 0,-0.9617 -0.0727,-1.7287 -0.21815,-2.2964 -0.14777,-0.5676 -0.34715,-1.0485 -0.60283,-1.4449 -0.25802,-0.3941 -0.58406,-0.6967 -0.97579,-0.9078 -0.39406,-0.2087 -0.84912,-0.3143 -1.36985,-0.3143 -0.70839,0 -1.2948,0.19 -1.75924,0.57 -0.46678,0.38 -0.81394,0.9195 -1.05319,1.6185 -0.23457,0.699 -0.35419,1.6232 -0.35419,2.7726 0,1.8249 0.3237,3.1408 0.96171,3.95 0.53246,0.6732 1.26665,1.011 2.20491,1.011 z m -1.32529,-8.2356 c 0.32604,-0.4644 0.76468,-0.6943 1.31356,-0.6943 0.55592,0 1.02036,0.2627 1.39566,0.7882 0.3753,0.5254 0.56061,1.588 0.56061,3.1854 0,1.5903 -0.18531,2.6505 -0.56061,3.1806 -0.3753,0.5302 -0.83505,0.7952 -1.38159,0.7952 -0.54653,0 -1.00862,-0.2627 -1.38158,-0.7905 -0.37296,-0.5277 -0.55592,-1.588 -0.55592,-3.183 -0.005,-1.5974 0.19703,-2.6881 0.60987,-3.2816 z m 59.81161,0.4692 v 7.5999 h 1.19628 v -9.7509 h -0.76937 c -0.20642,0.4199 -0.56061,0.8515 -1.05789,1.2995 -0.49962,0.4457 -1.08134,0.8257 -1.7475,1.14 v 1.1517 c 0.36826,-0.1384 0.78813,-0.3425 1.25492,-0.6169 0.46209,-0.2744 0.83974,-0.5489 1.12356,-0.8233 z m -88.70527,13.5742 c -0.49963,0.4457 -1.08604,0.828 -1.74985,1.1377 v 1.154 c 0.37061,-0.1407 0.79048,-0.3424 1.25726,-0.6192 0.46678,-0.2745 0.83974,-0.5442 1.12591,-0.821 v 7.5952 h 1.19393 v -9.7485 h -0.76937 c -0.20876,0.4222 -0.56061,0.8561 -1.05788,1.3018 z m 10.39355,-0.077 c -0.25802,-0.3941 -0.58406,-0.6966 -0.97579,-0.9078 -0.39406,-0.2087 -0.84912,-0.3143 -1.36985,-0.3143 -0.7037,0 -1.2948,0.1877 -1.75924,0.5677 -0.46678,0.38 -0.81394,0.9218 -1.05319,1.6185 -0.23457,0.699 -0.35419,1.6232 -0.35419,2.7749 0,1.8225 0.32369,3.1384 0.96171,3.95 0.53481,0.6685 1.27134,1.0087 2.20491,1.0087 0.71073,0 1.29714,-0.1924 1.76158,-0.5747 0.46913,-0.3824 0.81863,-0.9242 1.05319,-1.6232 0.23457,-0.699 0.35185,-1.6185 0.35185,-2.7585 0,-0.9617 -0.0727,-1.7311 -0.21815,-2.2964 -0.14777,-0.57 -0.3495,-1.0508 -0.60283,-1.4449 z m -0.96406,6.9197 c -0.3753,0.5324 -0.83505,0.7951 -1.38158,0.7951 -0.54654,0 -1.00863,-0.2627 -1.38159,-0.7904 -0.37296,-0.5278 -0.55592,-1.588 -0.55592,-3.1831 0,-1.595 0.20173,-2.6857 0.61222,-3.2768 0.32604,-0.4645 0.76468,-0.6944 1.31356,-0.6944 0.55592,0 1.02035,0.2604 1.39566,0.7882 0.3753,0.5254 0.56061,1.588 0.56061,3.183 -0.002,1.588 -0.19,2.6483 -0.56296,3.1784 z m 5.66239,-6.8423 c -0.49728,0.4457 -1.08134,0.828 -1.74985,1.1377 v 1.154 c 0.37296,-0.1407 0.79283,-0.3424 1.25726,-0.6192 0.46679,-0.2745 0.84444,-0.5442 1.12826,-0.821 v 7.5952 h 1.19159 v -9.7485 h -0.76937 c -0.20408,0.4222 -0.56061,0.8561 -1.05789,1.3018 z m 10.39355,-0.077 c -0.25802,-0.3941 -0.57937,-0.6966 -0.97578,-0.9078 -0.39407,-0.2087 -0.84913,-0.3143 -1.36751,-0.3143 -0.70839,0 -1.29715,0.1877 -1.76158,0.5677 -0.46679,0.38 -0.81629,0.9218 -1.0532,1.6185 -0.23456,0.699 -0.35185,1.6232 -0.35185,2.7749 0,1.8225 0.31901,3.1384 0.95937,3.95 0.53481,0.6685 1.27134,1.0087 2.2096,1.0087 0.70604,0 1.29714,-0.1924 1.76158,-0.5747 0.46678,-0.3824 0.81394,-0.9242 1.0485,-1.6232 0.23457,-0.699 0.3542,-1.6185 0.3542,-2.7585 0,-0.9617 -0.0751,-1.7311 -0.22284,-2.2964 -0.14074,-0.57 -0.34246,-1.0508 -0.60049,-1.4449 z m -0.96406,6.9197 c -0.3753,0.5324 -0.8327,0.7951 -1.37689,0.7951 -0.55123,0 -1.01097,-0.2627 -1.38393,-0.7904 -0.3753,-0.5278 -0.55826,-1.588 -0.55826,-3.1831 0,-1.595 0.20407,-2.6857 0.61221,-3.2768 0.32839,-0.4645 0.76703,-0.6944 1.31356,-0.6944 0.55826,0 1.02036,0.2604 1.39566,0.7882 0.3753,0.5254 0.56061,1.588 0.56061,3.183 -0.002,1.588 -0.19,2.6483 -0.56296,3.1784 z m 8.51001,-6.9197 c -0.25802,-0.3941 -0.58407,-0.6966 -0.97579,-0.9078 -0.39407,-0.2087 -0.84913,-0.3143 -1.36986,-0.3143 -0.70838,0 -1.2948,0.1877 -1.75923,0.5677 -0.46679,0.38 -0.81394,0.9218 -1.0532,1.6185 -0.23456,0.699 -0.35419,1.6232 -0.35419,2.7749 0,1.8225 0.3237,3.1384 0.96171,3.95 0.53481,0.6685 1.26665,1.0087 2.20491,1.0087 0.71073,0 1.29714,-0.1924 1.76158,-0.5747 0.46678,-0.3824 0.81863,-0.9242 1.0532,-1.6232 0.23456,-0.699 0.35184,-1.6185 0.35184,-2.7585 0,-0.9617 -0.0727,-1.7311 -0.21814,-2.2964 -0.14543,-0.57 -0.34716,-1.0508 -0.60283,-1.4449 z m -0.96406,6.9197 c -0.37531,0.5324 -0.83505,0.7951 -1.38159,0.7951 -0.54653,0 -1.00863,-0.2627 -1.38158,-0.7904 -0.37296,-0.5278 -0.55592,-1.588 -0.55592,-3.1831 0,-1.595 0.20172,-2.6857 0.61221,-3.2768 0.32605,-0.4645 0.76468,-0.6944 1.31356,-0.6944 0.55592,0 1.02036,0.2604 1.39566,0.7882 0.37531,0.5254 0.56061,1.588 0.56061,3.183 -0.002,1.588 -0.18765,2.6483 -0.56295,3.1784 z m 58.30101,1.6091 v -9.7485 h -0.76937 c -0.20641,0.4198 -0.56061,0.8514 -1.05788,1.2995 -0.49963,0.4456 -1.08135,0.828 -1.74751,1.1376 v 1.1541 c 0.36827,-0.1408 0.78814,-0.3425 1.25258,-0.6193 0.46678,-0.2744 0.84677,-0.5442 1.12591,-0.821 v 7.5952 h 1.19627 z m -15.53755,11.5828 5.10178,-5.1018 17.719,17.7167 -5.10178,5.1041 -17.719,-17.719 z m 7.33952,-18.8004 c 0.17358,-0.129 0.33074,-0.2533 0.45975,-0.3847 v 7.5999 h 1.19393 v -9.7532 h -0.76937 c -0.15716,0.3237 -0.4316,0.6545 -0.75999,0.9922 0.0235,-0.4292 0.0633,-0.8538 0.0633,-1.2901 0,-3.7999 -0.93592,-7.3794 -2.57318,-10.5413 0.36827,-0.1384 0.78579,-0.3425 1.25023,-0.6145 0.46444,-0.2745 0.83974,-0.5466 1.12357,-0.821 v 7.6046 h 1.19158 v -9.7509 h -0.76702 c -0.20407,0.4199 -0.56061,0.8515 -1.06023,1.2995 -0.49728,0.4457 -1.08135,0.8257 -1.74751,1.14 v 1.1376 c -2.46997,-4.7734 -6.54201,-8.5897 -11.51712,-10.6961 v -9.1621 h -0.76703 c -0.2111,0.4199 -0.56295,0.8515 -1.05788,1.2995 -0.49962,0.4433 -1.08604,0.8256 -1.74985,1.14 v 1.1517 c 0.37061,-0.1361 0.78813,-0.3425 1.25492,-0.6146 0.46678,-0.2744 0.83974,-0.5489 1.12825,-0.8233 v 6.5725 c -1.54109,-0.5536 -3.15489,-0.9523 -4.82734,-1.1681 0.20173,-0.6803 0.31667,-1.5341 0.31667,-2.5967 0,-0.9617 -0.0751,-1.7264 -0.22049,-2.294 -0.14543,-0.57 -0.34716,-1.0509 -0.60049,-1.4449 -0.26037,-0.3964 -0.58641,-0.6967 -0.97579,-0.9078 -0.39407,-0.2088 -0.84912,-0.3143 -1.36986,-0.3143 -0.70838,0 -1.29479,0.19 -1.75923,0.57 -0.46678,0.38 -0.82098,0.9218 -1.05789,1.6185 -0.22987,0.7013 -0.3495,1.6232 -0.3495,2.7702 0,1.0227 0.11025,1.8671 0.30963,2.5685 -1.14937,0.1384 -2.27059,0.3682 -3.36366,0.6708 v -8.2004 h -0.76233 c -0.20876,0.4199 -0.56061,0.8515 -1.06023,1.2995 -0.50197,0.4434 -1.08369,0.8257 -1.74986,1.14 v 1.1517 c 0.37062,-0.136 0.79049,-0.3424 1.25493,-0.6145 0.46678,-0.2745 0.84443,-0.5489 1.12356,-0.8234 v 6.406 c -4.86722,1.6373 -9.02135,4.8391 -11.83144,9.0284 -0.0141,-0.024 -0.0211,-0.061 -0.0352,-0.084 -0.26037,-0.394 -0.58407,-0.6966 -0.97344,-0.9077 -0.39407,-0.2088 -0.85382,-0.3143 -1.37221,-0.3143 -0.70604,0 -1.29245,0.19 -1.75923,0.57 -0.46678,0.38 -0.81863,0.9195 -1.05554,1.6185 -0.23457,0.699 -0.35185,1.6231 -0.35185,2.7725 0,1.8249 0.31901,3.1408 0.95703,3.9501 0.30258,0.38 0.68727,0.6239 1.12121,0.7881 -0.28147,1.4355 -0.43629,2.9133 -0.43629,4.4286 0,0.3612 0.0375,0.7154 0.0539,1.0719 -0.37061,0.3613 -0.6732,0.821 -0.87727,1.4168 -0.23456,0.699 -0.35184,1.6232 -0.35184,2.7749 0,1.8226 0.319,3.1385 0.95702,3.9501 0.53481,0.6685 1.27134,1.0086 2.2096,1.0086 0.14543,0 0.26271,-0.042 0.39641,-0.059 3.76476,7.628 11.60391,12.901 20.66983,12.901 11.75872,0 21.46969,-8.8501 22.87473,-20.2312 z m -24.71606,-28.2814 c 0,-1.5927 0.20407,-2.6858 0.61456,-3.2769 0.32604,-0.4644 0.76702,-0.6966 1.3159,-0.6966 0.55358,0 1.02036,0.2627 1.39332,0.7857 0.37061,0.5255 0.55826,1.5881 0.55826,3.1854 0,1.0743 -0.0915,1.8883 -0.26506,2.477 -0.58641,-0.044 -1.17282,-0.089 -1.77331,-0.089 -0.5348,0 -1.05788,0.045 -1.58565,0.08 -0.16654,-0.5865 -0.25802,-1.3957 -0.25802,-2.4653 z m -21.07563,19.4665 c -0.37061,-0.5278 -0.55592,-1.588 -0.55592,-3.183 0,-1.5951 0.20408,-2.6858 0.61456,-3.2793 0.32605,-0.4644 0.76703,-0.6943 1.31122,-0.6943 0.56061,0 1.0227,0.2627 1.398,0.7882 0.11963,0.1689 0.21346,0.4128 0.29321,0.6896 -1.12356,1.907 -1.97738,3.9876 -2.51688,6.1948 -0.19469,-0.1313 -0.37999,-0.2861 -0.54419,-0.516 z m 0.46913,14.4281 c -0.37061,-0.5278 -0.55592,-1.588 -0.55592,-3.1831 0,-0.8655 0.0657,-1.5669 0.18766,-2.1392 0.29086,2.1392 0.86319,4.187 1.70059,6.1034 -0.52777,-0.024 -0.9711,-0.2721 -1.33233,-0.7811 z m 37.73205,-0.6005 c -0.23456,0.4621 -0.48789,0.9124 -0.75998,1.3464 0.0422,-0.033 0.0962,-0.063 0.13839,-0.096 -0.62863,1.0063 -1.37455,1.9234 -2.19083,2.7772 -0.14309,0.1502 -0.26975,0.312 -0.41753,0.4528 -0.13839,0.136 -0.27913,0.2556 -0.41752,0.38 -0.39407,0.3659 -0.80221,0.7201 -1.22912,1.0438 -0.0657,0.052 -0.13605,0.1055 -0.20173,0.1501 -2.8828,2.165 -6.45756,3.4622 -10.3396,3.4622 -9.53974,0 -17.27099,-7.7313 -17.27099,-17.2687 0,-6.3074 3.39415,-11.8127 8.44432,-14.8221 0.11963,-0.075 0.23926,-0.1501 0.36123,-0.2229 0.35654,-0.2017 0.7295,-0.3823 1.10011,-0.5559 2.27528,-1.1095 4.80857,-1.7616 7.50372,-1.7616 9.52567,0 17.27099,7.7477 17.27099,17.271 0,0.1689 -0.0211,0.3331 -0.0281,0.4997 -0.005,0.023 -0.0141,0.028 -0.0188,0.044 -0.12431,0.3636 -0.18296,0.8398 -0.18296,1.4356 0,0.1876 0.0117,0.3612 0.0258,0.5324 -0.27679,1.8976 -0.85382,3.6874 -1.7006,5.3317 h -0.0868 z"
       inkscape:connector-curvature="0"
       style="fill:#ffffff" />
    <g
       id="g6361"
       transform="matrix(1.1953652,0,0,1.1953652,499.42626,1042.6194)"
       style="fill:#ffffff">
      <path
         id="path6349"
         d="M 7.131,16.863 0,12.974 V 10.82 L 7.131,6.953 v 2.53 l -4.969,2.387 4.969,2.477 v 2.516 z"
         inkscape:connector-curvature="0"
         style="fill:#ffffff" />
      <path
         id="path6351"
         d="M 8.349,18.224 13.078,5.591 h 1.494 L 9.832,18.224 H 8.349 z"
         inkscape:connector-curvature="0"
         style="fill:#ffffff" />
      <path
         id="path6353"
         d="M 16.172,16.863 V 14.347 L 21.14,11.89 16.172,9.452 v -2.5 l 7.131,3.872 v 2.141 l -7.131,3.898 z"
         inkscape:connector-curvature="0"
         style="fill:#ffffff" />
    </g>
  </g>
</svg>
