<?xml version="1.0" encoding="UTF-8" standalone="no"?>
<!-- Created with Inkscape (http://www.inkscape.org/) -->

<svg
   xmlns:dc="http://purl.org/dc/elements/1.1/"
   xmlns:cc="http://creativecommons.org/ns#"
   xmlns:rdf="http://www.w3.org/1999/02/22-rdf-syntax-ns#"
   xmlns:svg="http://www.w3.org/2000/svg"
   xmlns="http://www.w3.org/2000/svg"
   xmlns:sodipodi="http://sodipodi.sourceforge.net/DTD/sodipodi-0.dtd"
   xmlns:inkscape="http://www.inkscape.org/namespaces/inkscape"
   width="1000"
   height="300"
   id="svg3063"
   version="1.1"
   inkscape:version="0.48.4 r9939"
   sodipodi:docname="how_tor_works_1.svg"
   inkscape:export-filename="C:\Users\jmwri_000\Documents\jordan-wright.github.com\source\images\headers\how_tor_works_1.png"
   inkscape:export-xdpi="89.496582"
   inkscape:export-ydpi="89.496582">
  <defs
     id="defs3065">
    <inkscape:path-effect
       effect="spiro"
       id="path-effect4377"
       is_visible="true" />
    <inkscape:path-effect
       effect="spiro"
       id="path-effect4377-1"
       is_visible="true" />
  </defs>
  <sodipodi:namedview
     id="base"
     pagecolor="#ffffff"
     bordercolor="#666666"
     borderopacity="1.0"
     inkscape:pageopacity="0.0"
     inkscape:pageshadow="2"
     inkscape:zoom="1.1460177"
     inkscape:cx="291.6477"
     inkscape:cy="264.73102"
     inkscape:current-layer="layer1"
     inkscape:document-units="px"
     showgrid="false"
     inkscape:window-width="1366"
     inkscape:window-height="705"
     inkscape:window-x="-8"
     inkscape:window-y="-8"
     inkscape:window-maximized="1" />
  <metadata
     id="metadata3068">
    <rdf:RDF>
      <cc:Work
         rdf:about="">
        <dc:format>image/svg+xml</dc:format>
        <dc:type
           rdf:resource="http://purl.org/dc/dcmitype/StillImage" />
        <dc:title></dc:title>
      </cc:Work>
    </rdf:RDF>
  </metadata>
  <g
     id="layer1"
     inkscape:label="Layer 1"
     inkscape:groupmode="layer"
     transform="translate(0,-900)">
    <rect
       style="fill:#3498df;fill-opacity:0.94117647"
       id="rect3955"
       width="1000"
       height="300"
       x="0"
       y="900"
       ry="6" />
    <path
       style="fill:#ffffff"
       d="m 500,950.00029 -87.5,50.00001 0,100 87.5,50 87.5,-50 0,-100 -87.5,-50.00001 z m -0.61963,14.63201 75.22552,43.0053 0,85.9813 -75.22552,42.9906 -75.22551,-42.9906 0,-85.9813 75.22551,-43.0053 z"
       id="path3075"
       inkscape:connector-curvature="0" />
    <path
       style="fill:#ffffff;fill-opacity:1;stroke:#ffffff;stroke-width:1px;stroke-linecap:butt;stroke-linejoin:miter;stroke-opacity:1"
       d="m 499.75864,1018.9175 0,58.6162 c 0,0 -22.8862,0.5705 -27.25552,-15.736 -4.36932,-16.3065 12.33214,-17.0321 27.25552,-42.8802 z"
       id="path3828"
       inkscape:connector-curvature="0" />
    <path
       style="fill:#ffffff;fill-opacity:1;stroke:#ffffff;stroke-width:1px;stroke-linecap:butt;stroke-linejoin:miter;stroke-opacity:1"
       d="m 498.70755,1018.9725 0,58.6161 c 0,0 22.8862,0.5705 27.25552,-15.736 4.36932,-16.3065 -12.33214,-17.0321 -27.25552,-42.8801 z"
       id="path3828-8"
       inkscape:connector-curvature="0" />
    <g
       id="g7489"
       transform="matrix(1.7626793,0,0,1.7626793,484.13112,1041.9068)"
       style="fill:#3498df;fill-opacity:0.94117647">
      <g
         id="g7441"
         style="fill:#3498df;fill-opacity:0.94117647">
	<g
   id="g7443"
   style="fill:#3498df;fill-opacity:0.94117647">
		<g
   id="g7445"
   style="fill:#3498df;fill-opacity:0.94117647">
			<path
   id="path7447"
   d="m 0.439,13.456 c -0.586,0.586 -0.586,1.535 0,2.121 0.293,0.293 0.677,0.439 1.061,0.439 0.384,0 0.768,-0.146 1.061,-0.439 L 7.486,10.651 5.364,8.531 0.439,13.456 z"
   style="fill:#3498df;fill-opacity:0.94117647"
   inkscape:connector-curvature="0" />

			<polygon
   id="polygon7449"
   points="12.799,1.125 11.688,3.268 9.079,5.88 10.137,6.94 12.748,4.328 14.893,3.219 16.016,1.048 14.969,0.001 "
   style="fill:#3498df;fill-opacity:0.94117647" />

			<path
   id="path7451"
   d="m 13.218,10.021 -0.202,-0.02 c -0.366,0 -0.713,0.075 -1.037,0.195 L 5.822,4.038 C 5.942,3.714 6.017,3.367 6.017,3.001 L 5.997,2.799 C 5.891,1.238 4.605,0.001 3.017,0.001 c -0.462,0 -0.895,0.113 -1.286,0.3 L 3.724,2.294 C 3.829,2.399 3.901,2.523 3.949,2.654 4.08,3.008 4.009,3.422 3.724,3.708 3.529,3.903 3.273,4.001 3.017,4.001 2.899,4.001 2.782,3.975 2.67,3.933 2.539,3.883 2.415,3.813 2.31,3.707 L 0.317,1.715 c -0.187,0.391 -0.3,0.824 -0.3,1.286 0,1.588 1.237,2.874 2.798,2.98 l 0.202,0.02 c 0.366,0 0.713,-0.075 1.037,-0.194 l 6.156,6.157 c -0.118,0.324 -0.193,0.671 -0.193,1.037 l 0.021,0.202 c 0.104,1.562 1.391,2.798 2.979,2.798 0.462,0 0.896,-0.111 1.286,-0.3 L 12.31,13.708 c -0.104,-0.104 -0.177,-0.229 -0.227,-0.359 -0.131,-0.354 -0.06,-0.769 0.227,-1.055 0.193,-0.195 0.451,-0.293 0.707,-0.293 0.118,0 0.234,0.025 0.348,0.068 0.131,0.049 0.256,0.119 0.359,0.225 l 1.993,1.993 c 0.188,-0.392 0.3,-0.824 0.3,-1.286 -0.001,-1.588 -1.238,-2.874 -2.799,-2.98 z"
   style="fill:#3498df;fill-opacity:0.94117647"
   inkscape:connector-curvature="0" />

		</g>

	</g>

</g>
      <g
         id="g7453"
         style="fill:#3498df;fill-opacity:0.94117647">
</g>
      <g
         id="g7455"
         style="fill:#3498df;fill-opacity:0.94117647">
</g>
      <g
         id="g7457"
         style="fill:#3498df;fill-opacity:0.94117647">
</g>
      <g
         id="g7459"
         style="fill:#3498df;fill-opacity:0.94117647">
</g>
      <g
         id="g7461"
         style="fill:#3498df;fill-opacity:0.94117647">
</g>
      <g
         id="g7463"
         style="fill:#3498df;fill-opacity:0.94117647">
</g>
      <g
         id="g7465"
         style="fill:#3498df;fill-opacity:0.94117647">
</g>
      <g
         id="g7467"
         style="fill:#3498df;fill-opacity:0.94117647">
</g>
      <g
         id="g7469"
         style="fill:#3498df;fill-opacity:0.94117647">
</g>
      <g
         id="g7471"
         style="fill:#3498df;fill-opacity:0.94117647">
</g>
      <g
         id="g7473"
         style="fill:#3498df;fill-opacity:0.94117647">
</g>
      <g
         id="g7475"
         style="fill:#3498df;fill-opacity:0.94117647">
</g>
      <g
         id="g7477"
         style="fill:#3498df;fill-opacity:0.94117647">
</g>
      <g
         id="g7479"
         style="fill:#3498df;fill-opacity:0.94117647">
</g>
      <g
         id="g7481"
         style="fill:#3498df;fill-opacity:0.94117647">
</g>
    </g>
  </g>
</svg>
