<?xml version="1.0" encoding="UTF-8" standalone="no"?>
<!-- Created with Inkscape (http://www.inkscape.org/) -->

<svg
   xmlns:dc="http://purl.org/dc/elements/1.1/"
   xmlns:cc="http://creativecommons.org/ns#"
   xmlns:rdf="http://www.w3.org/1999/02/22-rdf-syntax-ns#"
   xmlns:svg="http://www.w3.org/2000/svg"
   xmlns="http://www.w3.org/2000/svg"
   xmlns:sodipodi="http://sodipodi.sourceforge.net/DTD/sodipodi-0.dtd"
   xmlns:inkscape="http://www.inkscape.org/namespaces/inkscape"
   width="1000"
   height="300"
   id="svg3063"
   version="1.1"
   inkscape:version="0.48.4 r9939"
   sodipodi:docname="phishing_kits.svg"
   inkscape:export-filename="C:\Users\jmwri_000\Documents\jordan-wright.github.com\source\images\headers\phishing_kit.png"
   inkscape:export-xdpi="89.496582"
   inkscape:export-ydpi="89.496582">
  <defs
     id="defs3065">
    <inkscape:path-effect
       effect="spiro"
       id="path-effect4377"
       is_visible="true" />
    <inkscape:path-effect
       effect="spiro"
       id="path-effect4377-1"
       is_visible="true" />
  </defs>
  <sodipodi:namedview
     id="base"
     pagecolor="#ffffff"
     bordercolor="#666666"
     borderopacity="1.0"
     inkscape:pageopacity="0.0"
     inkscape:pageshadow="2"
     inkscape:zoom="4"
     inkscape:cx="494.45565"
     inkscape:cy="141.0619"
     inkscape:current-layer="layer1"
     inkscape:document-units="px"
     showgrid="false"
     inkscape:window-width="1366"
     inkscape:window-height="705"
     inkscape:window-x="-8"
     inkscape:window-y="-8"
     inkscape:window-maximized="1" />
  <metadata
     id="metadata3068">
    <rdf:RDF>
      <cc:Work
         rdf:about="">
        <dc:format>image/svg+xml</dc:format>
        <dc:type
           rdf:resource="http://purl.org/dc/dcmitype/StillImage" />
        <dc:title></dc:title>
      </cc:Work>
    </rdf:RDF>
  </metadata>
  <g
     id="layer1"
     inkscape:label="Layer 1"
     inkscape:groupmode="layer"
     transform="translate(0,-900)">
    <rect
       style="fill:#2c3e50;fill-opacity:1"
       id="rect3955"
       width="1000"
       height="300"
       x="0"
       y="900"
       ry="6" />
    <path
       style="fill:#ffffff"
       d="m 500,950.00029 -87.5,50.00001 0,100 87.5,50 87.5,-50 0,-100 -87.5,-50.00001 z m -0.61963,14.63201 75.22552,43.0053 0,85.9813 -75.22552,42.9906 -75.22551,-42.9906 0,-85.9813 75.22551,-43.0053 z"
       id="path3075"
       inkscape:connector-curvature="0" />
    <rect
       style="fill:#ffffff;fill-opacity:1;stroke:#ffffff;stroke-width:4.46944284000000010;stroke-miterlimit:4;stroke-opacity:1;stroke-dasharray:none"
       id="rect2997"
       width="60.839642"
       height="98.440605"
       x="466.95468"
       y="1000.6948"
       ry="5.3633313" />
    <rect
       style="fill:#2c3e50;fill-opacity:1;stroke:#ffffff;stroke-width:1.32121372;stroke-miterlimit:4;stroke-opacity:1;stroke-dasharray:none"
       id="rect2997-1"
       width="48.281307"
       height="10.8398"
       x="473.23389"
       y="1013.9547"
       ry="5"
       rx="5" />
    <path
       sodipodi:type="arc"
       style="fill:#2c3e50;fill-opacity:1;stroke:#ffffff;stroke-width:5;stroke-miterlimit:4;stroke-opacity:1;stroke-dasharray:none"
       id="path3793"
       sodipodi:cx="285.33591"
       sodipodi:cy="85.343628"
       sodipodi:rx="11.343629"
       sodipodi:ry="11.343629"
       d="m 296.67954,85.343628 a 11.343629,11.343629 0 1 1 -22.68726,0 11.343629,11.343629 0 1 1 22.68726,0 z"
       transform="matrix(0.41308742,0,0,0.41308742,388.21494,972.8723)" />
    <path
       sodipodi:type="arc"
       style="fill:#2c3e50;fill-opacity:1;stroke:#ffffff;stroke-width:5;stroke-miterlimit:4;stroke-opacity:1;stroke-dasharray:none"
       id="path3793-7"
       sodipodi:cx="285.33591"
       sodipodi:cy="85.343628"
       sodipodi:rx="11.343629"
       sodipodi:ry="11.343629"
       d="m 296.67954,85.343628 a 11.343629,11.343629 0 1 1 -22.68726,0 11.343629,11.343629 0 1 1 22.68726,0 z"
       transform="matrix(0.41308742,0,0,0.41308742,397.85008,972.87062)" />
    <rect
       style="fill:#2c3e50;fill-opacity:1;stroke:#ffffff;stroke-width:5;stroke-miterlimit:4;stroke-opacity:1;stroke-dasharray:none"
       id="rect3831"
       width="13.081475"
       height="28.284271"
       x="-408.94388"
       y="1077.011"
       ry="6"
       transform="matrix(0.70710678,-0.70710678,0.70710678,0.70710678,0,0)"
       inkscape:transform-center-x="12.374369" />
    <rect
       style="fill:#2c3e50;fill-opacity:1;stroke:#ffffff;stroke-width:5;stroke-miterlimit:4;stroke-opacity:1;stroke-dasharray:none"
       id="rect3831-0"
       width="13.081475"
       height="28.284271"
       x="-1112.5688"
       y="373.38602"
       ry="6"
       transform="matrix(-0.70710678,-0.70710678,-0.70710678,0.70710678,0,0)"
       inkscape:transform-center-x="-12.374352" />
    <rect
       style="fill:#2c3e50;fill-opacity:1;stroke:#ffffff;stroke-width:5;stroke-miterlimit:4;stroke-opacity:1;stroke-dasharray:none"
       id="rect3831-9"
       width="13.081475"
       height="28.284271"
       x="1097.4874"
       y="-429.67029"
       ry="6"
       transform="matrix(0.70710678,0.70710678,0.70710678,-0.70710678,0,0)"
       inkscape:transform-center-x="12.374347"
       inkscape:transform-center-y="3.8437926e-005" />
    <rect
       style="fill:#2c3e50;fill-opacity:1;stroke:#ffffff;stroke-width:5;stroke-miterlimit:4;stroke-opacity:1;stroke-dasharray:none"
       id="rect3831-9-4"
       width="13.081475"
       height="28.284271"
       x="394.48743"
       y="-1133.1703"
       ry="6"
       transform="matrix(-0.70710678,0.70710678,-0.70710678,-0.70710678,0,0)"
       inkscape:transform-center-x="-12.37433"
       inkscape:transform-center-y="3.8437926e-005" />
    <path
       sodipodi:type="arc"
       style="fill:#2c3e50;fill-opacity:1;stroke:#ffffff;stroke-width:2.20907736;stroke-miterlimit:4;stroke-opacity:1;stroke-dasharray:none"
       id="path3793-4"
       sodipodi:cx="285.33591"
       sodipodi:cy="85.343628"
       sodipodi:rx="11.343629"
       sodipodi:ry="11.343629"
       d="m 296.67954,85.343628 a 11.343629,11.343629 0 1 1 -22.68726,0 11.343629,11.343629 0 1 1 22.68726,0 z"
       transform="matrix(1.2160228,0,0,1.2160228,150.47467,960.80926)" />
    <path
       sodipodi:type="arc"
       style="fill:#ffffff;fill-opacity:1;stroke:#ffffff;stroke-width:0;stroke-miterlimit:4;stroke-opacity:1;stroke-dasharray:none"
       id="path3793-7-8"
       sodipodi:cx="285.33591"
       sodipodi:cy="85.343628"
       sodipodi:rx="11.343629"
       sodipodi:ry="11.343629"
       d="m 296.67954,85.343628 a 11.343629,11.343629 0 1 1 -22.68726,0 11.343629,11.343629 0 1 1 22.68726,0 z"
       transform="matrix(0.28841713,0,0,0.28841713,411.26477,1036.7925)" />
    <path
       sodipodi:type="arc"
       style="fill:#ffffff;fill-opacity:1;stroke:#ffffff;stroke-width:0;stroke-miterlimit:4;stroke-opacity:1;stroke-dasharray:none"
       id="path3793-7-8-2"
       sodipodi:cx="285.33591"
       sodipodi:cy="85.343628"
       sodipodi:rx="11.343629"
       sodipodi:ry="11.343629"
       d="m 296.67954,85.343628 a 11.343629,11.343629 0 1 1 -22.68726,0 11.343629,11.343629 0 1 1 22.68726,0 z"
       transform="matrix(0.28841713,0,0,0.28841713,419.04295,1036.7925)" />
    <path
       sodipodi:type="arc"
       style="fill:#2c3e50;fill-opacity:1;stroke:#ffffff;stroke-width:0;stroke-miterlimit:4;stroke-opacity:1;stroke-dasharray:none"
       id="path3793-45"
       sodipodi:cx="285.33591"
       sodipodi:cy="85.343628"
       sodipodi:rx="11.343629"
       sodipodi:ry="11.343629"
       d="m 296.67954,85.343628 a 11.343629,11.343629 0 1 1 -22.68726,0 11.343629,11.343629 0 1 1 22.68726,0 z"
       transform="matrix(0.41308742,0,0,0.41308742,359.4284,1015.1925)" />
    <path
       sodipodi:type="arc"
       style="fill:#2c3e50;fill-opacity:1;stroke:#ffffff;stroke-width:0;stroke-miterlimit:4;stroke-opacity:1;stroke-dasharray:none"
       id="path3793-5"
       sodipodi:cx="285.33591"
       sodipodi:cy="85.343628"
       sodipodi:rx="11.343629"
       sodipodi:ry="11.343629"
       d="m 296.67954,85.343628 a 11.343629,11.343629 0 1 1 -22.68726,0 11.343629,11.343629 0 1 1 22.68726,0 z"
       transform="matrix(0.41308742,0,0,0.41308742,363.67104,1011.3035)" />
    <path
       sodipodi:type="arc"
       style="fill:#2c3e50;fill-opacity:1;stroke:#ffffff;stroke-width:0;stroke-miterlimit:4;stroke-opacity:1;stroke-dasharray:none"
       id="path3793-1"
       sodipodi:cx="285.33591"
       sodipodi:cy="85.343628"
       sodipodi:rx="11.343629"
       sodipodi:ry="11.343629"
       d="m 296.67954,85.343628 a 11.343629,11.343629 0 1 1 -22.68726,0 11.343629,11.343629 0 1 1 22.68726,0 z"
       transform="matrix(0.41308742,0,0,0.41308742,363.31749,1049.1337)" />
    <path
       sodipodi:type="arc"
       style="fill:#2c3e50;fill-opacity:1;stroke:#ffffff;stroke-width:0;stroke-miterlimit:4;stroke-opacity:1;stroke-dasharray:none"
       id="path3793-71"
       sodipodi:cx="285.33591"
       sodipodi:cy="85.343628"
       sodipodi:rx="11.343629"
       sodipodi:ry="11.343629"
       d="m 296.67954,85.343628 a 11.343629,11.343629 0 1 1 -22.68726,0 11.343629,11.343629 0 1 1 22.68726,0 z"
       transform="matrix(0.41308742,0,0,0.41308742,358.36774,1045.2446)" />
    <path
       sodipodi:type="arc"
       style="fill:#2c3e50;fill-opacity:1;stroke:#ffffff;stroke-width:0;stroke-miterlimit:4;stroke-opacity:1;stroke-dasharray:none"
       id="path3793-15"
       sodipodi:cx="285.33591"
       sodipodi:cy="85.343628"
       sodipodi:rx="11.343629"
       sodipodi:ry="11.343629"
       d="m 296.67954,85.343628 a 11.343629,11.343629 0 1 1 -22.68726,0 11.343629,11.343629 0 1 1 22.68726,0 z"
       transform="matrix(0.41308742,0,0,0.41308742,394.07663,1011.3034)" />
    <path
       sodipodi:type="arc"
       style="fill:#2c3e50;fill-opacity:1;stroke:#ffffff;stroke-width:0;stroke-miterlimit:4;stroke-opacity:1;stroke-dasharray:none"
       id="path3793-2"
       sodipodi:cx="285.33591"
       sodipodi:cy="85.343628"
       sodipodi:rx="11.343629"
       sodipodi:ry="11.343629"
       d="m 296.67954,85.343628 a 11.343629,11.343629 0 1 1 -22.68726,0 11.343629,11.343629 0 1 1 22.68726,0 z"
       transform="matrix(0.41308742,0,0,0.41308742,399.37994,1015.5461)" />
    <path
       sodipodi:type="arc"
       style="fill:#2c3e50;fill-opacity:1;stroke:#ffffff;stroke-width:0;stroke-miterlimit:4;stroke-opacity:1;stroke-dasharray:none"
       id="path3793-76"
       sodipodi:cx="285.33591"
       sodipodi:cy="85.343628"
       sodipodi:rx="11.343629"
       sodipodi:ry="11.343629"
       d="m 296.67954,85.343628 a 11.343629,11.343629 0 1 1 -22.68726,0 11.343629,11.343629 0 1 1 22.68726,0 z"
       transform="matrix(0.41308742,0,0,0.41308742,400.08704,1045.2446)" />
    <path
       sodipodi:type="arc"
       style="fill:#2c3e50;fill-opacity:1;stroke:#ffffff;stroke-width:0;stroke-miterlimit:4;stroke-opacity:1;stroke-dasharray:none"
       id="path3793-14"
       sodipodi:cx="285.33591"
       sodipodi:cy="85.343628"
       sodipodi:rx="11.343629"
       sodipodi:ry="11.343629"
       d="m 296.67954,85.343628 a 11.343629,11.343629 0 1 1 -22.68726,0 11.343629,11.343629 0 1 1 22.68726,0 z"
       transform="matrix(0.41308742,0,0,0.41308742,394.43019,1048.7801)" />
  </g>
</svg>
